<?xml version="1.0" encoding="utf-8"?>
<!-- Generator: Adobe Illustrator 22.1.0, SVG Export Plug-In . SVG Version: 6.00 Build 0)  -->
<svg version="1.1" id="Layer_1" xmlns="http://www.w3.org/2000/svg" xmlns:xlink="http://www.w3.org/1999/xlink" x="0px" y="0px"
	 viewBox="0 0 294.1 191.8" style="enable-background:new 0 0 294.1 191.8;" xml:space="preserve">
<style type="text/css">
	.st0{fill:url(#SVGID_1_);}
	.st1{opacity:0.3;fill:#FFFFFF;}
	.st2{fill:#FFFFFF;}
	.st3{fill:url(#SVGID_2_);}
	.st4{fill:url(#SVGID_3_);}
	.st5{fill:#8A6327;}
	.st6{fill:url(#SVGID_4_);}
</style>
<g>
	<g>
		<linearGradient id="SVGID_1_" gradientUnits="userSpaceOnUse" x1="59.438" y1="87.5906" x2="234.6188" y2="87.5906">
			<stop  offset="0" style="stop-color:#406731"/>
			<stop  offset="0.355" style="stop-color:#467135"/>
			<stop  offset="1" style="stop-color:#5D8139"/>
		</linearGradient>
		<circle class="st0" cx="147" cy="87.6" r="87.6"/>
		<path class="st1" d="M147,1c48.2,0,87.3,38.9,87.6,87.1c0-0.2,0-0.3,0-0.5C234.6,39.2,195.4,0,147,0C98.7,0,59.4,39.2,59.4,87.6
			c0,0.2,0,0.3,0,0.5C59.7,40,98.8,1,147,1z"/>
		<path class="st2" d="M226.6,87.6c0,43.9-35.6,79.5-79.5,79.5c-43.9,0-79.5-35.6-79.5-79.5c0-43.9,35.6-79.5,79.5-79.5
			C191,8.1,226.6,43.7,226.6,87.6z"/>
		<linearGradient id="SVGID_2_" gradientUnits="userSpaceOnUse" x1="70.8377" y1="87.5883" x2="223.2191" y2="87.5883">
			<stop  offset="0" style="stop-color:#406731"/>
			<stop  offset="0.355" style="stop-color:#467135"/>
			<stop  offset="1" style="stop-color:#5D8139"/>
		</linearGradient>
		<path class="st3" d="M223.2,87.6c0,42.1-34.1,76.2-76.2,76.2c-42.1,0-76.2-34.1-76.2-76.2c0-42.1,34.1-76.2,76.2-76.2
			C189.1,11.4,223.2,45.5,223.2,87.6z"/>
	</g>
	<linearGradient id="SVGID_3_" gradientUnits="userSpaceOnUse" x1="147.0284" y1="103.0214" x2="147.0284" y2="73.891">
		<stop  offset="0" style="stop-color:#010101"/>
		<stop  offset="1" style="stop-color:#FFFFFF"/>
	</linearGradient>
	<path class="st4" d="M59.4,87.6c0,48.4,39.2,87.6,87.6,87.6c48.4,0,87.6-39.2,87.6-87.6c0-5.1-0.5-10.1-1.3-14.9H60.7
		C59.9,77.5,59.4,82.5,59.4,87.6z"/>
	<path class="st5" d="M0,191.8v-60.4c0-23.9,19.4-43.3,43.3-43.3h250.8v60.4c0,23.9-19.4,43.3-43.3,43.3H0z"/>
	<g>
		
			<image style="overflow:visible;" width="1199" height="407" xlink:href="5AA8926F.png"  transform="matrix(0.24 0 0 0.24 3.12 91.2)">
		</image>
	</g>
	<path class="st2" d="M7.9,183.9v-52.4c0-19.5,15.9-35.3,35.3-35.3h242.9v52.4c0,19.5-15.9,35.3-35.3,35.3H7.9z"/>
	<linearGradient id="SVGID_4_" gradientUnits="userSpaceOnUse" x1="147.0276" y1="201.8354" x2="147.0276" y2="98.5131">
		<stop  offset="0" style="stop-color:#CFAE46"/>
		<stop  offset="0.2399" style="stop-color:#D7BB60"/>
		<stop  offset="0.558" style="stop-color:#E0CA7B"/>
		<stop  offset="0.8228" style="stop-color:#E6D48B"/>
		<stop  offset="1" style="stop-color:#E9D791"/>
	</linearGradient>
	<path class="st6" d="M250.8,180.6H11.2v-49.1c0-17.6,14.4-32,32.1-32h239.6v49.1C282.8,166.2,268.4,180.6,250.8,180.6z"/>
	<path class="st1" d="M43.3,99.4c-17.6,0-32.1,14.4-32.1,32v0.9c0-17.6,14.4-32,32.1-32h239.6v-0.9H43.3z"/>
	<g>
		<path class="st2" d="M100.6,76.1c-0.4,1.4-0.8,1.6-2.1,1.2c-1.3-0.4-2.6-0.9-3.7-1.7c-1.1-0.7-1.3-1.7-0.9-3.5
			c1.1-5,4.4-16.8,7-24.8c-1.8-1.2-2.3-1.6-1.3-3.2c1.1-1.9,2.7-4,3.8-5.5c1.1-1.3,1.6-1.5,3-1.1c1.3,0.4,2.7,1.1,4,2.2
			c1.2,1,1.4,1.5,0.8,3C108.2,50.8,103,67.3,100.6,76.1z"/>
		<path class="st2" d="M137.2,46.2c0.5,8.4-3,21.9-9.9,28.6c-2.4,2.3-4.8,2.9-7.9,2.6c-2-0.2-4.3-1-5.9-2.2
			c-1.2-0.8-2.5-2.5-3.1-4.3c-2.5-8.8,2.7-24.7,11.2-31.5c1.9-1.5,4.3-2,6.5-1.8c2.6,0.3,5.3,1.5,6.7,2.8
			C136.5,41.9,137,43.9,137.2,46.2z M119.9,56.4c-2.3,6.2-3,13.4-0.8,14.3c2.2,0.9,5.7-4.5,8.1-11.7c1.9-5.6,3.2-14,1.4-14.6
			C126.7,43.9,122.4,49.5,119.9,56.4z"/>
		<path class="st2" d="M165.5,46.2c0.5,8.4-3,21.9-9.9,28.6c-2.4,2.3-4.8,2.9-7.9,2.6c-2-0.2-4.3-1-5.9-2.2
			c-1.2-0.8-2.5-2.5-3.1-4.3c-2.5-8.8,2.7-24.7,11.2-31.5c1.9-1.5,4.3-2,6.5-1.8c2.6,0.3,5.3,1.5,6.7,2.8
			C164.8,41.9,165.4,43.9,165.5,46.2z M148.3,56.4c-2.3,6.2-3,13.4-0.8,14.3c2.2,0.9,5.7-4.5,8.1-11.7c1.9-5.6,3.2-14,1.4-14.6
			C155.1,43.9,150.8,49.5,148.3,56.4z"/>
		<path class="st2" d="M172.4,76.1c-0.7,1.1-1.2,0.9-1.9,0c-1.3-1.5-1.8-3.1,0-5.7c3.5-5.2,12.4-16.5,19.1-24.7
			c-2.2,1.2-4.7,1.5-6.5,0.7c-0.4,3.8-2,8.1-4.7,10.3c-1.2,1-2.7,1.4-4.3,1.1c-1.1-0.2-2.3-0.7-3.1-1.4c-0.7-0.6-1.4-1.4-1.7-2.5
			c-1.4-4.4,1.4-12.2,5.8-15.4c0.9-0.7,2.4-0.9,3.4-0.7c1.3,0.2,2.6,0.9,3.4,1.7c0.4,0.5,0.9,1.3,1.2,2.1c0.6,1.2,1.7,1.8,3,1.9
			c2.3,0.2,6.5-1.4,9.4-4.7c0.9-0.9,1.5-0.9,2.2,0.2c1.1,1.8,1.4,3.8-0.3,5.8C191.4,51.7,177.3,69.2,172.4,76.1z M174.5,47.2
			c-1.3,3.6-1.7,6.6-0.7,7.1c1,0.4,2.5-1.6,3.9-5.4c1.1-3.2,1.6-6.7,0.8-7.1C177.8,41.3,175.5,44.5,174.5,47.2z M192.4,75.8
			c-1.2,1-2.7,1.4-4.3,1.1c-1.1-0.2-2.3-0.7-3.1-1.4c-0.7-0.6-1.3-1.5-1.6-2.5c-1.3-4.4,1.6-12.2,6.1-15.4c1.1-0.8,2.2-0.9,3.4-0.7
			c1.4,0.2,2.6,1.1,3.3,1.7c0.9,0.9,1.3,2.2,1.4,3.5C197.8,66.3,196.1,72.9,192.4,75.8z M188.9,66.1c-1.4,3.6-1.9,6.7-0.9,7.1
			c0.9,0.4,2.5-1.6,4-5.4c1.1-3,1.8-6.8,1-7.2C192.2,60.2,189.9,63.5,188.9,66.1z"/>
	</g>
	<g>
		<path class="st5" d="M60.8,138.4c0,1.7-0.2,3.3-0.6,4.9c-0.4,1.6-1,3-1.7,4.4c-0.7,1.4-1.6,2.6-2.7,3.8c-1.1,1.1-2.2,2.1-3.5,2.9
			c-1.3,0.8-2.7,1.5-4.3,1.9c-1.5,0.5-3.2,0.7-4.9,0.7c-1.7,0-3.3-0.2-4.8-0.6c-1.5-0.4-2.9-1-4.3-1.8c-1.3-0.8-2.5-1.7-3.6-2.8
			c-1.1-1.1-2-2.3-2.7-3.6c-0.8-1.3-1.3-2.8-1.8-4.3c-0.4-1.5-0.6-3.1-0.6-4.8c0-1.6,0.2-3.2,0.6-4.8c0.4-1.6,1-3,1.7-4.4
			c0.7-1.4,1.6-2.6,2.7-3.8c1-1.2,2.2-2.1,3.5-3c1.3-0.8,2.7-1.5,4.2-2c1.5-0.5,3.1-0.7,4.8-0.7c2.7,0,5.2,0.4,7.4,1.3
			c2.2,0.8,4.1,2,5.7,3.6c1.6,1.6,2.8,3.4,3.7,5.6C60.4,133.2,60.8,135.7,60.8,138.4z M48.4,139.1c0-0.8-0.1-1.6-0.3-2.3
			c-0.2-0.8-0.6-1.4-1-2c-0.4-0.6-1-1.1-1.7-1.4c-0.7-0.4-1.4-0.5-2.3-0.5c-0.9,0-1.7,0.2-2.3,0.5c-0.7,0.3-1.3,0.7-1.8,1.3
			c-0.5,0.5-0.9,1.2-1.1,1.9c-0.3,0.7-0.4,1.5-0.4,2.3c0,0.8,0.1,1.6,0.3,2.3c0.2,0.8,0.6,1.5,1,2.1c0.4,0.6,1,1.1,1.7,1.5
			c0.7,0.4,1.4,0.6,2.3,0.6c0.9,0,1.7-0.2,2.4-0.5c0.7-0.3,1.3-0.8,1.8-1.4c0.5-0.6,0.9-1.3,1.1-2C48.3,140.7,48.4,139.9,48.4,139.1
			z"/>
		<path class="st5" d="M97.8,132.9c0,1.4-0.1,2.8-0.4,3.9c-0.3,1.2-0.6,2.3-1.2,3.2c-0.5,1-1.2,1.9-2.1,2.7
			c-0.9,0.8-1.9,1.6-3.1,2.4l6.6,11.8l-12.6,2.5l-4.3-11.9l-3.5,0.1l-0.5,11.6h-12c0.1-4.2,0.8-35.9,0.9-38c1.3-0.5,2.6-0.9,3.8-1.2
			c1.3-0.3,2.5-0.6,3.8-0.7c1.3-0.2,2.6-0.3,3.9-0.4c1.3-0.1,2.7-0.1,4-0.1c2.1,0,4.2,0.3,6.2,0.9c2,0.6,3.7,1.5,5.3,2.6
			c1.5,1.2,2.7,2.6,3.7,4.4C97.3,128.5,97.8,130.5,97.8,132.9z M85.3,133.7c0-0.8-0.1-1.5-0.3-2.1c-0.2-0.6-0.5-1.2-0.9-1.7
			c-0.4-0.5-0.9-0.8-1.6-1.1c-0.6-0.3-1.4-0.4-2.2-0.4c-0.4,0-0.7,0-1.1,0.1c-0.4,0-0.7,0.1-1,0.2L77.7,139h0.7
			c0.8,0,1.6-0.1,2.4-0.3c0.8-0.2,1.6-0.5,2.2-0.9c0.7-0.4,1.2-1,1.6-1.6C85,135.5,85.3,134.7,85.3,133.7z"/>
		<path class="st5" d="M135.6,154.1c-0.9,1.1-2,2.1-3.2,2.9c-1.3,0.8-2.7,1.5-4.1,2c-1.5,0.5-3,0.9-4.5,1.2c-1.5,0.3-3,0.4-4.4,0.4
			c-2.7,0-5.2-0.5-7.4-1.5c-2.3-1-4.2-2.3-5.9-4c-1.6-1.7-2.9-3.7-3.9-6c-0.9-2.3-1.4-4.8-1.4-7.4c0-2,0.2-4,0.7-6
			c0.5-1.9,1.1-3.8,2-5.5c0.9-1.7,1.9-3.3,3.2-4.7c1.2-1.4,2.7-2.7,4.2-3.7c1.6-1,3.3-1.8,5.2-2.4c1.9-0.6,3.9-0.9,6-0.9
			c0.8,0,1.7,0,2.6,0.1c0.9,0.1,1.8,0.2,2.7,0.3c0.9,0.2,1.8,0.4,2.6,0.7c0.9,0.3,1.6,0.6,2.3,1l-0.8,10.7c-1-0.4-2.1-0.7-3.2-0.8
			c-1.1-0.1-2.2-0.2-3.2-0.2c-1.5,0-2.9,0.2-4.2,0.7c-1.3,0.5-2.4,1.1-3.4,2c-1,0.9-1.7,1.9-2.3,3.1c-0.6,1.2-0.8,2.6-0.8,4.2
			c0,1,0.1,1.9,0.4,2.8c0.3,0.9,0.7,1.7,1.2,2.4c0.5,0.7,1.2,1.3,2,1.7c0.8,0.4,1.7,0.6,2.7,0.6c0.7,0,1.4-0.1,2.2-0.3
			c0.8-0.2,1.4-0.5,1.9-0.9l0.1-2.2l-6.7-0.1l0.3-8.4c2.8-0.1,13.9-0.4,16.7-0.5L135.6,154.1z"/>
		<path class="st5" d="M175.2,157.3l-13.8,1.8l-1.7-6.3h-6.4l-1.4,6.3l-14.2-1.4l11.1-37.2l15.5-0.8L175.2,157.3z M158.7,144.3
			l-2.1-9.7l-2.1,9.7H158.7z"/>
		<polygon class="st5" points="216,119.7 214,157.6 199.4,158.9 191.6,138.7 190.4,159.3 177.8,159.3 178.8,119.7 192.8,119.1 
			202.4,139.2 202.9,120.2 		"/>
		<polygon class="st5" points="235.6,120.5 232.6,158.5 220.8,159.1 220.8,121.3 		"/>
		<path class="st5" d="M267.2,120.5l-1.6,11.8c-0.5-0.1-1.1-0.3-1.6-0.3c-0.5-0.1-1.1-0.1-1.6-0.1c-1.4,0-2.7,0.2-3.9,0.5
			c-1.2,0.4-2.3,0.9-3.3,1.7c-1,0.7-1.7,1.7-2.3,2.8c-0.6,1.1-0.9,2.4-0.9,3.9c0,1,0.2,1.8,0.5,2.5c0.3,0.7,0.7,1.3,1.3,1.8
			c0.6,0.5,1.2,0.8,2,1c0.8,0.2,1.6,0.3,2.5,0.3c0.7,0,1.4-0.1,2.1-0.2c0.7-0.1,1.5-0.3,2.2-0.6c0.7-0.2,1.4-0.5,2.1-0.8
			c0.7-0.3,1.3-0.6,1.9-1l-1.1,13.1c-0.7,0.4-1.5,0.7-2.4,1c-0.8,0.3-1.7,0.5-2.6,0.8c-0.9,0.2-1.8,0.4-2.7,0.5
			c-0.9,0.1-1.7,0.2-2.6,0.2c-2.4,0-4.6-0.4-6.6-1.3c-2-0.9-3.8-2.1-5.3-3.6c-1.5-1.5-2.7-3.3-3.6-5.4c-0.9-2.1-1.3-4.3-1.3-6.7
			c0-3.2,0.5-6.2,1.4-9c0.9-2.8,2.3-5.3,4-7.4c1.8-2.1,4-3.8,6.6-5c2.6-1.2,5.6-1.8,9-1.8c1.3,0,2.6,0.1,3.9,0.3
			C264.8,119.6,266,120,267.2,120.5z"/>
	</g>
</g>
</svg>
