<?xml version="1.0" encoding="utf-8"?>
<!-- Generator: Adobe Illustrator 21.0.0, SVG Export Plug-In . SVG Version: 6.00 Build 0)  -->
<svg version="1.1" id="Layer_1" xmlns="http://www.w3.org/2000/svg" xmlns:xlink="http://www.w3.org/1999/xlink" x="0px" y="0px"
	 viewBox="0 0 124.7 69.8" style="enable-background:new 0 0 124.7 69.8;" xml:space="preserve">
<style type="text/css">
	.st0{fill:#89CBE8;}
	.st1{fill:#FFFFFF;}
	.st2{fill:#0052B0;}
	.st3{fill:#00337C;}
	.st4{fill:#003D9A;}
	.st5{fill:#D4F0FF;}
	.st6{fill:#BAE7FF;}
	.st7{fill:#72AFE4;}
	.st8{fill:#4C9F38;stroke:#FFFFFF;stroke-width:0.9036;stroke-miterlimit:10;}
	.st9{fill:#009067;}
	.st10{fill:#068E65;}
	.st11{fill:#007355;}
	.st12{fill:#3FBB75;}
	.st13{fill:#00438D;}
	.st14{fill:#C0E2FF;}
	.st15{fill:#00A664;}
	.st16{fill:#007963;}
	.st17{fill:#002E60;}
	.st18{fill:#005C95;}
	.st19{fill:#A2D4F8;}
	.st20{fill:#005C9D;}
	.st21{fill:#003E6F;}
	.st22{fill:#B9E6FF;}
	.st23{fill:#89DCE8;}
	.st24{fill:#8FBEF0;}
	.st25{clip-path:url(#SVGID_2_);fill:#91D979;}
	.st26{clip-path:url(#SVGID_2_);fill:#7FC764;}
	.st27{clip-path:url(#SVGID_2_);}
	.st28{fill:#59AB5B;}
	.st29{fill:#FFB72E;}
	.st30{fill:none;stroke:#00604B;stroke-width:0.75;stroke-linecap:round;stroke-linejoin:round;stroke-miterlimit:10;}
	.st31{fill:#009E62;}
	.st32{clip-path:url(#SVGID_2_);fill:#78BB5F;}
	
		.st33{clip-path:url(#SVGID_2_);fill:none;stroke:#00604B;stroke-width:0.75;stroke-linecap:round;stroke-linejoin:round;stroke-miterlimit:10;}
	.st34{clip-path:url(#SVGID_2_);fill:#009E62;}
	.st35{clip-path:url(#SVGID_2_);fill:#59AB5B;}
	.st36{fill:#78BB5F;}
	.st37{fill:#00BCF6;}
	.st38{fill:none;stroke:#0094D2;stroke-width:0.75;stroke-linecap:round;stroke-linejoin:round;stroke-miterlimit:10;}
	.st39{fill:#214D88;}
	.st40{fill:#002321;}
	.st41{fill:#FF986A;}
	.st42{fill:#FF7C52;}
	.st43{fill:#00604B;}
	.st44{fill:#00CBF7;}
	.st45{fill:none;stroke:#004734;stroke-width:0.75;stroke-linecap:round;stroke-linejoin:round;stroke-miterlimit:10;}
	.st46{fill:#00884F;}
	.st47{fill:#368A36;}
	.st48{fill:#004734;}
	.st49{fill:none;stroke:#FF9E16;stroke-width:0.75;stroke-linecap:round;stroke-linejoin:round;stroke-miterlimit:10;}
	.st50{fill:none;stroke:#00884F;stroke-width:0.75;stroke-linecap:round;stroke-linejoin:round;stroke-miterlimit:10;}
	.st51{clip-path:url(#SVGID_2_);fill:#00604B;}
	.st52{fill:#F8433A;}
	.st53{fill:none;stroke:#FFFFFF;stroke-width:3;stroke-linecap:round;stroke-miterlimit:10;}
	.st54{fill:#FF9602;}
	.st55{fill:#89C44E;}
	.st56{fill:#FCC209;}
	.st57{fill:#4EAF50;}
	.st58{fill:#68CCEA;}
	.st59{fill:#E69F45;}
	.st60{fill:url(#SVGID_3_);}
	.st61{fill:#3A845C;}
	.st62{fill:url(#SVGID_4_);}
	.st63{fill:url(#SVGID_5_);}
	.st64{fill:#A59F3E;}
	.st65{opacity:0.17;}
	.st66{fill:#243E6A;}
	.st67{fill:#46B88A;}
	.st68{fill:#60E2A9;}
	.st69{fill:#40A882;}
	.st70{fill:#75CFE3;}
	.st71{fill:url(#SVGID_6_);}
	.st72{fill:url(#SVGID_7_);}
	.st73{opacity:0.28;}
	.st74{fill:url(#SVGID_8_);}
	.st75{fill:#173C5B;}
	.st76{fill:url(#SVGID_9_);}
	.st77{fill:url(#SVGID_10_);}
	.st78{opacity:0.26;}
	.st79{fill:url(#SVGID_11_);}
	.st80{fill:url(#SVGID_12_);}
	.st81{opacity:0.2;}
	.st82{fill:#FDE4B1;}
	.st83{fill:#27365E;}
	.st84{fill:#314776;}
	.st85{fill:#2D3C71;}
	.st86{fill:#FFE263;}
	.st87{fill:#9B650A;}
	.st88{opacity:0.53;fill:#27365E;}
	.st89{fill:#3F5C94;}
	.st90{opacity:0.42;fill:url(#SVGID_13_);}
	.st91{opacity:0.42;fill:url(#SVGID_14_);}
	.st92{fill:url(#SVGID_15_);}
	.st93{fill:url(#SVGID_16_);}
	.st94{fill:#ECE18C;}
	.st95{fill:#DDC37F;}
	.st96{fill:#8F503F;}
	.st97{fill:#926649;}
	.st98{fill:#1B1B65;}
	.st99{fill:#784E4E;}
	.st100{fill:#27A5A8;}
	.st101{fill:#19B5B9;}
	.st102{fill:#60D0EC;}
	.st103{fill:#D5F5A5;}
	.st104{clip-path:url(#SVGID_18_);fill:#006C8A;}
	.st105{clip-path:url(#SVGID_18_);fill:url(#SVGID_19_);}
	.st106{clip-path:url(#SVGID_18_);fill:url(#SVGID_20_);}
	.st107{clip-path:url(#SVGID_18_);fill:url(#SVGID_21_);}
	.st108{clip-path:url(#SVGID_18_);fill:url(#SVGID_22_);}
	.st109{clip-path:url(#SVGID_18_);fill:url(#SVGID_23_);}
	.st110{clip-path:url(#SVGID_18_);fill:url(#SVGID_24_);}
	.st111{clip-path:url(#SVGID_18_);fill:url(#SVGID_25_);}
	.st112{clip-path:url(#SVGID_18_);fill:url(#SVGID_26_);}
	.st113{fill:url(#SVGID_27_);}
	.st114{fill:url(#SVGID_28_);}
	.st115{fill:url(#SVGID_29_);}
	.st116{fill:url(#SVGID_30_);}
	.st117{fill:url(#SVGID_31_);}
	.st118{fill:url(#SVGID_32_);}
	.st119{fill:url(#SVGID_33_);}
	.st120{fill:url(#SVGID_34_);}
	.st121{fill:url(#SVGID_35_);}
	.st122{fill:url(#SVGID_36_);}
	.st123{fill:url(#SVGID_37_);}
	.st124{fill:url(#SVGID_38_);}
	.st125{fill:#CFB478;}
	.st126{fill:#C0A36F;}
	.st127{fill:url(#SVGID_39_);}
	.st128{fill:url(#SVGID_40_);}
	.st129{fill:url(#SVGID_41_);}
	.st130{fill:url(#SVGID_42_);}
	.st131{opacity:0.2;fill:#4C9F38;}
	.st132{fill:none;stroke:#4C9F38;stroke-width:13.7725;stroke-linecap:round;stroke-linejoin:round;stroke-miterlimit:10;}
	.st133{fill:#4C9F38;stroke:#FFFFFF;stroke-width:0.9182;stroke-miterlimit:10;}
	.st134{opacity:0.5;}
	.st135{fill:#53576B;}
	.st136{fill:url(#SVGID_43_);}
	.st137{fill:url(#SVGID_44_);}
	.st138{fill:url(#SVGID_45_);}
	.st139{fill:url(#SVGID_46_);}
	.st140{opacity:0.3;fill:#FFFFFF;}
	.st141{fill:url(#SVGID_47_);}
	.st142{fill:url(#SVGID_48_);}
	.st143{fill:url(#SVGID_49_);}
	.st144{fill:url(#SVGID_50_);}
	.st145{fill:url(#SVGID_51_);}
	.st146{fill:url(#SVGID_52_);}
	.st147{fill:url(#SVGID_53_);}
	.st148{fill:url(#SVGID_54_);}
	.st149{fill:url(#SVGID_55_);}
	.st150{fill:url(#SVGID_56_);}
	.st151{opacity:0.4;fill:url(#SVGID_57_);}
	.st152{fill:url(#SVGID_58_);}
	.st153{fill:url(#SVGID_59_);}
	.st154{fill:url(#SVGID_60_);}
	.st155{fill:url(#SVGID_61_);}
	.st156{fill:url(#SVGID_62_);}
	.st157{fill:url(#SVGID_63_);}
	.st158{fill:url(#SVGID_64_);}
	.st159{fill:url(#SVGID_65_);}
	.st160{fill:url(#SVGID_66_);}
	.st161{fill:url(#SVGID_67_);}
	.st162{fill:url(#SVGID_68_);}
	.st163{fill:url(#SVGID_69_);}
	.st164{fill:url(#SVGID_70_);}
	.st165{fill:url(#SVGID_71_);}
	.st166{fill:url(#SVGID_72_);}
	.st167{fill:url(#SVGID_73_);}
	.st168{fill:url(#SVGID_74_);}
	.st169{fill:url(#SVGID_75_);}
	.st170{fill:url(#SVGID_76_);}
	.st171{fill:url(#SVGID_77_);}
	.st172{fill:url(#SVGID_78_);}
	.st173{fill:url(#SVGID_79_);}
	.st174{fill:url(#SVGID_80_);}
	.st175{fill:url(#SVGID_81_);}
	.st176{fill:url(#SVGID_82_);}
	.st177{fill:url(#SVGID_83_);}
	.st178{fill:url(#SVGID_84_);}
	.st179{fill:url(#SVGID_85_);}
	.st180{fill:url(#SVGID_86_);}
	.st181{fill:url(#SVGID_87_);}
	.st182{fill:url(#SVGID_88_);}
	.st183{fill:url(#SVGID_89_);}
	.st184{fill:url(#SVGID_90_);}
	.st185{fill:url(#SVGID_91_);}
	.st186{fill:url(#SVGID_92_);}
	.st187{fill:url(#SVGID_93_);}
	.st188{fill:url(#SVGID_94_);}
	.st189{fill:url(#SVGID_95_);}
	.st190{fill:url(#SVGID_96_);}
	.st191{fill:url(#SVGID_97_);}
	.st192{fill:url(#SVGID_98_);}
	.st193{fill:url(#SVGID_99_);}
	.st194{opacity:0.2;fill:url(#SVGID_100_);}
	.st195{opacity:0.2;fill:url(#SVGID_101_);}
	.st196{opacity:0.2;fill:url(#SVGID_102_);}
	.st197{opacity:0.2;fill:url(#SVGID_103_);}
	.st198{opacity:0.2;fill:url(#SVGID_104_);}
	.st199{opacity:0.2;fill:url(#SVGID_105_);}
	.st200{opacity:0.2;fill:url(#SVGID_106_);}
	.st201{opacity:0.2;fill:url(#SVGID_107_);}
	.st202{opacity:0.2;fill:url(#SVGID_108_);}
	.st203{opacity:0.2;fill:url(#SVGID_109_);}
	.st204{opacity:0.2;fill:url(#SVGID_110_);}
	.st205{opacity:0.2;fill:url(#SVGID_111_);}
	.st206{opacity:0.2;fill:url(#SVGID_112_);}
	.st207{opacity:0.2;fill:url(#SVGID_113_);}
	.st208{opacity:0.2;fill:url(#SVGID_114_);}
	.st209{opacity:0.2;fill:url(#SVGID_115_);}
	.st210{opacity:0.2;fill:url(#SVGID_116_);}
	.st211{opacity:0.2;fill:url(#SVGID_117_);}
	.st212{opacity:0.2;fill:url(#SVGID_118_);}
	.st213{opacity:0.2;fill:url(#SVGID_119_);}
	.st214{opacity:0.2;fill:url(#SVGID_120_);}
	.st215{opacity:0.2;fill:url(#SVGID_121_);}
	.st216{opacity:0.2;fill:url(#SVGID_122_);}
	.st217{opacity:0.2;fill:url(#SVGID_123_);}
	.st218{fill:url(#SVGID_124_);}
	.st219{fill:url(#SVGID_125_);}
	.st220{opacity:0.7;fill:url(#SVGID_126_);}
	.st221{fill:url(#SVGID_127_);}
	.st222{fill:url(#SVGID_128_);}
	.st223{fill:url(#SVGID_129_);}
	.st224{opacity:0.7;fill:url(#SVGID_130_);}
	.st225{fill:url(#SVGID_131_);}
	.st226{fill:url(#SVGID_132_);}
	.st227{fill:url(#SVGID_133_);}
	.st228{fill:url(#SVGID_134_);}
	.st229{fill:url(#SVGID_135_);}
	.st230{opacity:0.8;fill:url(#SVGID_136_);}
	.st231{fill:#F6A728;}
	.st232{fill:#333333;}
	.st233{fill:#F28CB3;}
	.st234{fill:#EC1C24;}
	.st235{fill:#F2F2F2;}
	.st236{enable-background:new    ;}
	.st237{fill:#003C7F;}
	.st238{fill:none;stroke:#CCCCCC;stroke-width:0.7759;stroke-miterlimit:10;}
	.st239{fill:#003C7F;stroke:#FFFFFF;stroke-width:7.2717;stroke-miterlimit:10;}
	.st240{fill:#F9AE00;}
	.st241{fill:none;stroke:#F6A728;stroke-width:0.853;stroke-miterlimit:10;}
	.st242{fill:url(#SVGID_137_);}
	.st243{opacity:0.5;clip-path:url(#SVGID_139_);}
	.st244{fill:#FCFDFE;}
	.st245{fill:#97A6B7;}
	.st246{fill:#D8DEE8;}
	.st247{fill:#99A0AA;}
	.st248{fill:url(#SVGID_140_);}
	.st249{fill:url(#SVGID_141_);}
	.st250{fill:url(#SVGID_142_);}
	.st251{fill:url(#SVGID_143_);}
	.st252{fill:url(#SVGID_144_);}
	.st253{fill:url(#SVGID_145_);}
	.st254{fill:url(#SVGID_146_);}
	.st255{opacity:0.57;fill:#FFFFFF;}
	.st256{opacity:0.2;fill:#B7C0CE;}
	.st257{opacity:0.75;fill:#F4F7FA;}
	.st258{fill:url(#SVGID_147_);}
	.st259{fill:url(#SVGID_148_);}
	.st260{opacity:0.3;fill:url(#SVGID_149_);}
	.st261{fill:url(#SVGID_150_);}
	.st262{opacity:0.3;fill:url(#SVGID_151_);}
	.st263{fill:url(#SVGID_152_);}
	.st264{fill:url(#SVGID_153_);}
	.st265{fill:url(#SVGID_154_);}
	.st266{opacity:0.5;fill:#F4F7FA;}
	.st267{opacity:0.3;fill:url(#SVGID_155_);}
	.st268{opacity:0.44;fill:#F4F7FA;}
	.st269{fill:url(#SVGID_156_);}
	.st270{fill:url(#SVGID_157_);}
	.st271{fill:url(#SVGID_158_);}
	.st272{fill:url(#SVGID_159_);}
	.st273{fill:url(#SVGID_160_);}
	.st274{fill:url(#SVGID_161_);}
	.st275{fill:url(#SVGID_162_);}
	.st276{opacity:7.000000e-02;fill:#FFFFFF;}
	.st277{fill:url(#SVGID_163_);}
	.st278{fill:url(#SVGID_164_);}
	.st279{fill:url(#SVGID_165_);}
	.st280{clip-path:url(#SVGID_167_);}
	.st281{clip-path:url(#SVGID_169_);fill:#FFFFFF;}
	.st282{clip-path:url(#SVGID_169_);}
	.st283{fill:url(#SVGID_170_);}
	.st284{fill:url(#SVGID_171_);}
	.st285{fill:url(#SVGID_172_);}
	.st286{fill:url(#SVGID_173_);}
	.st287{fill:url(#SVGID_174_);}
	.st288{fill:url(#SVGID_175_);}
	.st289{fill:url(#SVGID_176_);}
	.st290{fill:url(#SVGID_177_);}
	.st291{fill:url(#SVGID_178_);}
	.st292{fill:url(#SVGID_179_);}
	.st293{fill:url(#SVGID_180_);}
	.st294{fill:url(#SVGID_181_);}
	.st295{fill:url(#SVGID_182_);}
	.st296{fill:url(#SVGID_183_);}
	.st297{fill:url(#SVGID_184_);}
	.st298{fill:url(#SVGID_185_);}
	.st299{fill:url(#SVGID_186_);}
	.st300{fill:url(#SVGID_187_);}
	.st301{fill:url(#SVGID_188_);}
	.st302{fill:url(#SVGID_189_);}
	.st303{fill:url(#SVGID_190_);}
	.st304{fill:url(#SVGID_191_);}
	.st305{fill:url(#SVGID_192_);}
	.st306{fill:url(#SVGID_193_);}
	.st307{fill:url(#SVGID_194_);}
	.st308{fill:url(#SVGID_195_);}
	.st309{fill:url(#SVGID_196_);}
	.st310{fill:url(#SVGID_197_);}
	.st311{fill:url(#SVGID_198_);}
	.st312{fill:url(#SVGID_199_);}
	.st313{fill:url(#SVGID_200_);}
	.st314{fill:url(#SVGID_201_);}
	.st315{fill:url(#SVGID_202_);}
	.st316{fill:url(#SVGID_203_);}
	.st317{fill:url(#SVGID_204_);}
	.st318{fill:url(#SVGID_205_);}
	.st319{fill:url(#SVGID_206_);}
	.st320{fill:url(#SVGID_207_);}
	.st321{fill:url(#SVGID_208_);}
	.st322{fill:url(#SVGID_209_);}
	.st323{fill:url(#SVGID_210_);}
	.st324{fill:url(#SVGID_211_);}
	.st325{fill:url(#SVGID_212_);}
	.st326{fill:url(#SVGID_213_);}
	.st327{fill:url(#SVGID_214_);}
	.st328{fill:url(#SVGID_215_);}
	.st329{fill:url(#SVGID_216_);}
	.st330{fill:url(#SVGID_217_);}
	.st331{fill:url(#SVGID_218_);}
	.st332{fill:url(#SVGID_219_);}
	.st333{fill:url(#SVGID_220_);}
	.st334{fill:url(#SVGID_221_);}
	.st335{fill:url(#SVGID_222_);}
	.st336{fill:url(#SVGID_223_);}
	.st337{fill:url(#SVGID_224_);}
	.st338{fill:url(#SVGID_225_);}
	.st339{fill:url(#SVGID_226_);}
	.st340{fill:url(#SVGID_227_);}
	.st341{fill:url(#SVGID_228_);}
	.st342{fill:url(#SVGID_229_);}
	.st343{fill:url(#SVGID_230_);}
	.st344{fill:url(#SVGID_231_);}
	.st345{fill:url(#SVGID_232_);}
	.st346{fill:url(#SVGID_233_);}
	.st347{fill:url(#SVGID_234_);}
	.st348{fill:url(#SVGID_235_);}
	.st349{fill:url(#SVGID_236_);}
	.st350{fill:url(#SVGID_237_);}
	.st351{fill:url(#SVGID_238_);}
	.st352{fill:url(#SVGID_239_);}
	.st353{fill:url(#SVGID_240_);}
	.st354{fill:url(#SVGID_241_);}
	.st355{fill:url(#SVGID_242_);}
	.st356{fill:url(#SVGID_243_);}
	.st357{fill:url(#SVGID_244_);}
	.st358{fill:url(#SVGID_245_);}
	.st359{fill:url(#SVGID_246_);}
	.st360{fill:url(#SVGID_247_);}
	.st361{fill:url(#SVGID_248_);}
	.st362{fill:url(#SVGID_249_);}
	.st363{fill:url(#SVGID_250_);}
	.st364{fill:url(#SVGID_251_);}
	.st365{fill:url(#SVGID_252_);}
	.st366{fill:url(#SVGID_253_);}
	.st367{fill:url(#SVGID_254_);}
	.st368{fill:url(#SVGID_255_);}
	.st369{fill:url(#SVGID_256_);}
	.st370{fill:url(#SVGID_257_);}
	.st371{fill:url(#SVGID_258_);}
	.st372{fill:url(#SVGID_259_);}
	.st373{fill:url(#SVGID_260_);}
	.st374{fill:url(#SVGID_261_);}
	.st375{fill:url(#SVGID_262_);}
	.st376{fill:url(#SVGID_263_);}
	.st377{fill:url(#SVGID_264_);}
	.st378{fill:url(#SVGID_265_);}
	.st379{fill:url(#SVGID_266_);}
	.st380{fill:url(#SVGID_267_);}
	.st381{fill:url(#SVGID_268_);}
	.st382{fill:url(#SVGID_269_);}
	.st383{fill:url(#SVGID_270_);}
	.st384{fill:url(#SVGID_271_);}
	.st385{fill:url(#SVGID_272_);}
	.st386{fill:url(#SVGID_273_);}
	.st387{fill:url(#SVGID_274_);}
	.st388{fill:url(#SVGID_275_);}
	.st389{fill:url(#SVGID_276_);}
	.st390{fill:url(#SVGID_277_);}
	.st391{fill:url(#SVGID_278_);}
	.st392{fill:url(#SVGID_279_);}
	.st393{fill:url(#SVGID_280_);}
	.st394{fill:url(#SVGID_281_);}
	.st395{fill:url(#SVGID_282_);}
	.st396{fill:url(#SVGID_283_);}
	.st397{fill:url(#SVGID_284_);}
	.st398{fill:url(#SVGID_285_);}
	.st399{fill:url(#SVGID_286_);}
	.st400{fill:url(#SVGID_287_);}
	.st401{fill:url(#SVGID_288_);}
	.st402{fill:url(#SVGID_289_);}
	.st403{fill:url(#SVGID_290_);}
	.st404{fill:url(#SVGID_291_);}
	.st405{fill:url(#SVGID_292_);}
	.st406{fill:url(#SVGID_293_);}
	.st407{fill:url(#SVGID_294_);}
	.st408{fill:url(#SVGID_295_);}
	.st409{fill:url(#SVGID_296_);}
	.st410{fill:url(#SVGID_297_);}
	.st411{fill:url(#SVGID_298_);}
	.st412{fill:url(#SVGID_299_);}
	.st413{fill:url(#SVGID_300_);}
	.st414{fill:url(#SVGID_301_);}
	.st415{fill:url(#SVGID_302_);}
	.st416{fill:url(#SVGID_303_);}
	.st417{fill:url(#SVGID_304_);}
	.st418{fill:url(#SVGID_305_);}
	.st419{fill:url(#SVGID_306_);}
	.st420{fill:url(#SVGID_307_);}
	.st421{fill:url(#SVGID_308_);}
	.st422{fill:url(#SVGID_309_);}
	.st423{fill:url(#SVGID_310_);}
	.st424{fill:url(#SVGID_311_);}
	.st425{fill:url(#SVGID_312_);}
	.st426{fill:url(#SVGID_313_);}
	.st427{fill:url(#SVGID_314_);}
	.st428{fill:url(#SVGID_315_);}
	.st429{fill:url(#SVGID_316_);}
	.st430{fill:url(#SVGID_317_);}
	.st431{fill:url(#SVGID_318_);}
	.st432{fill:url(#SVGID_319_);}
	.st433{fill:url(#SVGID_320_);}
	.st434{fill:url(#SVGID_321_);}
	.st435{fill:url(#SVGID_322_);}
	.st436{fill:url(#SVGID_323_);}
	.st437{fill:url(#SVGID_324_);}
	.st438{fill:url(#SVGID_325_);}
	.st439{fill:url(#SVGID_326_);}
	.st440{fill:url(#SVGID_327_);}
	.st441{fill:url(#SVGID_328_);}
	.st442{fill:url(#SVGID_329_);}
	.st443{fill:url(#SVGID_330_);}
	.st444{fill:url(#SVGID_331_);}
	.st445{fill:url(#SVGID_332_);}
	.st446{fill:url(#SVGID_333_);}
	.st447{fill:url(#SVGID_334_);}
	.st448{fill:url(#SVGID_335_);}
	.st449{fill:url(#SVGID_336_);}
	.st450{fill:url(#SVGID_337_);}
	.st451{fill:url(#SVGID_338_);}
	.st452{fill:url(#SVGID_339_);}
	.st453{fill:url(#SVGID_340_);}
	.st454{fill:url(#SVGID_341_);}
	.st455{fill:url(#SVGID_342_);}
	.st456{fill:url(#SVGID_343_);}
	.st457{fill:url(#SVGID_344_);}
	.st458{fill:url(#SVGID_345_);}
	.st459{fill:url(#SVGID_346_);}
	.st460{fill:url(#SVGID_347_);}
	.st461{fill:url(#SVGID_348_);}
	.st462{fill:url(#SVGID_349_);}
	.st463{clip-path:url(#SVGID_169_);fill:#945500;}
	.st464{fill:url(#SVGID_350_);}
	.st465{fill:url(#SVGID_351_);}
	.st466{fill:url(#SVGID_352_);}
	.st467{fill:url(#SVGID_353_);}
	.st468{fill:url(#SVGID_354_);}
	.st469{fill:url(#SVGID_355_);}
	.st470{fill:url(#SVGID_356_);}
	.st471{fill:url(#SVGID_357_);}
	.st472{clip-path:url(#SVGID_359_);}
	.st473{clip-path:url(#SVGID_361_);fill:#FFFFFF;}
	.st474{clip-path:url(#SVGID_361_);}
	.st475{fill:url(#SVGID_362_);}
	.st476{fill:url(#SVGID_363_);}
	.st477{fill:url(#SVGID_364_);}
	.st478{fill:url(#SVGID_365_);}
	.st479{fill:url(#SVGID_366_);}
	.st480{fill:url(#SVGID_367_);}
	.st481{fill:url(#SVGID_368_);}
	.st482{fill:url(#SVGID_369_);}
	.st483{fill:url(#SVGID_370_);}
	.st484{fill:url(#SVGID_371_);}
	.st485{fill:url(#SVGID_372_);}
	.st486{fill:url(#SVGID_373_);}
	.st487{fill:url(#SVGID_374_);}
	.st488{fill:url(#SVGID_375_);}
	.st489{fill:url(#SVGID_376_);}
	.st490{fill:url(#SVGID_377_);}
	.st491{fill:url(#SVGID_378_);}
	.st492{fill:url(#SVGID_379_);}
	.st493{fill:url(#SVGID_380_);}
	.st494{fill:url(#SVGID_381_);}
	.st495{fill:url(#SVGID_382_);}
	.st496{fill:url(#SVGID_383_);}
	.st497{fill:url(#SVGID_384_);}
	.st498{fill:url(#SVGID_385_);}
	.st499{fill:url(#SVGID_386_);}
	.st500{fill:url(#SVGID_387_);}
	.st501{fill:url(#SVGID_388_);}
	.st502{fill:url(#SVGID_389_);}
	.st503{fill:url(#SVGID_390_);}
	.st504{fill:url(#SVGID_391_);}
	.st505{fill:url(#SVGID_392_);}
	.st506{fill:url(#SVGID_393_);}
	.st507{fill:url(#SVGID_394_);}
	.st508{fill:url(#SVGID_395_);}
	.st509{fill:url(#SVGID_396_);}
	.st510{fill:url(#SVGID_397_);}
	.st511{fill:url(#SVGID_398_);}
	.st512{fill:url(#SVGID_399_);}
	.st513{fill:url(#SVGID_400_);}
	.st514{fill:url(#SVGID_401_);}
	.st515{fill:url(#SVGID_402_);}
	.st516{fill:url(#SVGID_403_);}
	.st517{fill:url(#SVGID_404_);}
	.st518{fill:url(#SVGID_405_);}
	.st519{fill:url(#SVGID_406_);}
	.st520{fill:url(#SVGID_407_);}
	.st521{fill:url(#SVGID_408_);}
	.st522{fill:url(#SVGID_409_);}
	.st523{fill:url(#SVGID_410_);}
	.st524{fill:url(#SVGID_411_);}
	.st525{fill:url(#SVGID_412_);}
	.st526{fill:url(#SVGID_413_);}
	.st527{fill:url(#SVGID_414_);}
	.st528{fill:url(#SVGID_415_);}
	.st529{fill:url(#SVGID_416_);}
	.st530{fill:url(#SVGID_417_);}
	.st531{fill:url(#SVGID_418_);}
	.st532{fill:url(#SVGID_419_);}
	.st533{fill:url(#SVGID_420_);}
	.st534{fill:url(#SVGID_421_);}
	.st535{fill:url(#SVGID_422_);}
	.st536{fill:url(#SVGID_423_);}
	.st537{fill:url(#SVGID_424_);}
	.st538{fill:url(#SVGID_425_);}
	.st539{fill:url(#SVGID_426_);}
	.st540{fill:url(#SVGID_427_);}
	.st541{fill:url(#SVGID_428_);}
	.st542{fill:url(#SVGID_429_);}
	.st543{fill:url(#SVGID_430_);}
	.st544{fill:url(#SVGID_431_);}
	.st545{fill:url(#SVGID_432_);}
	.st546{fill:url(#SVGID_433_);}
	.st547{fill:url(#SVGID_434_);}
	.st548{fill:url(#SVGID_435_);}
	.st549{fill:url(#SVGID_436_);}
	.st550{fill:url(#SVGID_437_);}
	.st551{fill:url(#SVGID_438_);}
	.st552{fill:url(#SVGID_439_);}
	.st553{fill:url(#SVGID_440_);}
	.st554{fill:url(#SVGID_441_);}
	.st555{fill:url(#SVGID_442_);}
	.st556{fill:url(#SVGID_443_);}
	.st557{fill:url(#SVGID_444_);}
	.st558{fill:url(#SVGID_445_);}
	.st559{fill:url(#SVGID_446_);}
	.st560{fill:url(#SVGID_447_);}
	.st561{fill:url(#SVGID_448_);}
	.st562{fill:url(#SVGID_449_);}
	.st563{fill:url(#SVGID_450_);}
	.st564{fill:url(#SVGID_451_);}
	.st565{fill:url(#SVGID_452_);}
	.st566{fill:url(#SVGID_453_);}
	.st567{fill:url(#SVGID_454_);}
	.st568{fill:url(#SVGID_455_);}
	.st569{fill:url(#SVGID_456_);}
	.st570{fill:url(#SVGID_457_);}
	.st571{fill:url(#SVGID_458_);}
	.st572{fill:url(#SVGID_459_);}
	.st573{fill:url(#SVGID_460_);}
	.st574{fill:url(#SVGID_461_);}
	.st575{fill:url(#SVGID_462_);}
	.st576{fill:url(#SVGID_463_);}
	.st577{fill:url(#SVGID_464_);}
	.st578{fill:url(#SVGID_465_);}
	.st579{fill:url(#SVGID_466_);}
	.st580{fill:url(#SVGID_467_);}
	.st581{fill:url(#SVGID_468_);}
	.st582{fill:url(#SVGID_469_);}
	.st583{fill:url(#SVGID_470_);}
	.st584{fill:url(#SVGID_471_);}
	.st585{fill:url(#SVGID_472_);}
	.st586{fill:url(#SVGID_473_);}
	.st587{fill:url(#SVGID_474_);}
	.st588{fill:url(#SVGID_475_);}
	.st589{fill:url(#SVGID_476_);}
	.st590{fill:url(#SVGID_477_);}
	.st591{fill:url(#SVGID_478_);}
	.st592{fill:url(#SVGID_479_);}
	.st593{fill:url(#SVGID_480_);}
	.st594{fill:url(#SVGID_481_);}
	.st595{fill:url(#SVGID_482_);}
	.st596{fill:url(#SVGID_483_);}
	.st597{fill:url(#SVGID_484_);}
	.st598{fill:url(#SVGID_485_);}
	.st599{fill:url(#SVGID_486_);}
	.st600{fill:url(#SVGID_487_);}
	.st601{fill:url(#SVGID_488_);}
	.st602{fill:url(#SVGID_489_);}
	.st603{fill:url(#SVGID_490_);}
	.st604{fill:url(#SVGID_491_);}
	.st605{fill:url(#SVGID_492_);}
	.st606{fill:url(#SVGID_493_);}
	.st607{fill:url(#SVGID_494_);}
	.st608{fill:url(#SVGID_495_);}
	.st609{fill:url(#SVGID_496_);}
	.st610{fill:url(#SVGID_497_);}
	.st611{fill:url(#SVGID_498_);}
	.st612{fill:url(#SVGID_499_);}
	.st613{fill:url(#SVGID_500_);}
	.st614{fill:url(#SVGID_501_);}
	.st615{fill:url(#SVGID_502_);}
	.st616{fill:url(#SVGID_503_);}
	.st617{fill:url(#SVGID_504_);}
	.st618{fill:url(#SVGID_505_);}
	.st619{fill:url(#SVGID_506_);}
	.st620{fill:url(#SVGID_507_);}
	.st621{fill:url(#SVGID_508_);}
	.st622{fill:url(#SVGID_509_);}
	.st623{fill:url(#SVGID_510_);}
	.st624{fill:url(#SVGID_511_);}
	.st625{fill:url(#SVGID_512_);}
	.st626{fill:url(#SVGID_513_);}
	.st627{fill:url(#SVGID_514_);}
	.st628{fill:url(#SVGID_515_);}
	.st629{fill:url(#SVGID_516_);}
	.st630{fill:url(#SVGID_517_);}
	.st631{fill:url(#SVGID_518_);}
	.st632{fill:url(#SVGID_519_);}
	.st633{fill:url(#SVGID_520_);}
	.st634{fill:url(#SVGID_521_);}
	.st635{fill:url(#SVGID_522_);}
	.st636{fill:url(#SVGID_523_);}
	.st637{fill:url(#SVGID_524_);}
	.st638{fill:url(#SVGID_525_);}
	.st639{fill:url(#SVGID_526_);}
	.st640{fill:url(#SVGID_527_);}
	.st641{fill:url(#SVGID_528_);}
	.st642{fill:url(#SVGID_529_);}
	.st643{fill:url(#SVGID_530_);}
	.st644{fill:url(#SVGID_531_);}
	.st645{fill:url(#SVGID_532_);}
	.st646{fill:url(#SVGID_533_);}
	.st647{fill:url(#SVGID_534_);}
	.st648{fill:url(#SVGID_535_);}
	.st649{fill:url(#SVGID_536_);}
	.st650{fill:url(#SVGID_537_);}
	.st651{fill:url(#SVGID_538_);}
	.st652{fill:url(#SVGID_539_);}
	.st653{fill:url(#SVGID_540_);}
	.st654{fill:url(#SVGID_541_);}
	.st655{clip-path:url(#SVGID_361_);fill:#A39F91;}
	.st656{fill:url(#SVGID_542_);}
	.st657{fill:url(#SVGID_543_);}
	.st658{fill:url(#SVGID_544_);}
	.st659{fill:url(#SVGID_545_);}
	.st660{fill:url(#SVGID_546_);}
	.st661{fill:url(#SVGID_547_);}
	.st662{fill:url(#SVGID_548_);}
	.st663{fill:url(#SVGID_549_);}
	.st664{fill:url(#SVGID_550_);}
	.st665{fill:url(#SVGID_551_);}
	.st666{clip-path:url(#SVGID_553_);}
	.st667{clip-path:url(#SVGID_555_);fill:#FFFFFF;}
	.st668{clip-path:url(#SVGID_555_);}
	.st669{fill:url(#SVGID_556_);}
	.st670{fill:url(#SVGID_557_);}
	.st671{fill:url(#SVGID_558_);}
	.st672{fill:url(#SVGID_559_);}
	.st673{fill:url(#SVGID_560_);}
	.st674{fill:url(#SVGID_561_);}
	.st675{fill:url(#SVGID_562_);}
	.st676{fill:url(#SVGID_563_);}
	.st677{fill:url(#SVGID_564_);}
	.st678{fill:url(#SVGID_565_);}
	.st679{fill:url(#SVGID_566_);}
	.st680{fill:url(#SVGID_567_);}
	.st681{fill:url(#SVGID_568_);}
	.st682{fill:url(#SVGID_569_);}
	.st683{fill:url(#SVGID_570_);}
	.st684{fill:url(#SVGID_571_);}
	.st685{fill:url(#SVGID_572_);}
	.st686{fill:url(#SVGID_573_);}
	.st687{fill:url(#SVGID_574_);}
	.st688{fill:url(#SVGID_575_);}
	.st689{fill:url(#SVGID_576_);}
	.st690{fill:url(#SVGID_577_);}
	.st691{fill:url(#SVGID_578_);}
	.st692{fill:url(#SVGID_579_);}
	.st693{fill:url(#SVGID_580_);}
	.st694{fill:url(#SVGID_581_);}
	.st695{fill:url(#SVGID_582_);}
	.st696{fill:url(#SVGID_583_);}
	.st697{fill:url(#SVGID_584_);}
	.st698{fill:url(#SVGID_585_);}
	.st699{fill:url(#SVGID_586_);}
	.st700{fill:url(#SVGID_587_);}
	.st701{fill:url(#SVGID_588_);}
	.st702{fill:url(#SVGID_589_);}
	.st703{fill:url(#SVGID_590_);}
	.st704{fill:url(#SVGID_591_);}
	.st705{fill:url(#SVGID_592_);}
	.st706{fill:url(#SVGID_593_);}
	.st707{fill:url(#SVGID_594_);}
	.st708{fill:url(#SVGID_595_);}
	.st709{fill:url(#SVGID_596_);}
	.st710{fill:url(#SVGID_597_);}
	.st711{fill:url(#SVGID_598_);}
	.st712{fill:url(#SVGID_599_);}
	.st713{fill:url(#SVGID_600_);}
	.st714{fill:url(#SVGID_601_);}
	.st715{fill:url(#SVGID_602_);}
	.st716{fill:url(#SVGID_603_);}
	.st717{fill:url(#SVGID_604_);}
	.st718{fill:url(#SVGID_605_);}
	.st719{fill:url(#SVGID_606_);}
	.st720{fill:url(#SVGID_607_);}
	.st721{fill:url(#SVGID_608_);}
	.st722{fill:url(#SVGID_609_);}
	.st723{fill:url(#SVGID_610_);}
	.st724{fill:url(#SVGID_611_);}
	.st725{fill:url(#SVGID_612_);}
	.st726{fill:url(#SVGID_613_);}
	.st727{fill:url(#SVGID_614_);}
	.st728{fill:url(#SVGID_615_);}
	.st729{fill:url(#SVGID_616_);}
	.st730{fill:url(#SVGID_617_);}
	.st731{fill:url(#SVGID_618_);}
	.st732{fill:url(#SVGID_619_);}
	.st733{fill:url(#SVGID_620_);}
	.st734{fill:url(#SVGID_621_);}
	.st735{fill:url(#SVGID_622_);}
	.st736{fill:url(#SVGID_623_);}
	.st737{fill:url(#SVGID_624_);}
	.st738{fill:url(#SVGID_625_);}
	.st739{fill:url(#SVGID_626_);}
	.st740{fill:url(#SVGID_627_);}
	.st741{fill:url(#SVGID_628_);}
	.st742{fill:url(#SVGID_629_);}
	.st743{fill:url(#SVGID_630_);}
	.st744{fill:url(#SVGID_631_);}
	.st745{fill:url(#SVGID_632_);}
	.st746{fill:url(#SVGID_633_);}
	.st747{fill:url(#SVGID_634_);}
	.st748{fill:url(#SVGID_635_);}
	.st749{fill:url(#SVGID_636_);}
	.st750{fill:url(#SVGID_637_);}
	.st751{fill:url(#SVGID_638_);}
	.st752{fill:url(#SVGID_639_);}
	.st753{fill:url(#SVGID_640_);}
	.st754{fill:url(#SVGID_641_);}
	.st755{fill:url(#SVGID_642_);}
	.st756{fill:url(#SVGID_643_);}
	.st757{fill:url(#SVGID_644_);}
	.st758{fill:url(#SVGID_645_);}
	.st759{fill:url(#SVGID_646_);}
	.st760{fill:url(#SVGID_647_);}
	.st761{fill:url(#SVGID_648_);}
	.st762{fill:url(#SVGID_649_);}
	.st763{fill:url(#SVGID_650_);}
	.st764{fill:url(#SVGID_651_);}
	.st765{fill:url(#SVGID_652_);}
	.st766{fill:url(#SVGID_653_);}
	.st767{fill:url(#SVGID_654_);}
	.st768{fill:url(#SVGID_655_);}
	.st769{fill:url(#SVGID_656_);}
	.st770{fill:url(#SVGID_657_);}
	.st771{fill:url(#SVGID_658_);}
	.st772{fill:url(#SVGID_659_);}
	.st773{fill:url(#SVGID_660_);}
	.st774{fill:url(#SVGID_661_);}
	.st775{fill:url(#SVGID_662_);}
	.st776{fill:url(#SVGID_663_);}
	.st777{fill:url(#SVGID_664_);}
	.st778{fill:url(#SVGID_665_);}
	.st779{fill:url(#SVGID_666_);}
	.st780{fill:url(#SVGID_667_);}
	.st781{fill:url(#SVGID_668_);}
	.st782{fill:url(#SVGID_669_);}
	.st783{fill:url(#SVGID_670_);}
	.st784{fill:url(#SVGID_671_);}
	.st785{fill:url(#SVGID_672_);}
	.st786{fill:url(#SVGID_673_);}
	.st787{fill:url(#SVGID_674_);}
	.st788{fill:url(#SVGID_675_);}
	.st789{fill:url(#SVGID_676_);}
	.st790{fill:url(#SVGID_677_);}
	.st791{fill:url(#SVGID_678_);}
	.st792{fill:url(#SVGID_679_);}
	.st793{fill:url(#SVGID_680_);}
	.st794{fill:url(#SVGID_681_);}
	.st795{fill:url(#SVGID_682_);}
	.st796{fill:url(#SVGID_683_);}
	.st797{fill:url(#SVGID_684_);}
	.st798{fill:url(#SVGID_685_);}
	.st799{fill:url(#SVGID_686_);}
	.st800{fill:url(#SVGID_687_);}
	.st801{fill:url(#SVGID_688_);}
	.st802{fill:url(#SVGID_689_);}
	.st803{fill:url(#SVGID_690_);}
	.st804{fill:url(#SVGID_691_);}
	.st805{fill:url(#SVGID_692_);}
	.st806{fill:url(#SVGID_693_);}
	.st807{fill:url(#SVGID_694_);}
	.st808{fill:url(#SVGID_695_);}
	.st809{fill:url(#SVGID_696_);}
	.st810{fill:url(#SVGID_697_);}
	.st811{fill:url(#SVGID_698_);}
	.st812{fill:url(#SVGID_699_);}
	.st813{fill:url(#SVGID_700_);}
	.st814{fill:url(#SVGID_701_);}
	.st815{fill:url(#SVGID_702_);}
	.st816{fill:url(#SVGID_703_);}
	.st817{fill:url(#SVGID_704_);}
	.st818{fill:url(#SVGID_705_);}
	.st819{fill:url(#SVGID_706_);}
	.st820{fill:url(#SVGID_707_);}
	.st821{fill:url(#SVGID_708_);}
	.st822{fill:url(#SVGID_709_);}
	.st823{fill:url(#SVGID_710_);}
	.st824{fill:url(#SVGID_711_);}
	.st825{fill:url(#SVGID_712_);}
	.st826{fill:url(#SVGID_713_);}
	.st827{fill:url(#SVGID_714_);}
	.st828{fill:url(#SVGID_715_);}
	.st829{fill:url(#SVGID_716_);}
	.st830{fill:url(#SVGID_717_);}
	.st831{fill:url(#SVGID_718_);}
	.st832{fill:url(#SVGID_719_);}
	.st833{fill:url(#SVGID_720_);}
	.st834{fill:url(#SVGID_721_);}
	.st835{fill:url(#SVGID_722_);}
	.st836{fill:url(#SVGID_723_);}
	.st837{fill:url(#SVGID_724_);}
	.st838{fill:url(#SVGID_725_);}
	.st839{fill:url(#SVGID_726_);}
	.st840{fill:url(#SVGID_727_);}
	.st841{fill:url(#SVGID_728_);}
	.st842{fill:url(#SVGID_729_);}
	.st843{fill:url(#SVGID_730_);}
	.st844{fill:url(#SVGID_731_);}
	.st845{fill:url(#SVGID_732_);}
	.st846{fill:url(#SVGID_733_);}
	.st847{fill:url(#SVGID_734_);}
	.st848{fill:url(#SVGID_735_);}
	.st849{clip-path:url(#SVGID_555_);fill:#803500;}
	.st850{fill:url(#SVGID_736_);}
	.st851{fill:url(#SVGID_737_);}
	.st852{fill:url(#SVGID_738_);}
	.st853{fill:url(#SVGID_739_);}
	.st854{fill:url(#SVGID_740_);}
	.st855{fill:#2E3552;}
	.st856{fill:#162B4C;}
	.st857{fill:#233862;}
	.st858{fill:#9CC4FF;}
	.st859{fill:#CFE3FF;}
	.st860{fill:#ED7D2B;}
	.st861{fill:#F99746;}
	.st862{fill:#D66316;}
	.st863{fill:#C0D8FB;}
	.st864{fill:#DCEAFF;}
	.st865{fill:#FFA412;}
	.st866{fill:#FFB93E;}
	.st867{fill:#E2810E;}
	.st868{opacity:0.5;fill:#E2810E;}
	.st869{fill:#FFEDDC;}
	.st870{fill:#DB6A1D;}
	.st871{fill:#E5C1A1;}
	.st872{fill:#F9DDBF;}
	.st873{fill:#EDEDED;}
	.st874{fill:#3F87CA;}
	.st875{fill:#2661B3;}
	.st876{fill:none;stroke:#CCCCCC;stroke-width:4.3508;stroke-miterlimit:10;}
	.st877{fill:#E2E2E2;}
	.st878{fill:#EF9800;}
	.st879{fill:#F0B651;}
	.st880{fill:#E5E5E5;}
	.st881{fill:#5B8EB1;}
	.st882{fill:#E96305;}
	.st883{fill:#726865;}
	.st884{fill:none;stroke:#A8A4A4;stroke-width:7.8116;stroke-miterlimit:10;}
	.st885{fill:none;stroke:#E69074;stroke-width:7.8116;stroke-miterlimit:10;}
	.st886{fill:none;stroke:#F0EEE0;stroke-width:7.8116;stroke-miterlimit:10;}
	.st887{opacity:0.2;fill:#399DE3;}
	.st888{opacity:0.5;fill:#D5EAF8;}
	.st889{fill:#FD9830;}
	.st890{fill:#FBCD34;}
	.st891{fill:#B4DBF4;}
	.st892{fill:#175277;}
	.st893{fill:#B7D9ED;}
	.st894{fill:#F5B643;}
	.st895{fill:#FDC061;}
	.st896{fill:#023851;}
	.st897{fill:#D49229;}
	.st898{fill:none;stroke:#1A2E35;stroke-width:0.546;stroke-miterlimit:10;}
	.st899{fill:#007CFF;}
	.st900{opacity:0.2;enable-background:new    ;}
	.st901{fill:#225C87;}
	.st902{opacity:0.29;fill:#69B2EC;}
	.st903{fill:#A3E3FF;}
	.st904{fill:#B6E9FF;}
	.st905{fill:#C9C7C7;}
	.st906{fill:#007A80;}
	.st907{fill:#65B7BF;}
	.st908{fill:#4A8990;}
	.st909{fill:#655553;}
	.st910{fill:#DECBCA;}
	.st911{fill:#A4A1A1;}
	.st912{fill:#767575;}
	.st913{fill:#EDECEC;}
	.st914{fill:#95969D;}
	.st915{fill:#767277;}
	.st916{fill:#525050;}
	.st917{fill:#856660;}
	.st918{fill:#A2786C;}
	.st919{fill:#6B4600;}
	.st920{fill:#A05248;}
	.st921{fill:#B5766E;}
	.st922{fill:#C8A9A6;}
	.st923{fill:#85B01C;}
	.st924{fill:#659C00;}
	.st925{fill:#D8DF3A;}
	.st926{fill:#00A251;}
	.st927{fill:#007548;}
	.st928{fill:#81C25F;}
	.st929{fill:#609247;}
	.st930{fill:#009966;}
	.st931{fill:#00B449;}
	.st932{fill:#008735;}
	.st933{fill:#BAD562;}
	.st934{fill:#589300;}
	.st935{fill:#82888A;}
	.st936{fill:#AAACB1;}
	.st937{fill:#D4EEF7;}
	.st938{fill:#FBFFAE;}
	.st939{fill:#FFF459;}
	.st940{fill:#DF9E49;}
	.st941{fill:#BE6E30;}
	.st942{fill:#FFB278;}
	.st943{fill:#82B378;}
	.st944{fill:#A8D29F;}
	.st945{fill:#F1A34F;}
	.st946{fill:#FFB973;}
	.st947{fill:#D86713;}
	.st948{fill:#D1A586;}
	.st949{fill:#E5BD9E;}
	.st950{fill:#DFB697;}
	.st951{fill:#A0795F;}
	.st952{fill:#6BB7BF;}
	.st953{fill:#8AD8DB;}
	.st954{fill:#ED9F4A;}
	.st955{fill:#FFB27D;}
	.st956{fill:#C45446;}
	.st957{fill:#E37970;}
	.st958{fill:#1C468A;}
	.st959{fill:#C65447;}
	.st960{fill:#163560;}
	.st961{fill:#F4A269;}
	.st962{fill:#599DAD;}
	.st963{fill:#E2915A;}
	.st964{fill:#2B478B;}
	.st965{fill:#E9F3FE;}
	.st966{fill:#22407A;}
	.st967{fill:#D9E9F9;}
	.st968{fill:#BA4C43;}
	.st969{fill:#AA413E;}
	.st970{fill:#B5453C;}
	.st971{fill:#ED975D;}
	.st972{fill:#699DEE;}
	.st973{fill:#4A75CB;}
	.st974{fill:#E7F1FD;}
	.st975{fill:#C69D7F;}
	.st976{fill:#E0B594;}
	.st977{fill:#63D5CD;}
	.st978{fill:#80E5DB;}
	.st979{fill:none;stroke:#80E5DB;stroke-width:0.7545;stroke-miterlimit:10;}
	.st980{fill:#56D4EB;}
	.st981{opacity:0.4;}
	.st982{fill:#74C6BA;}
	.st983{fill:#FF9A90;}
	.st984{opacity:0.3;fill:#FF9A90;}
	.st985{fill:#5353CD;}
	.st986{opacity:0.4;fill:#74C6BA;}
	.st987{opacity:0.3;fill:#56D4EB;}
	.st988{fill:#F56A7F;}
	.st989{fill:#F8A492;}
	.st990{fill:#FFB84A;}
	.st991{fill:#F7A491;}
	.st992{fill:#EF5976;}
	.st993{fill:none;stroke:#FFFFFF;stroke-width:0.2819;stroke-miterlimit:10;}
	.st994{fill:#414193;}
	.st995{fill:#2F2C83;}
	.st996{opacity:0.3;fill:#F7A491;}
	.st997{opacity:0.3;fill:#F56A7F;}
	.st998{fill:none;stroke:#F56A7F;stroke-width:0.9494;stroke-miterlimit:10;}
	.st999{fill:none;stroke:#FFFFFF;stroke-width:0.9494;stroke-miterlimit:10;}
	.st1000{fill:none;stroke:#E5EEF7;stroke-width:0.2819;stroke-miterlimit:10;}
	.st1001{opacity:0.3;fill:#F8A492;}
	.st1002{fill:#FFA631;}
	.st1003{opacity:0.8;}
	.st1004{opacity:0.3;}
	.st1005{fill:#E7B2B6;}
	.st1006{fill:#D0D6EC;}
	.st1007{fill:#DFE5F4;}
	.st1008{fill:#221E50;}
	.st1009{fill:#B9C0D6;}
	.st1010{fill:#B7451D;}
	.st1011{fill:#C5592D;}
	.st1012{fill:#D98789;}
	.st1013{fill:#555CA5;}
	.st1014{fill:#333383;}
	.st1015{fill:#E09139;}
	.st1016{fill:#D5652C;}
	.st1017{fill:#2B295E;}
	.st1018{fill:#D35C2B;}
	.st1019{fill:#F2D370;}
	.st1020{opacity:0.2;fill:#DE8F39;}
	.st1021{fill:#B65224;}
	.st1022{fill:#91562D;}
	.st1023{fill:#A05F32;}
</style>
<g>
	<g>
		<path class="st861" d="M54.9,0.1v15.8c0,0.6-0.2,1.2-0.4,1.2h-0.1c-0.2,0-0.4-0.5-0.4-1.2V0.1C54.4-0.1,54.6,0.2,54.9,0.1z"/>
		<path class="st861" d="M54.3,15c-2.8,0-5.1,2.4-5.1,5.3h10.1C59.4,17.4,57.1,15,54.3,15z"/>
		<path class="st942" d="M54.7,15c-0.1,0-0.3,0-0.4,0c-1.8,0-3.3,2.4-3.3,5.3h0.9C51.9,17.6,53.1,15.4,54.7,15z"/>
	</g>
	<g>
		<path class="st861" d="M84.5,0.1v14.6c0,0.1,0,0.3,0,0.4c0,1.1-0.2,2-0.4,2h-0.1c-0.2,0-0.3-0.7-0.3-1.8c0-0.1,0-0.2,0-0.3
			c0,0,0,0,0,0c0-0.1,0-0.2,0-0.3V0.1C84,0.1,84.3,0,84.5,0.1z"/>
		<path class="st861" d="M83.9,15c-2.8,0-5.1,2.4-5.1,5.3H89C89,17.4,86.7,15,83.9,15z"/>
		<path class="st942" d="M84.3,15c-0.1,0-0.3,0-0.4,0c-1.8,0-3.3,2.4-3.3,5.3h0.9C81.5,17.6,82.7,15.4,84.3,15z"/>
	</g>
	<g>
		<g>
			<path class="st943" d="M116.1,61.6c0,0-1.3-1.5-0.1-2.4c0,0,0.9-0.5,1.6-0.5c0,0-1,1.7-0.7,1.9c0.3,0.2,1-2,1-2s2-0.2,2.6,0.1
				c0,0-1.7,1.4-1.3,1.5c0.4,0.1,2.2-1.3,2.2-1.3s1.8,0.3,1.8,1.4c-0.1,1.1-0.7,1.5-1,1.4c-0.3,0-1.9-0.7-2-0.4c0,0.2,1,1,1.6,1
				c0,0-1.3,1.4-2.2,1c-0.9-0.4-0.9-1.1-1.5-1.3c-0.5-0.2-1-0.2-0.8,0c0.2,0.3,1.2,0.5,1.5,1c0.3,0.5,0.6,0.9-0.3,0.8
				c-0.9-0.1-2.4-0.8-2.4-1.5C116.1,61.6,116.1,61.6,116.1,61.6z"/>
			<g>
				<path class="st943" d="M122.3,60.3c0,0-5-0.2-6.1,1.2c0,0-0.2,0.7-1,1.4l-0.1,0.3c0,0,0.9-0.9,1.2-1
					C116.2,62.3,115.7,60.5,122.3,60.3z"/>
				<path class="st943" d="M115.1,63c0,0-1.1,0.8-1.2,2.2l0.2,0c0,0,0.3-1.5,1-2C115.8,62.6,115.1,63,115.1,63z"/>
			</g>
		</g>
		<g>
			<path class="st944" d="M111.7,59.7c0,0,2-1.1,1.1-2.7c0,0-0.8-0.9-1.6-1.2c0,0,0.4,2.3,0,2.4c-0.4,0.1-0.3-2.6-0.3-2.6
				s-2.1-1-3-0.9c0,0,1.3,2.2,0.9,2.2c-0.4-0.1-1.9-2.3-1.9-2.3s-2.2-0.4-2.5,0.9c-0.4,1.3,0.2,1.9,0.5,2c0.3,0.1,2.4,0.1,2.4,0.3
				c-0.1,0.3-1.5,0.7-2.2,0.5c0,0,0.9,2.1,2,2c1.1-0.1,1.5-0.8,2.2-0.9c0.7-0.1,1.2,0.1,0.9,0.3c-0.4,0.2-1.5,0.1-2.1,0.5
				c-0.6,0.5-1,0.8,0,1c1.1,0.2,2.9,0.1,3.3-0.7C111.7,59.7,111.7,59.7,111.7,59.7z"/>
			<g>
				<path class="st943" d="M105.4,55.8c0,0,5.7,1.8,6.3,3.9c0,0,0,0.9,0.5,2v0.4c0,0-0.6-1.4-0.9-1.6
					C111.3,60.5,112.6,58.7,105.4,55.8z"/>
				<path class="st943" d="M112.2,61.7c0,0,0.9,1.3,0.4,2.9l-0.2-0.1c0,0,0.2-1.8-0.2-2.7C111.7,61,112.2,61.7,112.2,61.7z"/>
			</g>
		</g>
		<g>
			<path class="st944" d="M114.9,58.1c0,0-2.7-1.5-1.4-3.5c0,0,1-1.2,2.1-1.6c0,0-0.6,3,0,3.1c0.6,0.1,0.4-3.4,0.4-3.4
				s2.8-1.4,3.9-1.2c0,0-1.7,3-1.2,2.9c0.6-0.1,2.5-3.1,2.5-3.1s2.9-0.5,3.3,1.2c0.5,1.7-0.3,2.6-0.7,2.7c-0.4,0.1-3.2,0.1-3.1,0.4
				c0.1,0.4,1.9,0.9,3,0.6c0,0-1.1,2.8-2.6,2.7c-1.5-0.1-2-1.1-2.9-1.1c-0.9-0.1-1.6,0.2-1.1,0.4s2,0.1,2.8,0.7c0.7,0.6,1.4,1,0,1.3
				c-1.4,0.3-3.9,0.1-4.4-1C114.9,58.1,114.9,58.1,114.9,58.1z"/>
			<g>
				<path class="st943" d="M123.3,53c0,0-7.5,2.4-8.3,5.1c0,0,0,1.2-0.7,2.6v0.5c0,0,0.8-1.8,1.2-2.1
					C115.4,59.2,113.7,56.9,123.3,53z"/>
				<path class="st943" d="M114.2,60.7c0,0-1.2,1.8-0.5,3.9l0.3-0.1c0,0-0.3-2.3,0.3-3.5C114.9,59.8,114.2,60.7,114.2,60.7z"/>
			</g>
		</g>
		<path class="st945" d="M114.8,69.2c2.9,0,5.2-2.3,5.2-5.2h-10.5C109.6,66.9,111.9,69.2,114.8,69.2z"/>
		<path class="st946" d="M116.1,69.2c-0.2,0-0.4,0-0.7,0c-2.9,0-5.2-2.3-5.2-5.2h1.3C111.5,66.7,113.5,68.9,116.1,69.2z"/>
		<path class="st945" d="M120.1,69.5h-10.6l0,0c0-0.4,0.3-0.6,0.6-0.6h9.3C119.8,68.9,120.1,69.1,120.1,69.5L120.1,69.5z"/>
		<rect x="109.4" y="64" class="st947" width="10.8" height="0.2"/>
	</g>
	<g>
		<path class="st948" d="M92.8,53.1c0.1-2.3,0.3-4.3,0.5-5.7c0.4-2.2,0.7-3.5,0.7-3.5c0.1-0.2,0.8-1,2.4-1c1.7,0,1.5,1.1,1.5,1.1
			l0,0c0,0,0,0.1,0,0.1c0,0.1-1.5,5.5-1.5,12.5c0,0.1,0,0.3,0,0.4c0,0-3.8,0.1-3.8,0C92.6,56.3,92.7,54.6,92.8,53.1z"/>
		<path class="st949" d="M92.3,56.5c0,0.1,0.1,0.2,0.1,0.2h0c0.1,0,0.1-0.1,0.1-0.2h3.3c0,0.1,0.1,0.2,0.1,0.2h0
			c0.1,0,0.1-0.1,0.1-0.2c0-2,0.1-3.9,0.3-5.5c0.4-4.1,1.2-6.9,1.3-6.9c0,0,0-0.1,0-0.1c0,0,0.2-1-1.5-1.1c-1.7,0-2.4,0.8-2.4,1
			c0,0-0.2,0.7-0.5,2c-0.1,0.4-0.2,0.9-0.3,1.5c-0.2,1.4-0.5,3.4-0.5,5.7C92.3,54.6,92.2,55.9,92.3,56.5z"/>
		<path class="st950" d="M92.3,56.5c0,0.1,0.1,0.2,0.1,0.2h0c0.1,0,0.1-0.1,0.1-0.2h3.3c0,0.1,0.1,0.2,0.1,0.2h0
			c0.1,0,0.1-0.1,0.1-0.2c0-2,0.1-3.9,0.3-5.5c-0.5-2.6-2.6-4.6-3.1-5.1c-0.1,0.4-0.2,0.9-0.3,1.5c-0.2,1.4-0.5,3.4-0.5,5.7
			C92.3,54.6,92.2,55.9,92.3,56.5z"/>
		<g>
			<path class="st948" d="M95.7,56.5L95.7,56.5C95.6,56.5,95.6,56.5,95.7,56.5L95.7,56.5C95.6,56.4,95.6,56.4,95.7,56.5
				c-0.1-0.2-0.5-0.2-1-0.2c-0.5,0-1.2,0-1.9-0.1c-0.4-0.1-0.1-2.7,0.1-5.2c0-0.4,0.1-0.8,0.1-1c0.2-2.1,1.1-5.9,1.1-5.9
				c0-0.2,0.6-0.8,1.8-0.7c0.5,0,0.8,0.1,1,0.3c0.2,0.2,0.2,0.5,0.2,0.5c0,0,0,0,0,0.1c0,0-0.9,4.9-1,6.1
				C95.8,52.2,95.7,56.2,95.7,56.5C95.7,56.5,95.7,56.5,95.7,56.5L95.7,56.5L95.7,56.5z M94.9,56.3c0.4,0,0.6,0,0.7,0.1l0,0
				c0-0.1,0-0.3,0-0.6c0-0.4,0-1,0.1-1.7c0-1.2,0.1-2.8,0.3-3.8c0.1-1.2,1-6.1,1-6.1c0,0,0,0,0-0.1c0,0,0-0.2-0.1-0.4
				c-0.2-0.2-0.5-0.3-1-0.3c-1.2,0-1.8,0.5-1.8,0.7c0,0-1,3.8-1.1,5.9c0,0.2,0,0.5-0.1,1c-0.2,1.7-0.5,5.1-0.2,5.2
				c0.7,0.1,1.4,0.1,1.9,0.1C94.7,56.3,94.8,56.3,94.9,56.3z"/>
		</g>
		<path class="st949" d="M96.3,56.7H83.5c0,0,0.3-1.2,7.8-1C96.5,55.8,96.3,56.7,96.3,56.7z"/>
		<g>
			<path class="st948" d="M97.4,69.2c-1.5-7.5-1.1-12-1.1-12.1c0-0.1-0.2-0.2-0.3-0.2c-0.1,0-0.6,0-0.7,0.1
				c-0.1,0.1-0.4,5.8,1.8,12.2H97.4z"/>
		</g>
		<g>
			<path class="st948" d="M85.4,69.2c1.5-7.5,1.1-12,1.1-12.1c0-0.1,0.2-0.2,0.3-0.2c0.1,0,0.6,0,0.7,0.1c0.1,0.1,0.4,5.8-1.8,12.2
				H85.4z"/>
		</g>
		<g>
			<path class="st951" d="M83,69.2c1.5-7.5,1.1-12,1.1-12.1c0-0.1,0.2-0.2,0.3-0.2c0.1,0,0.6,0,0.7,0.1c0.1,0.1,0.4,5.8-1.8,12.2H83
				z"/>
		</g>
		<g>
			<path class="st951" d="M95,69.2c-1.5-7.5-1.1-12-1.1-12.1c0-0.1-0.2-0.2-0.3-0.2c-0.1,0-0.6,0-0.7,0.1c-0.1,0.1-0.4,5.8,1.8,12.2
				H95z"/>
		</g>
		<path class="st948" d="M83.5,57.1h12.9c0.1,0,0.3-0.1,0.3-0.3v-0.2c0-0.1-0.1-0.3-0.3-0.3H83.5c-0.1,0-0.3,0.1-0.3,0.3v0.2
			C83.2,57,83.3,57.1,83.5,57.1z"/>
	</g>
	<g>
		<path class="st948" d="M44.1,52.9c0.1-2.3,0.3-4.4,0.5-5.8c0.4-2.3,0.7-3.6,0.7-3.6c0.1-0.2,0.8-1,2.4-1c1.7,0,1.5,1.1,1.5,1.1
			l0,0c0,0,0,0.1,0,0.1c0,0.1-1.5,5.6-1.5,12.7c0,0.1,0,0.3,0,0.4c0,0-3.8,0.1-3.8,0C43.9,56.2,44,54.4,44.1,52.9z"/>
		<path class="st949" d="M43.6,56.3c0,0.1,0.1,0.2,0.1,0.2h0c0.1,0,0.1-0.1,0.1-0.2h3.3c0,0.1,0.1,0.2,0.1,0.2h0
			c0.1,0,0.1-0.1,0.1-0.2c0-2,0.1-3.9,0.3-5.6c0.4-4.2,1.2-7,1.3-7c0,0,0-0.1,0-0.1c0,0,0.2-1.1-1.5-1.1c-1.7,0-2.4,0.8-2.4,1
			c0,0-0.2,0.7-0.5,2.1c-0.1,0.4-0.2,0.9-0.3,1.5c-0.2,1.4-0.5,3.5-0.5,5.8C43.5,54.4,43.5,55.7,43.6,56.3z"/>
		<path class="st950" d="M43.6,56.3c0,0.1,0.1,0.2,0.1,0.2h0c0.1,0,0.1-0.1,0.1-0.2h3.3c0,0.1,0.1,0.2,0.1,0.2h0
			c0.1,0,0.1-0.1,0.1-0.2c0-2,0.1-3.9,0.3-5.6c-0.5-2.7-2.6-4.7-3.1-5.1c-0.1,0.4-0.2,0.9-0.3,1.5c-0.2,1.4-0.5,3.5-0.5,5.8
			C43.5,54.4,43.5,55.7,43.6,56.3z"/>
		<g>
			<path class="st948" d="M46.9,56.3L46.9,56.3C46.9,56.3,46.9,56.3,46.9,56.3L46.9,56.3C46.9,56.3,46.9,56.2,46.9,56.3
				c-0.1-0.2-0.5-0.2-1-0.2c-0.5,0-1.2,0-1.9-0.1c-0.4-0.1-0.1-2.8,0.1-5.3c0-0.4,0.1-0.8,0.1-1c0.2-2.1,1.1-6,1.1-6
				c0-0.2,0.6-0.8,1.8-0.7c0.5,0,0.8,0.1,1,0.3c0.2,0.2,0.2,0.5,0.2,0.5c0,0,0,0.1,0,0.1c0,0-0.9,5-1,6.2C47,52,46.9,56.1,46.9,56.3
				L46.9,56.3L46.9,56.3L46.9,56.3z M46.2,56.1c0.4,0,0.6,0,0.7,0.1l0,0c0-0.1,0-0.3,0-0.6c0-0.4,0-1,0.1-1.7c0-1.2,0.1-2.8,0.3-3.9
				c0.1-1.2,1-6.2,1-6.2c0,0,0,0,0-0.1c0,0,0-0.2-0.1-0.5c-0.2-0.2-0.5-0.3-0.9-0.3c0,0,0,0-0.1,0c-1.2,0-1.7,0.6-1.7,0.7
				c0,0-1,3.9-1.1,6l0,0l0,0c0,0.2,0,0.5-0.1,1C44,52.4,43.6,55.9,44,56c0.7,0.1,1.4,0.1,1.9,0.1C46,56.1,46.1,56.1,46.2,56.1z"/>
		</g>
		<path class="st949" d="M47.6,56.5H34.7c0,0,0.3-1.2,7.8-1C47.8,55.6,47.6,56.5,47.6,56.5z"/>
		<g>
			<path class="st948" d="M48.7,69.2c-1.5-7.6-1.1-12.2-1.1-12.3c0-0.1-0.2-0.2-0.3-0.2c-0.1,0-0.6,0-0.7,0.1
				c-0.1,0.1-0.4,5.8,1.8,12.4H48.7z"/>
		</g>
		<g>
			<path class="st948" d="M36.6,69.2c1.5-7.6,1.1-12.2,1.1-12.3c0-0.1,0.2-0.2,0.3-0.2c0.1,0,0.6,0,0.7,0.1
				c0.1,0.1,0.4,5.8-1.8,12.4H36.6z"/>
		</g>
		<g>
			<path class="st951" d="M34.2,69.2c1.5-7.6,1.1-12.2,1.1-12.3c0-0.1,0.2-0.2,0.3-0.2c0.1,0,0.6,0,0.7,0.1
				c0.1,0.1,0.4,5.8-1.8,12.4H34.2z"/>
		</g>
		<g>
			<path class="st951" d="M46.3,69.2c-1.5-7.6-1.1-12.2-1.1-12.3c0-0.1-0.2-0.2-0.3-0.2c-0.1,0-0.6,0-0.7,0.1
				c-0.1,0.1-0.4,5.8,1.8,12.4H46.3z"/>
		</g>
		<path class="st948" d="M34.7,56.9h12.9c0.1,0,0.3-0.1,0.3-0.3v-0.2c0-0.1-0.1-0.3-0.3-0.3H34.7c-0.1,0-0.3,0.1-0.3,0.3v0.2
			C34.5,56.8,34.6,56.9,34.7,56.9z"/>
	</g>
	<g>
		<g>
			<path class="st952" d="M52.5,46.8c0,0,1.1,0.4,1.8-0.7C54.3,46.1,53.1,45.9,52.5,46.8z"/>
			<path class="st952" d="M52.4,46.3c0,0-0.1-0.4-0.5-0.4C51.9,45.9,52.1,46.3,52.4,46.3z"/>
			<path class="st952" d="M52.6,44.1c0,0,0.5,0.1,0.7-0.5C53.4,43.6,52.8,43.6,52.6,44.1z"/>
			<g>
				<path class="st952" d="M53.9,36.6c-1-0.2-1.1-1.1-1.1-1.1C54,35.9,53.9,36.6,53.9,36.6z"/>
				<path class="st952" d="M53.9,36.4c0,0,0.6,0.3,1.1-0.4C55.1,36,54.3,35.9,53.9,36.4z"/>
				<g>
					<path class="st952" d="M52.5,49.2l-0.1,0.2c0,0-0.1,0-0.1,0c0-4.4,0.6-8.3,1-10.6c0.5-2.5,1-4,1-4l0,0c0,0-0.5,1.5-1,4
						C52.9,41.1,52.4,44.1,52.5,49.2C52.5,49.2,52.5,49.2,52.5,49.2z"/>
				</g>
				<path class="st861" d="M54.4,34.2c-0.2,0.1-0.8,0.7-0.2,1.1c0,0,0.5,0.1,0.6-0.2c0.1-0.3,0.2-0.6,0.2-0.7c0,0,0-0.1-0.1-0.1
					c0,0-0.1,0-0.1,0c-0.1,0-0.1-0.1-0.2-0.1C54.6,34.2,54.5,34.2,54.4,34.2C54.4,34.2,54.4,34.2,54.4,34.2z"/>
				<path class="st952" d="M54,35.2c0,0,0.2,0.2,0.1,0.4l0,0.1c0,0,0.1-0.2,0.3-0.3C54.4,35.4,54.2,35.4,54,35.2z"/>
				<path class="st953" d="M53.9,36.6c-1-0.2-1.1-1.1-1.1-1.1S53.6,36,53.9,36.6z"/>
			</g>
			<g>
				<path class="st952" d="M52.9,36c0,0-0.7,0.3-1.1-0.4C51.8,35.6,52.5,35.5,52.9,36z"/>
				<g>
					<path class="st952" d="M54,48.9l0.1,0.2c0,0,0.1,0,0.1,0c0.1-4.4-0.4-8.3-0.8-10.6c-0.5-2.5-0.9-4-1-4l0,0c0,0,0.4,1.5,0.9,4
						C53.8,40.8,54.3,43.8,54,48.9C54,48.8,54,48.9,54,48.9z"/>
				</g>
				<path class="st861" d="M52.5,33.8c0.2,0.1,0.8,0.7,0.2,1.1c0,0-0.5,0.1-0.6-0.2c-0.1-0.3-0.1-0.6-0.1-0.7c0,0,0-0.1,0.1-0.1
					c0,0,0.1,0,0.1,0c0.1,0,0.1-0.1,0.2-0.1C52.3,33.8,52.3,33.8,52.5,33.8C52.4,33.8,52.5,33.8,52.5,33.8z"/>
				<path class="st952" d="M52.8,34.8c0,0-0.2,0.1-0.1,0.4l0,0.1c0,0,0-0.2-0.3-0.3C52.4,35,52.6,35,52.8,34.8z"/>
			</g>
			<g>
				<path class="st952" d="M53.1,35.3c0,0,0.7,0.1,1-0.6C54.1,34.6,53.4,34.7,53.1,35.3z"/>
				<g>
					<path class="st952" d="M54.6,48.1l-0.1,0.2c0,0-0.1,0-0.1,0c-0.9-4.3-1.3-8.2-1.3-10.5c0-2.6,0.1-4.1,0.1-4.1l0,0
						c0,0-0.1,1.6-0.1,4.1C53.2,40.1,53.3,43.1,54.6,48.1C54.6,48.1,54.6,48.1,54.6,48.1z"/>
				</g>
				<path class="st861" d="M53.1,33c-0.1,0.2-0.6,0.9,0.1,1.2c0,0,0.5,0,0.6-0.3c0.1-0.3,0-0.6,0-0.7c0,0,0-0.1-0.1-0.1
					c0,0-0.1,0-0.1,0c-0.1,0-0.1-0.1-0.2-0.1C53.3,32.9,53.2,32.9,53.1,33C53.1,33,53.1,33,53.1,33z"/>
				<path class="st952" d="M53,34c0,0,0.2,0.1,0.2,0.4l0,0.1c0,0,0-0.2,0.2-0.3C53.4,34.1,53.2,34.2,53,34z"/>
			</g>
			<path class="st952" d="M53.7,34.5c0,0,0-0.5,0.5-0.7C54.2,33.8,54.3,34.2,53.7,34.5z"/>
			<path class="st954" d="M52.6,33.6c0,0,0-0.4-0.4-0.5C52.2,33.1,52.1,33.5,52.6,33.6z"/>
			<path class="st954" d="M53.9,36.1c0,0,0.2-0.4-0.2-0.7C53.7,35.4,53.5,35.8,53.9,36.1z"/>
			<path class="st952" d="M54.1,36.1c0,0,0-0.2,0.2-0.2C54.3,35.8,54.4,36,54.1,36.1z"/>
			<path class="st952" d="M52.2,35.4c0,0-0.2-0.3-0.7-0.3C51.5,35.1,51.5,35.5,52.2,35.4z"/>
		</g>
		<path class="st861" d="M55.1,49.8h-3.4c-0.2,0-0.4-0.2-0.4-0.4l1.6-11c0-0.1,0.1-0.2,0.2-0.2h0.5c0.1,0,0.2,0.1,0.2,0.2l1.6,11
			C55.5,49.6,55.4,49.8,55.1,49.8z"/>
		<g>
			<path class="st942" d="M52.5,49.4l0.8-11.3c-0.1,0-0.2,0.1-0.2,0.2l-1.6,11c0,0.2,0.1,0.4,0.4,0.4h0.7
				C52.5,49.7,52.4,49.6,52.5,49.4z"/>
		</g>
	</g>
	<g>
		<path class="st955" d="M86.1,48.6c0,0-2.4,2.7-2.8,2.6c-0.5,0-0.8-0.2-1.2,0c-0.3,0.1-1.3,0.9-1,0.9c0.3-0.1,0.7-0.1,0.9-0.1
			c0.2,0,0.4,0,0.6-0.1c0.1,0,0.5,0,0.7,0c0.6,0,3.6-1.7,3.6-1.7L86.1,48.6z"/>
		<g>
			<path class="st956" d="M82.2,45.7c-0.1-0.1-0.3,0-0.4,0v-0.2c0,0,0-0.1,0-0.1h-2c0,0,0,0.1,0,0.1v0.4c0,0.5,0.4,1,1,1
				c0.3,0,0.6-0.1,0.7-0.3l0,0c0,0,0.5-0.1,0.6-0.3C82.4,46.1,82.4,45.8,82.2,45.7z M82.1,46c0,0.1-0.3,0.2-0.4,0.2
				c0-0.1,0.1-0.2,0.1-0.3c0.1-0.1,0.2-0.1,0.3-0.1C82.2,45.8,82.2,45.9,82.1,46z"/>
			<path class="st957" d="M80,45.5v0.4c0,0.5,0.4,1,1,1c0,0,0.1,0,0.1,0c-0.5-0.1-0.9-0.5-0.9-1v-0.4c0,0,0-0.1,0-0.1H80
				C80,45.4,80,45.4,80,45.5z"/>
			<rect x="80.4" y="46.8" class="st956" width="0.8" height="0.1"/>
		</g>
		<path class="st958" d="M87.7,34.9c0,0,0.1-1.4,2-1c0.5,0.1,0.9-0.8,1.7-0.5c1.8,0.7,1.9-0.2,2.4,1.1c0.2,0.5,1.6,1.2,1.2,2.1
			c-0.4,0.9,0.3,1.6-0.2,2.3c-0.3,0.4-0.2,1.1-1.4,1.1c-0.6,0-1.6,1.1-2.2,1.3c-0.7,0.2-2.7-0.1-2.7-1c0.1-0.7-0.8-0.7-1.3-1.5
			c-0.5-0.7,0.4-0.9-0.1-2.1C86.9,35.8,87.8,35.6,87.7,34.9z"/>
		<g>
			<path class="st955" d="M77.1,68.1c0,0.5-0.6,0.6-1.3,0.6c-0.7,0-0.5,0.2-1.5,0.4c-1,0.2-1.4-0.1-1.5-0.2
				c-0.1-0.1,0.4-0.3,0.9-0.5c0.1,0,0.1-0.1,0.2-0.1c0.6-0.2,0.9-0.7,1.3-1.2c0.4-0.4,0.8-1.8,0.8-1.8l1.4-0.3c0,0-0.4,1.3-0.5,1.8
				c-0.1,0.3,0,0.7,0.1,0.9C77,67.8,77.1,68,77.1,68.1z"/>
			<path class="st959" d="M75.8,68.7c-0.7,0-0.5,0.2-1.5,0.4c-1,0.2-1.4-0.1-1.5-0.2c-0.1-0.1,0.4-0.3,0.9-0.5l0,0
				c0,0,0.7,0.2,1.5,0c0.7-0.2,1.3-0.6,1.8-0.7c0.1,0.1,0.1,0.3,0.1,0.5C77.1,68.6,76.5,68.7,75.8,68.7z"/>
		</g>
		<path class="st960" d="M89.1,51c0,0-7.5,0.3-9.2,1.4C78.2,53.5,75.4,66,75.4,66s0.2,0.1,0.5,0.2c0.3,0,1.1-0.2,1.1-0.2
			s3.9-5.6,4.2-7c0.3-1.4,0.2-2.7,0.8-2.7c0.6,0,8.4,1,9.6-1.1C92.9,53.1,89.1,51,89.1,51z"/>
		<g>
			<path class="st955" d="M80.2,68.2c0,0.5-0.6,0.6-1.3,0.6c-0.7,0-0.5,0.2-1.5,0.4c-1,0.2-1.4-0.1-1.5-0.2
				c-0.1-0.1,0.4-0.3,0.9-0.5c0.1,0,0.1-0.1,0.2-0.1c0.6-0.2,0.9-0.7,1.3-1.2c0.4-0.4,0.8-1.8,0.8-1.8l1.4-0.3c0,0-0.4,1.3-0.5,1.8
				c-0.1,0.3,0,0.7,0.1,0.9C80.1,67.9,80.2,68,80.2,68.2z"/>
			<path class="st959" d="M78.9,68.8c-0.7,0-0.5,0.2-1.5,0.4c-1,0.2-1.4-0.1-1.5-0.2c-0.1-0.1,0.4-0.3,0.9-0.5l0,0
				c0,0,0.7,0.2,1.5,0c0.7-0.2,1.3-0.6,1.8-0.7c0.1,0.1,0.1,0.3,0.1,0.5C80.2,68.6,79.6,68.7,78.9,68.8z"/>
		</g>
		<path class="st958" d="M92,51.2c0,0-8,0.4-9.7,1.5c-1.7,1.1-3.9,13.7-3.9,13.7s0.2,0.1,0.5,0.2c0.4,0,1.1-0.2,1.1-0.2
			s3.7-5.7,3.9-7.1c0.2-1.4,0.1-2.7,0.7-2.7c0.6-0.1,8.5,0.6,9.6-1.5C95.4,52.9,92,51.2,92,51.2z"/>
		<path class="st955" d="M94.4,41C94.4,41,94.4,41,94.4,41c-0.1-0.1-0.1-0.1-0.2-0.2l0,0c0,0,0,0,0,0c-0.7-0.5-1.8-0.6-1.8-0.6v0v0
			l0,0c0,0-0.1,0-0.3,0c-0.2-0.4-0.3-1-0.4-1.8l-0.1,0l-1.9,0.5c0,0,0.1,0.6,0.1,1.2c0,0.1,0,0.3,0,0.4c-0.1,0-1.3,0.2-1.5,0.5
			c-0.3,0.3-0.8,2.2-0.9,2.5l7.5,0.1C94.7,43.6,94.9,41.6,94.4,41z"/>
		<path class="st952" d="M94.7,54.4c-0.9,0.1-3.9-1.7-4.9-2.3c0,0,0,0-0.1,0c-0.4-0.2-1-0.4-1.6-0.5c-0.7-0.1-1.4-0.2-1.6-0.4
			c-0.3-0.3,0.5-0.6,1.1-1c0.3-0.2,0.6-0.4,0.6-0.5c0.1-0.1,0.1-0.4,0-0.8v0c0-0.1,0-0.1,0-0.2c0,0.1-0.1,0.2-0.2,0.3
			c-0.2,0.3-0.4,0.5-0.6,0.7c-0.3,0.3-0.6,0.5-0.7,0.5c-0.1,0-0.2,0-0.4,0c-0.3-0.1-0.6-0.5-0.9-0.8c-0.1-0.1-0.1-0.2-0.2-0.2
			c-0.2-0.2-0.3-0.5-0.3-0.5c-0.1-0.1,0.5-0.4,0.8-0.7c0.3-0.2,1.3-4.5,1.3-4.5c0.1-0.3,0.7-2.2,0.9-2.5c0,0,1,1.3,2.4,1.2
			c1.3-0.1,3.6-1.3,3.6-1.4c0.1,0.1,0.2,0.2,0.2,0.2c0.5,0.6,0.4,2.6,0.4,2.6s-1,4.6-1,5c0,0.8,0.7,2.8,1,4.2
			C95,53.7,95,54.4,94.7,54.4z"/>
		<path class="st961" d="M89.6,38.9c0,0,0.1,0.6,0.1,1.2c1.1-0.1,1.6-1.2,1.8-1.7L89.6,38.9z"/>
		<path class="st955" d="M89.2,39.5c0,0,2.6-0.1,2.5-1.8c-0.1-1.6,0.2-2.7-1.5-2.7c-1.7,0-2,0.7-2.1,1.2
			C88.1,36.8,88.5,39.5,89.2,39.5z"/>
		<path class="st958" d="M89.1,35.6c0,0,0.6-0.1,0.8,0.2c0.2,0.3,0.1,0.5,0.5,0.6c0.5,0.1,0.6,0.1,0.6,0.4c0,0.3,0.5,0.6,0.5,0.8
			c0,0.3,0.2,0.4,0.4,0.4c0.2,0,0.1-3.3-0.7-3.4c-0.8-0.1-1.5,0-1.8,0.2C89.3,34.9,89.1,35.6,89.1,35.6z"/>
		<path class="st958" d="M89.1,35.6c0,0-0.6,0-0.7,0.3c-0.1,0.3,0,0.4-0.1,0.6c-0.2,0.2-0.1,0.6-0.1,0.6s-1.2-2.2,0.1-2.4
			C89.5,34.6,89.5,34.8,89.1,35.6z"/>
		<path class="st962" d="M88.3,48c-0.2,0.5-0.5,1.1-0.8,1.6c-0.3,0.3-0.6,0.5-0.7,0.5c-0.1,0-0.2,0-0.4,0c-0.3-0.1-0.6-0.5-0.9-0.8
			c-0.1-0.1-0.1-0.2-0.2-0.2c0.8-0.7,2.4-2.2,2.6-4.3C88.2,41.9,88.3,48.2,88.3,48z"/>
		<path class="st962" d="M86.4,50.1c0.3-0.4,0.9-0.9,1.7-1.2c-0.4,0.6-1.1,1.2-1.4,1.3C86.7,50.2,86.5,50.1,86.4,50.1z"/>
		<path class="st962" d="M93.3,44.6c0,0-0.7,6.6-3.5,7.5c0,0,0,0-0.1,0c-0.4-0.2-1-0.4-1.6-0.5c-0.7-0.1-1.4-0.2-1.6-0.4
			c-0.3-0.3,0.5-0.6,1.1-1c0.3-0.2,0.6-0.4,0.6-0.5c0.1-0.1,0.1-0.4,0-0.8v0C91.2,47.8,93.3,44.6,93.3,44.6z"/>
		<path class="st955" d="M94.1,42.7c-0.3-1.4-1.7-0.6-1.7-0.6c-0.5-0.1-4,5.6-4.3,5.7c-0.2,0.1-3.5-0.8-4.4-1.1
			c-0.3-0.2-1.1-0.9-1.3-0.9c-0.2,0-1.4,0.3-1.4,0.5c0,0.2,0.3,0.5,0.7,0.5c0.3,0.1,0.9,0.3,1.3,0.3l0,0c0,0,3.6,2.4,5.1,2.7
			C89.5,50.1,94.4,44,94.1,42.7z"/>
		<path class="st952" d="M86,47.3c0,0-0.8,2.1,0.2,2.9c1,0.8,3.1,0.5,5.4-2.7c2.3-3.3,3.3-5,2.1-5.5c-1.2-0.5-2.2,0.3-2.8,1.6
			c-0.6,1.3-1.8,3.1-2.6,3.2C87.6,46.8,86,47.3,86,47.3z"/>
	</g>
	<g>
		<path class="st955" d="M65.5,27.5l0,0.3c0,0-0.1,1,1.1,1.1c1.2,0.1,2.2,0.1,2.2-0.6c-0.1-0.6-0.3-1.5-0.3-2c0-0.2,0-0.4,0-0.6
			l-2.4,0l-0.7,0.1L65.5,27.5z"/>
		<path class="st963" d="M65.4,25.8l0,1.7c0.3,0.1,0.5,0.2,0.9,0.2c1.1,0,1.8-0.8,2.2-1.4c0-0.2,0-0.4,0-0.6l-2.4,0L65.4,25.8z"/>
		<path class="st955" d="M68.7,25.3c-0.3,1.5-2.2,1.4-3,1.3c-0.2,0-0.4-0.1-0.4-0.1c-0.3-0.1-0.4-0.5-0.5-1c-0.1-1.1,0-2.6,0.2-3
			c0.3-0.6,0.8-1.3,2.7-0.8C69.7,22.2,69.1,23.4,68.7,25.3z"/>
		<path class="st857" d="M70.3,69.2h-2.7c0-0.1,0.1-0.6,0.2-1c0-0.1,0.1-0.3,0.2-0.4c0.3-0.5,1.9-0.2,1.9-0.2s0.2,0.1,0.3,0.6
			C70.2,68.5,70.2,68.8,70.3,69.2z"/>
		<path class="st857" d="M62.1,68.4c0,0.4-0.1,0.7-0.2,0.9h-5.4c0.1-0.2,0.3-0.5,0.8-0.6c0.6-0.1,1.6-0.4,2.2-1
			c0.2-0.2,0.4-0.5,0.4-0.8c0.3-1.1,2.1,0.3,2.1,0.3S62.1,67.8,62.1,68.4z"/>
		<path class="st964" d="M65.6,56.2c-0.1,0.4-0.1,0.7-0.1,1c-0.2,3.3-2.8,10.9-3.3,11.1c-0.7,0.3-1.9-0.3-2.5-0.5
			c-0.2-0.1-0.4-0.3-0.4-0.6c1.3-6,1.8-14.6,2-19.7c0.1-2.6,0.5-4.3,0.5-4.3s6.4-1.7,6.4,0.5C68.4,45.6,66.2,53.1,65.6,56.2z"/>
		<path class="st857" d="M65.6,56.2l-4.3-8.7c0.1-2.6,0.5-4.3,0.5-4.3s6.4-1.7,6.4,0.5C68.4,45.6,66.2,53.1,65.6,56.2z"/>
		<path class="st964" d="M64.2,43.6l3.4,24.6c0,0,1.5,0.4,2.6,0.1c0,0,1-13.1,0.9-16.2c-0.1-3.2,0.7-8.4-0.2-9
			C70.1,42.4,64.2,43.6,64.2,43.6z"/>
		<path class="st857" d="M64.5,21.1c0,0,0.8-0.1,1.8-0.5c0.8-0.4,1.8,0,2.2,0.2c0-0.1,0-0.1-0.1-0.2c0,0,0.1,0.1,0.2,0.3
			c0,0,0,0,0,0c0,0,0.2,0,0.3,0c0,0-0.1,0-0.1,0c0,0,0,0,0,0c1.3,0.6,1.4,2.6,1,3.1c-0.5,0.6-1.1,1.8-1.1,1.8s-0.2-0.3-0.1-0.8
			c0.1-0.5-0.3-0.5-0.9-0.7c-0.5-0.2-0.1-0.8-0.6-1.2c-0.5-0.4-2.2-0.2-2.2-0.4C64.3,22.5,64.5,21.2,64.5,21.1z"/>
		<path class="st965" d="M69.1,28.7l-0.8,16.7c0,0-6.5,0.1-6.3-1.4c0.2-1.5,2.3-14.9,2.3-14.9L69.1,28.7z"/>
		<path class="st966" d="M71.4,38.2c-0.4,1.2,0.3,5.1,0.6,6.4c0.1,0.3,0.1,0.4,0.1,0.4c-0.9,1.5-4.2,1.4-4.2,1.4
			c-0.6-2.8-1-7.3-1-7.3l2.5-11.1l3.2,2.9c0,0-0.2,1.8-0.5,3.6C71.9,36.1,71.6,37.6,71.4,38.2z"/>
		<path class="st1" d="M66,25.6c0,0-0.1,0.2-0.5,0.1c0,0-0.4-0.1-0.4-0.3C65.1,25.4,65.5,25.3,66,25.6z"/>
		<path class="st966" d="M62.3,29C62.3,29,62.3,29,62.3,29c-0.2,0.2-4.5,4.4-5.3,6c-0.9,1.7,3.9,5,3.9,5s0.3,0.1,0.5,0.1
			c-0.2,1.9-0.5,3.6-0.3,4.3c0.3,1.3,1.5,1.8,1.5,1.7c0,0,0.4-4.8,0.7-7.3c0.5-5.3,1.8-10.6,1.8-10.6C63.7,28.3,62.3,29,62.3,29z
			 M59.7,35.7C59.7,35.7,59.7,35.7,59.7,35.7c0-0.3,0.9-0.8,1.9-1.4c0,0,0,0,0,0c0,0,0,0,0,0c0,0.5,0,1,0,1.5c0.1,0.9,0,1.9-0.1,3
			C61.1,38,59.8,36,59.7,35.7z"/>
		<g>
			<path class="st967" d="M69.3,28.1c0-0.2-0.7-0.4-0.7-0.4s-0.9,1.2-2.3,1.2c0,0,0.4,0.8,0.9,1C67.1,29.9,69.2,29,69.3,28.1z"/>
			<path class="st967" d="M66.2,28.9c0,0-0.8-0.4-0.8-0.9c0,0-0.5-0.1-0.7,0.2c0,0-0.2,0.8,0.1,1.3C64.8,29.5,65.9,29.3,66.2,28.9z"
				/>
			<path class="st968" d="M66.7,28.8l-1-0.2c0,0-0.1,0-0.1,0.2c0,0.2,0.3,0.7,0.4,0.7C66.1,29.5,67,29.2,66.7,28.8z"/>
			<path class="st965" d="M69.1,28c0-0.2-0.5-0.5-0.5-0.5s-1,1.2-2.4,1.2c0,0,0.4,0.8,0.9,1C67.1,29.7,69.1,29,69.1,28z"/>
			<path class="st965" d="M66.2,28.7c0,0-0.8-0.4-0.8-0.9c0,0-0.5,0.2-0.7,0.4c0,0-0.2,0.5,0,1C64.8,29.3,65.9,29.1,66.2,28.7z"/>
			<g>
				<path class="st959" d="M64.2,40.2c0,0.4,0.2,0.8,0.5,1l0.5,0.4c0.1,0.1,0.3,0.1,0.4,0l0.6-0.7c0.2-0.2,0.2-0.4,0.2-0.7
					c-0.1-0.5-0.2-1.6-0.2-2.6C66,36.9,66,36.1,66,35.6c0-1.5,0.3-6.4,0.3-6.4l-0.4,0c0,0-0.9,1.9-1.4,4.5c-0.1,0.6-0.2,1.3-0.3,2
					C64.3,35.7,64.1,38.5,64.2,40.2z"/>
				<path class="st968" d="M64.2,40.2c0,0.4,0.2,0.8,0.5,1l0.5,0.4c0.1,0.1,0.3,0.1,0.4,0l0.6-0.7c0.2-0.2,0.2-0.4,0.2-0.7
					c-0.1-0.5-0.2-1.6-0.2-2.6c-1-1.1-1.4-2.7-1.6-4c-0.1,0.6-0.2,1.3-0.3,2C64.3,35.7,64.1,38.5,64.2,40.2z"/>
			</g>
		</g>
		<path class="st955" d="M60.6,40.3c0-0.4,0.4-0.8,0.8-0.7c0.1,0,0.2,0.1,0.3,0.2c0.3,0.4,0.6,1.5,0.1,1.6c-0.2,0-0.5-0.1-0.7-0.3
			C60.8,40.9,60.6,40.6,60.6,40.3L60.6,40.3z"/>
		<path class="st857" d="M72,44.6c-0.9-1-2.5-2.9-2.5-4.5c0.1-2.2,2.6-5.5,2.6-5.5c-0.2,1.4-0.5,2.9-0.7,3.5
			C71,39.4,71.7,43.3,72,44.6z"/>
		<path class="st955" d="M72,40.8c0,0-0.7,0.3-1.1,0.2c-0.4-0.2-0.9-0.3-1.3,0.2c-0.5,0.5-0.6,0.9-0.5,1.1c0.1,0.2,1.2,0.1,1.3,0
			c0.2-0.1,0.5-0.4,0.6-0.4c0.5,0.1,0.9-0.2,1.1-0.5C72.3,41.2,72,41.1,72,40.8z"/>
		<path class="st966" d="M69.5,28.1c0,0,2.7,0.3,3.3,1.5c0.6,1.2,3.9,5.9,3.8,7.8c-0.1,2-4.5,4.2-4.5,4.2s-1-0.4-1-0.8
			c0-0.4,3-3.1,2.8-3.6c-0.2-0.5-3.5-4.4-3.8-5.6C69.8,30.3,69.5,28.1,69.5,28.1z"/>
		<path class="st857" d="M61.7,34.3C61.7,34.3,61.7,34.3,61.7,34.3c-1,0.6-1.9,1.2-1.9,1.4c-0.1-0.4,1.2-2.2,1.6-2.6
			C61.7,32.8,61.7,34.3,61.7,34.3z"/>
		<path class="st857" d="M68.6,27.5c0,0-2,8.5-1.7,11.7c0,0,0.7-3.4,2.5-6.2c0,0-0.7-0.6-0.6-0.8c0,0,0.5-0.1,1,0c0,0-0.1-3.7-0.3-4
			C69.2,27.7,68.6,27.5,68.6,27.5z"/>
		<path class="st857" d="M65.5,27.8c0,0-2,8.3-2.2,11c0,0,0.2-4.7,0.2-6.1c0,0,0.8-0.4,0.8-0.6c0-0.2-0.9-0.6-0.9-0.6
			s0.6-2.9,0.9-3.2C64.6,27.9,65.5,27.8,65.5,27.8z"/>
	</g>
	<g>
		<g>
			<path class="st955" d="M39.1,64.6c0.1,0.1,0.1,0.3,0.1,0.4l0,0c-0.1,0.3-0.4,0.6-0.8,0.9c0,0-0.1,0.1-0.1,0.1c0,0,0,0,0,0
				c0,0,0,0,0,0c-0.4,0.3-0.2,0.4-0.8,1.1c-0.7,0.7-1.2,0.8-1.4,0.7c-0.1-0.1,0.1-0.5,0.4-0.9c0,0,0,0,0-0.1c0-0.1,0.1-0.1,0.1-0.2
				c0.3-0.5,0.2-0.8,0.2-1.6c-0.1-0.6-1-3.6-1-3.6l1.4-0.2c0,0,0.4,2.4,0.9,2.7c0.2,0.2,0.5,0.2,0.8,0.3c0,0,0,0,0,0
				C38.8,64.4,39,64.5,39.1,64.6z"/>
			<path class="st959" d="M39.1,64.6c0.1,0.1,0.1,0.3,0.1,0.4l0,0c-0.1,0.3-0.4,0.6-0.8,0.9c0,0-0.1,0.1-0.1,0.1c0,0,0,0,0,0
				c0,0,0,0,0,0c-0.4,0.3-0.2,0.4-0.8,1.1c-0.7,0.7-1.2,0.8-1.4,0.7c-0.1-0.1,0.1-0.5,0.4-0.9c0.1-0.1,0.8-0.3,1.3-0.9
				c0.4-0.6,0.7-1.3,1-1.7c0,0,0,0,0,0C38.8,64.4,39,64.5,39.1,64.6z"/>
			<path class="st955" d="M27.9,63.8c-0.1,0.4-0.7,0.4-1.4,0.2c-0.7-0.2-0.5,0-1.5-0.1c-1-0.1-1.3-0.5-1.3-0.6c0-0.1,0.5-0.2,1-0.2
				c0.1,0,0.1,0,0.2,0c0.6-0.1,1-0.4,1.5-0.8c0.5-0.3,1.2-1.5,1.2-1.5l1.3,0.1c0,0-0.7,1.1-1,1.5c-0.2,0.3-0.1,0.6-0.1,0.9
				C28,63.5,28,63.6,27.9,63.8z"/>
			<path class="st959" d="M26.6,63.9c-0.7-0.2-0.5,0-1.5-0.1c-1-0.1-1.3-0.5-1.3-0.6c0-0.1,0.5-0.2,1-0.2l0,0c0,0,0.6,0.4,1.4,0.4
				c0.7,0,1.3-0.2,1.8-0.2c0,0.1,0,0.3,0,0.5C27.9,64.2,27.3,64.1,26.6,63.9z"/>
			<path class="st955" d="M30.9,44.3c0,0-0.3-0.8-0.7-0.8c-0.3,0-1.4-0.2-1.5,0c-0.1,0.2,0,0.7,0.2,0.9c0.2,0.2,1.7,0.5,1.7,0.5
				L30.9,44.3z"/>
			<path class="st969" d="M33,55.3l2.9,7.7c0,0,0.4,0,0.9-0.1c0.4-0.1,0.8-0.4,0.8-0.4s-0.7-7.4-2-8.9C34.3,52.1,33,55.3,33,55.3z"
				/>
			<path class="st959" d="M44.3,52.2c0,0-8.2-2.8-10-2.2C32.4,50.6,27,61.5,27,61.5s0.1,0.2,0.5,0.3c0.3,0.1,1.1,0.1,1.1,0.1
				s5-4.2,5.5-5.5c0.6-1.2,0.8-2.4,1.4-2.3c0.6,0.1,7.6,2.9,9.2,1.2c1.6-1.6,1.2-3.8,1.2-3.8L44.3,52.2z"/>
			<path class="st970" d="M39.3,39.3c-0.1-0.3-0.3-0.7-0.3-1.6c0,0.1,0.2,1.2,0.6,1.8c1.7,1.1,5,4.9,4.9,5.6c0,0,1.2-2,1.2-2
				c0,0,2.1-2.7-0.4-4.2c-1.3-0.8-1.3-1.8-1.2-2.7c0.1-0.9-0.3-4.6-2.9-3.7c0,0-0.4-0.2-0.6-0.2c0,0,0.2,0,0.2,0.1
				c-0.3,0-0.7,0-1.1,0.2C38.7,33.2,37.8,38,39.3,39.3z"/>
			<path class="st955" d="M39.6,39.5c0,0,0.8,0.4,1.4,0.3c0.6-0.2,1-0.9,1-0.9c-0.2,0-0.3-0.4-0.3-1.9l-0.1,0l-1.9,0.4
				c0,0,0,0.6,0,1.2C39.7,39,39.7,39.5,39.6,39.5z"/>
			<path class="st971" d="M39.7,37.4c0,0,0,0.6,0,1.2c1.1,0,1.6-1,1.8-1.5L39.7,37.4z"/>
			<path class="st970" d="M41.8,36.8c0,0,0.6-0.9,0.7-1.6c0.1-0.5-0.2-2.5-2.2-2.2c0,0-0.6,0.1-1.1,0.4c-0.4,0.3-1.1,0.9-0.4,2.7
				l0.2,0.6L41.8,36.8z"/>
			<path class="st955" d="M39.4,37.9c0,0,2.5,0,2.5-1.5c0-1.6,0.3-2.6-1.3-2.7c-1.6-0.1-1.9,0.5-2,1C38.4,35.3,38.7,37.9,39.4,37.9z
				"/>
			<path class="st970" d="M39.4,33.7c0,0,0.7,1.8,1.7,2.1c1.1,0.3,1.5,0,1.5,0s-0.8-0.6-1-1.8C41.7,34,40,32.8,39.4,33.7z"/>
			<path class="st970" d="M39.6,33.8c0,0-0.5,0.4-0.6,0.8c-0.1,0.4-0.2,1.2-0.4,1.2c0,0-0.5-1.2,0.1-1.9
				C39.2,33.1,39.6,33.8,39.6,33.8z"/>
			<path class="st972" d="M46.2,52.2c-0.1,0.4-0.5,0.5-1.1,0.4c-1.1-0.1-2.6-0.8-3.8-1.3c-1.7-0.7-2.5,0-3.1-0.5
				c-0.6-0.5,0.6-1.5-0.4-6.5c-0.3-1.7,1.8-5.2,1.8-5.2s0.2,1,2.3-0.2c0.1,0,0.9,1.2,1.7,2.7c0.9,1.7,1.7,3.7,1.5,4.7
				C44.7,48.3,46.6,51.2,46.2,52.2z"/>
			<path class="st972" d="M39.7,39.1l-1.3,5.3c0,0-0.2,0.3-0.4,0.7c-0.6,1-1.7,2.6-2.4,2.8c-0.3,0.1-1.1-0.2-1.9-0.6
				c-1.5-0.8-3.4-2-3.4-2c-0.1-0.7,0.5-1.3,0.5-1.3s3.7,1.4,4.1,1.4c0.8,0.1,1.6-3.8,2.4-5.1C37.8,39.3,39.7,39.1,39.7,39.1z"/>
			<path class="st1" d="M39.9,37c0,0,0,0.2-0.5,0.2c0,0-0.4,0-0.4-0.2C39,36.9,39.4,36.8,39.9,37z"/>
			<path class="st973" d="M46.2,52.2c-0.1,0.4-0.5,0.5-1.1,0.4c-0.7-0.3-3.9-1.5-3.9-2.4c0.1-1.2,0.6-1.3,0.2-2.8
				c-0.3-1.2,2.6-3.5,3.1-4c0.9,1.7,0.9,1.7,0.7,2.8C44.7,48.3,46.6,51.2,46.2,52.2z"/>
			<path class="st973" d="M38,45.1c-0.6,1-1.7,2.6-2.4,2.8c-0.3,0.1-1.1-0.2-1.9-0.6c0.6,0.2,1.2,0.1,1.7,0.1
				c0.6-0.1,0.8-0.8,1.7-1.9C37.8,44.7,38,44.9,38,45.1z"/>
			<path class="st955" d="M41,47.5c0,0-0.5-0.4-1-0.3c-0.5,0.1-0.7,0.4-0.7,0.6c0,0.2,0.3,0.6,0.7,0.6c0.4,0,1.5-0.2,1.5-0.2
				L41,47.5z"/>
			<path class="st972" d="M42,38.9c0,0,2,0.1,2.7,1.1c1,1.4,2.7,7.1,2.3,8.4l-6.2,0c0,0-0.2-0.7,0.1-1c0.2-0.3,3.6-0.9,3.8-1
				c0.2-0.2-2-3.1-2-3.5C42.7,42.2,42,38.9,42,38.9z"/>
		</g>
		<g>
			<g>
				<polygon class="st958" points="40.4,49.8 32.9,49.8 31.5,45 39.1,45 				"/>
				<rect x="32.9" y="49.6" class="st960" width="9.8" height="0.2"/>
			</g>
			<path class="st960" d="M35.3,47.3c0-0.2,0-0.3,0.2-0.3c0.2,0,0.3,0.1,0.4,0.3c0,0.2,0,0.3-0.2,0.3C35.5,47.6,35.3,47.5,35.3,47.3
				z"/>
		</g>
	</g>
	<g>
		<path class="st955" d="M16.8,39c0,0,0.8-0.7,1.1-0.7c0.3,0,0.9-0.2,0.8-0.1c0,0.1-0.5,0.2-0.4,0.3c0.1,0,0.8-0.1,1,0
			c0.2,0.1,0.6,0.6,0.3,0.8c-0.4,0.2-1.4,0.5-1.7,0.5c-0.3,0-0.9-0.1-0.9-0.1L16.8,39z"/>
		<polygon class="st955" points="6.3,64 7,66.9 8,66.9 8,64 		"/>
		<polygon class="st955" points="15,64.2 16.9,66.9 17.7,66 16.5,63.8 		"/>
		<path class="st960" d="M11,29L11,29C11,29,11,29,11,29c0-0.2,0-0.3-0.1-0.5v0c-0.1-0.4-0.1-0.9-0.2-1.2c-0.1-0.2-0.1-0.4-0.2-0.6
			c0,0,0-0.1,0-0.1l0,0c-0.2-0.4-0.4-0.7-0.6-0.8c-0.4-0.2-0.8-0.2-1.1-0.2C8.9,25.6,9,25.5,9,25.5c-0.2,0-0.6,0.2-0.6,0.2
			c-2.6-1-3,2.8-2.9,3.7c0.1,0.9-0.9,1.2-2.2,1.9c-2.6,1.3-2.8,3.1-2.8,3.1c0,0,0,0,0.1,0c0.1-0.2,0.4-0.6,0.6-0.7
			c0,0-0.3,0.6-0.4,0.9c0.3,0.2,0.8,0.6,1.2,1l0,0c0.6,0.6,1.3,1.2,1.9,1.7c0-0.2,0-0.4,0.1-0.6l0.1,0.6l0,0.1
			c0.4,0.3,0.6,0.6,0.8,0.7c0,0,0,0,0,0c0,0,0.1,0.1,0.1,0.1c0-0.2,0.3-0.8,0.8-1.4c0,0,0.1-0.1,0.1-0.1c0.2-0.2,0.3-0.4,0.5-0.6
			C6.5,36,6.6,36,6.7,35.9l0,0c0.1-0.1,0.1-0.1,0.2-0.2l0,0c0.1-0.2,0.3-0.3,0.4-0.5c0.4-0.4,0.8-0.8,1.2-1.2c0.6-0.5,1.1-1,1.5-1.3
			c0,0,0,0,0-0.1c0.1-0.1,0.2-0.3,0.2-0.4c0,0,0-0.1,0.1-0.1c0.2-0.5,0.2-1,0.3-1.1c0,0.5-0.1,0.9-0.2,1.1c0,0.1,0,0.1-0.1,0.2v0
			c0,0.1-0.1,0.2-0.1,0.3c0.1-0.1,0.1-0.1,0.2-0.2c0-0.1,0.1-0.1,0.1-0.2C11,31.4,11.1,30.2,11,29z"/>
		<path class="st955" d="M9.9,32.8c0,0-0.8,0.4-1.5,0.3c-0.6-0.2-1-0.9-1-0.9c0.3,0,0.3-0.4,0.3-1.9l0.1,0l1.9,0.4c0,0,0,0.6,0,1.2
			C9.7,32.3,9.8,32.7,9.9,32.8z"/>
		<path class="st957" d="M7.7,26.5c0,0,0.9-1,2.1-0.1C9.8,26.4,9.2,26.3,7.7,26.5z"/>
		<path class="st971" d="M9.8,30.6c0,0,0,0.6,0,1.2c-1.1,0-1.6-1-1.9-1.5L9.8,30.6z"/>
		<path class="st960" d="M7.7,30.1c0,0-0.6-0.9-0.7-1.6c-0.1-0.5,0.2-2.5,2.2-2.3c0,0,0.6,0.1,1.1,0.4c0.4,0.3,1.1,0.9,0.4,2.7
			l-0.2,0.6L7.7,30.1z"/>
		<path class="st964" d="M17.4,65.2l-1,0l-1.1,0c0,0-2.5-2.8-3.9-7.3c0-0.1-0.1-0.2-0.1-0.3c-0.8-2.3-2.4-5.1-3.2-7.7
			c-0.1-0.4-0.3-0.8-0.4-1.2c0-0.1-0.1-0.2-0.1-0.3c-0.6-2.2-0.8-3.6-1-5.1l6.1,0C12.7,43.4,13.7,53.8,17.4,65.2z"/>
		<path class="st974" d="M11.8,39.9c0,2.9,0.4,4.2,0.4,4.2s-2.6,1.3-5.7,0.4c0,0-2.6-0.6-2.6-0.6c0.1-0.1,0.5-2.1,0.6-2.2
			c0.7-1.4,1.2-2,1.2-2.5c0.1-0.8,0.1-1.6,0.1-2.4c-0.2-2.1-0.8-3.8-0.8-3.8c0.8-0.2,1.6-0.5,2.5-0.9c0.2,0.3,0.8,0.5,1.4,0.5
			c0.6,0,0.8-0.3,0.8-0.6c0.7,0.4,1.2,0.7,1.2,0.7c0.6,1,1.7,1.9,1.8,3.4C12.7,36.4,11.8,39.8,11.8,39.9z"/>
		<path class="st955" d="M10.1,31.2c0,0-2.5,0-2.5-1.5c0-1.6-0.3-2.6,1.3-2.7c1.6-0.1,1.9,0.5,2.1,1C11.1,28.5,10.8,31.1,10.1,31.2z
			"/>
		<path class="st960" d="M10.1,26.9c0,0-0.7,1.8-1.8,2.1c-1.1,0.3-1.5,0-1.5,0s0.8-0.6,1-1.8C7.8,27.2,9.5,26,10.1,26.9z"/>
		<path class="st960" d="M9.9,27c0,0,0.5,0.4,0.6,0.8c0.1,0.4,0.2,1.2,0.4,1.2c0,0,0.5-1.3-0.1-2C10.3,26.3,9.9,27,9.9,27z"/>
		<path class="st955" d="M6.9,66.8c0,0,0.1,0.6-0.1,1.2c0,0-0.2,0.8,0.6,0.8c0.8,0,0.9-0.1,0.9-0.5C8.2,67.7,8,66.9,8,66.9L6.9,66.8
			z"/>
		<path class="st956" d="M8.4,69.2H6.7c-0.1-0.3,0.1-1.1,0.1-1.2c0,0,0,0,0,0c0,0,0,0,0,0c0.9,0.8,1.4,0,1.4,0l0,0
			C8.3,68.3,8.4,69.1,8.4,69.2z"/>
		<path class="st955" d="M19.5,68.3c0,0-1.4-1.6-1.8-2.3l-1,0.5l2.3,2.2l0.5-0.1L19.5,68.3z"/>
		<path class="st956" d="M20.4,69.2c0,0-1.7,0-1.8,0c-0.3,0-0.5-0.4-0.7-1c-0.1-0.2-0.4-0.4-0.6-0.4l0,1.4h-0.4l-0.4-1.5
			c-0.2-0.5,0-0.9,0.2-1.2c0.2,0,0.7,0.1,1.8,1.3c0.3,0.4,0.7,0.5,1.1,0.5c0,0,0,0,0,0C20.4,68.7,20.4,69.2,20.4,69.2z"/>
		<path class="st857" d="M16.4,65.2l-1.1,0c0,0-2.5-2.8-3.9-7.3c0-0.1-0.1-0.2-0.1-0.3c-0.8-2.3-2.4-5.1-3.2-7.7
			c-0.1-0.4-0.3-0.8-0.4-1.2c0-0.1-0.1-0.2-0.1-0.3l0.9-0.7c0,0,2.7,4.4,3.5,8.5C12.7,59.8,15.6,64.1,16.4,65.2z"/>
		<path class="st964" d="M8.5,56.6c0,2-0.1,6.6-0.3,8.5h-1c-0.5,0-0.8,0-0.8,0c-0.7-3.3-1.1-6.1-1.5-8.4c-0.3-1.9-0.5-3.6-0.7-5
			C4.1,50.3,3.9,49,3.9,48c0-0.2,0-0.3,0-0.5c0-0.2,0-0.3,0-0.4l5.3-0.5C9.1,50.1,8.5,55.5,8.5,56.6z"/>
		<path class="st857" d="M7.2,65.2c-0.5,0-0.8,0-0.8,0c-0.7-3.3-1.1-6.1-1.5-8.4c-0.3-1.9-0.5-3.6-0.7-5C4.1,50.3,3.9,49,3.9,48
			l1.9,1.1c0,0-1.2,0.4-0.8,3.7C5.5,56.2,6.6,64.7,7.2,65.2z"/>
		<path class="st861" d="M7.5,48c0,0-0.4,1.3-1.7,1.2c-1.3-0.2-3.1-0.9-3.1-0.9s0.6-1.7,1.2-4c0.8-2.8,1-6.7,1.5-8.9
			c0.1-0.6,1-0.8,1.1-1.2L7.6,32c0,0,1.6,3.6,1.7,4.5C9.4,37.4,7.5,48,7.5,48z"/>
		<path class="st860" d="M6.6,39.1c-0.1,1.5-0.6,4-2.6,5c0,0,0,0,0,0c0.8-2.8,0.8-5.4,1.3-7.7C6.3,36.3,6.6,38.3,6.6,39.1z"/>
		<g>
			<path class="st956" d="M19.9,38.3h-2c0,0,0,0,0,0.1c0,0.2,0,0.5,0,0.6c0,0.4,0.3,0.7,0.6,0.8h0c0,0,0,0,0,0c0.1,0,0.1,0,0.2,0.1
				c0,0,0.1,0,0.1,0c0,0,0.1,0,0.1,0c0.1,0,0.3,0,0.4-0.1c0.3-0.2,0.6-0.5,0.6-0.9v-0.4C19.9,38.3,19.9,38.3,19.9,38.3z"/>
			<path class="st957" d="M19.7,38.3h-0.3c0,0,0,0.1,0,0.1v0.4c0,0.3-0.1,0.5-0.3,0.7c-0.1,0.1-0.2,0.2-0.3,0.2
				c-0.1,0-0.1,0-0.2,0.1c0,0-0.1,0-0.1,0c0,0,0.1,0,0.1,0c0,0,0.1,0,0.1,0c0.1,0,0.2,0,0.3-0.1c0.2-0.1,0.3-0.2,0.4-0.4l0,0
				c0-0.1,0.1-0.1,0.1-0.2c0-0.1,0-0.2,0-0.3v-0.4C19.7,38.3,19.7,38.3,19.7,38.3z"/>
			
				<rect x="18.5" y="39.7" transform="matrix(-1 -1.224647e-16 1.224647e-16 -1 37.8235 79.4967)" class="st956" width="0.8" height="0.1"/>
		</g>
		<path class="st955" d="M4.3,42.4c0,0,0.9-0.2,1.2,0.1c0.2,0.3,0.4,0.7,0.1,0.8c-0.2,0.1-0.9-0.3-1.2-0.1c-0.2,0.1-0.2,0.4-0.4,0.3
			c-0.2-0.1-0.4-0.8-0.4-0.8L4.3,42.4z"/>
		<path class="st861" d="M7.6,32c0,0-2.5,0.1-3.1,0.7c-0.6,0.6-4.2,4.8-4.2,6c-0.1,1.1,3.1,4.3,3.1,4.3s0.9-0.2,1.3-0.8
			c0,0-2-3.5-1.9-3.7c0.1-0.2,3.5-2.9,3.7-2.3C6.8,36.7,7.6,32,7.6,32z"/>
		<path class="st861" d="M17,38.7c0,0-2.8,0.9-3.2,0.9c-0.4-0.1-0.9-3.9-1.1-5.2c-0.4-1.7-1.7-2-1.7-2l-1.3-0.3c0,0,1.5,3.6,1.5,4.3
			c0,0.7,0.2,11.9,0.2,11.9s-0.1,0.5,0.9,0.3c1-0.2,1.2-0.4,1.2-0.4s-0.4-3.1-0.6-5.9c1-0.2,4.2-1.8,4.2-1.8
			C17.7,39.6,17,38.7,17,38.7z"/>
	</g>
	<g>
		<g>
			<path class="st975" d="M25,50.8l-0.5,2.9v0L23,61.8L21.8,69c0,0.1-0.1,0.2-0.2,0.2c-0.1,0-0.2-0.1-0.2-0.2l1.1-8.2l1.2-8.8
				l0.2-1.3L25,50.8z"/>
		</g>
		<g>
			<path class="st975" d="M30.6,50.8l-0.5,2.9v0l-1.4,8.1L27.4,69c0,0.1-0.1,0.2-0.2,0.2c-0.1,0-0.2-0.1-0.2-0.2l1.1-8.2l1.2-8.8
				l0.2-1.3L30.6,50.8z"/>
		</g>
		<path class="st951" d="M24.5,53.7c0.1-1.3-0.8-1.6-0.8-1.6l0.2-1.3l1.2,0L24.5,53.7z"/>
		<g>
			<g>
				<path class="st975" d="M73.7,69.2c-0.1,0-0.2-0.1-0.2-0.2l-1.1-6.4l-1.6-9.2l-0.5-2.6l1.2,0l0.2,1.5L73,62.8l0.8,6.2
					C73.9,69.1,73.8,69.2,73.7,69.2z"/>
			</g>
			<path class="st951" d="M71.6,52.2c-0.8,0.3-0.9,1.1-0.9,1.1l-0.5-2.6l1.2,0L71.6,52.2z"/>
		</g>
		<g>
			<g>
				<path class="st975" d="M80.2,69.2c-0.1,0-0.2-0.1-0.2-0.2l-1.1-6.4l-1.6-9.2l-0.5-2.6l1.2,0l0.2,1.5l1.4,10.5l0.8,6.2
					C80.4,69.1,80.3,69.2,80.2,69.2z"/>
			</g>
			<path class="st951" d="M78.1,52.2c-0.8,0.3-0.9,1.1-0.9,1.1l-0.5-2.6l1.2,0L78.1,52.2z"/>
		</g>
		<path class="st976" d="M80.3,51.8h-61c-0.4,0-0.8-0.3-0.8-0.8v-0.5c0-0.4,0.3-0.8,0.8-0.8h61c0.4,0,0.8,0.3,0.8,0.8V51
			C81,51.4,80.7,51.8,80.3,51.8z"/>
	</g>
	<g>
		<path class="st956" d="M31.5,48.5c-0.1-0.1-0.3,0-0.4,0v-0.2c0,0,0-0.1,0-0.1h-2c0,0,0,0.1,0,0.1v0.4c0,0.5,0.4,1,1,1
			c0.3,0,0.6-0.1,0.7-0.3l0,0c0,0,0.5-0.1,0.6-0.3C31.6,48.9,31.7,48.6,31.5,48.5z M31.4,48.9c0,0.1-0.3,0.2-0.4,0.2
			c0-0.1,0.1-0.2,0.1-0.3c0.1-0.1,0.2-0.1,0.3-0.1C31.4,48.7,31.5,48.7,31.4,48.9z"/>
		<path class="st957" d="M29.3,48.3v0.4c0,0.5,0.4,1,1,1c0,0,0.1,0,0.1,0c-0.5-0.1-0.9-0.5-0.9-1v-0.4c0,0,0-0.1,0-0.1h-0.3
			C29.3,48.3,29.3,48.3,29.3,48.3z"/>
		<rect x="29.7" y="49.6" class="st956" width="0.8" height="0.1"/>
	</g>
	<g>
		<path class="st956" d="M59.6,48.5c-0.1-0.1-0.3,0-0.4,0v-0.2c0,0,0-0.1,0-0.1h-2c0,0,0,0.1,0,0.1v0.4c0,0.5,0.4,1,1,1
			c0.3,0,0.6-0.1,0.7-0.3l0,0c0,0,0.5-0.1,0.6-0.3C59.7,48.9,59.8,48.6,59.6,48.5z M59.5,48.9c0,0.1-0.3,0.2-0.4,0.2
			c0-0.1,0.1-0.2,0.1-0.3c0.1-0.1,0.2-0.1,0.3-0.1C59.5,48.7,59.6,48.7,59.5,48.9z"/>
		<path class="st957" d="M57.4,48.3v0.4c0,0.5,0.4,1,1,1c0,0,0.1,0,0.1,0c-0.5-0.1-0.9-0.5-0.9-1v-0.4c0,0,0-0.1,0-0.1h-0.3
			C57.4,48.3,57.4,48.3,57.4,48.3z"/>
		<rect x="57.8" y="49.6" class="st956" width="0.8" height="0.1"/>
	</g>
	<path class="st855" d="M119.6,69.8H0.2c-0.1,0-0.2-0.1-0.2-0.2l0-0.1c0-0.1,0.1-0.2,0.2-0.2h119.4c0.1,0,0.2,0.1,0.2,0.2v0.1
		C119.8,69.7,119.7,69.8,119.6,69.8z"/>
</g>
</svg>
