<?xml version="1.0" encoding="utf-8"?>
<!-- Generator: Adobe Illustrator 22.1.0, SVG Export Plug-In . SVG Version: 6.00 Build 0)  -->
<svg version="1.1" xmlns="http://www.w3.org/2000/svg" xmlns:xlink="http://www.w3.org/1999/xlink" x="0px" y="0px"
	 viewBox="0 0 400 400" style="enable-background:new 0 0 400 400;" xml:space="preserve">
<style type="text/css">
	.st0{fill:#FFFFFF;}
	.st1{fill:#205251;}
	.st2{fill:#56A197;}
	.st3{fill:#695B5B;}
	.st4{fill:#554444;}
	.st5{fill:#3A2C2D;}
	.st6{fill:#367171;}
	.st7{fill:#817171;}
	.st8{fill:#FFF0A9;}
	.st9{fill:#EBCA7A;}
	.st10{fill:#E75325;}
	.st11{fill:#FEC550;}
	.st12{fill:#935F25;}
	.st13{fill:#B17A2B;}
	.st14{fill:#49A146;}
	.st15{fill:#EF3D29;}
	.st16{fill:#F37A6D;}
	.st17{fill:#CD2327;}
	.st18{fill:#E1A33E;}
	.st19{fill:#F73723;}
	.st20{fill:#BA7D25;}
	.st21{font-family:'Verdana-Bold';}
	.st22{font-size:9.4864px;}
	.st23{fill:#544343;}
	.st24{fill:#EACA7A;}
	.st25{fill:#E8510F;}
	.st26{fill:#EAB132;}
	.st27{fill:#A06618;}
	.st28{fill:#844F09;}
	.st29{fill:#724107;}
	.st30{fill:#FFC639;}
	.st31{fill:#FFE471;}
	.st32{fill:#F2D38C;}
	.st33{fill:#A5691B;}
	.st34{fill:#9B6121;}
</style>
<g id="Layer_2">
</g>
<g id="svg2212" inkscape:version="1.0.2-2 (e86c870879, 2021-01-15)" sodipodi:docname="circle-cart-2.svg" xmlns:cc="http://creativecommons.org/ns#" xmlns:dc="http://purl.org/dc/elements/1.1/" xmlns:inkscape="http://www.inkscape.org/namespaces/inkscape" xmlns:rdf="http://www.w3.org/1999/02/22-rdf-syntax-ns#" xmlns:sodipodi="http://sodipodi.sourceforge.net/DTD/sodipodi-0.dtd" xmlns:svg="http://www.w3.org/2000/svg">
	
		<sodipodi:namedview  bordercolor="#666666" borderopacity="1" gridtolerance="10" guidetolerance="10" id="namedview2214" inkscape:current-layer="svg2212" inkscape:cx="200" inkscape:cy="200" inkscape:document-rotation="0" inkscape:pageopacity="0" inkscape:pageshadow="2" inkscape:window-height="480" inkscape:window-maximized="0" inkscape:window-width="729" inkscape:window-x="0" inkscape:window-y="0" inkscape:zoom="1.345" objecttolerance="10" pagecolor="#ffffff" showgrid="false">
		</sodipodi:namedview>
	<g id="Layer_2_1_">
	</g>
	<g id="Layer_1">
		
			<sodipodi:namedview  bordercolor="#666666" borderopacity="1" gridtolerance="10" guidetolerance="10" id="namedview599" inkscape:current-layer="Layer_1" inkscape:cx="200" inkscape:cy="200" inkscape:pageopacity="0" inkscape:pageshadow="2" inkscape:window-height="480" inkscape:window-maximized="0" inkscape:window-width="687" inkscape:window-x="0" inkscape:window-y="0" inkscape:zoom="1.345" objecttolerance="10" pagecolor="#ffffff" showgrid="false">
			</sodipodi:namedview>
		<g id="g8">
			
				<image style="overflow:visible;opacity:0.11;enable-background:new    ;" width="1729" height="1729" id="image2" xlink:href="35EBDDF7.png"  transform="matrix(0.2392 0 0 0.2392 -5.3911 -3.3511)">
			</image>
			<g id="g6">
				<circle id="circle4" class="st0" cx="200" cy="200" r="196.6"/>
			</g>
		</g>
		<g id="g108">
			<g id="g58">
				<polygon id="polygon10" class="st1" points="61.6,271.5 63.1,280.3 63.1,286 63.8,289.3 96.5,290.1 131.1,290.5 148.3,290.8 
					150.6,288.7 152.1,273.4 130.5,271.6 96.7,271.8 66.1,271.3 				"/>
				<polygon id="polygon12" class="st2" points="66.9,269.9 67.6,280.4 69,284.9 73.5,286.7 88.4,286.7 99.8,286.8 101.8,286.7 
					102.5,279.2 102.9,270.9 				"/>
				<g id="g48">
					<polygon id="polygon14" class="st3" points="70.9,276.3 62.8,276 55.5,277.3 49.5,280.7 46.5,284.8 44,290.7 44.6,297.4 
						46.6,303.7 52.2,308.6 60,311 70.1,310.3 79.2,304.5 82,298.2 81.9,288.8 78.7,281.4 73.6,277 					"/>
					<path id="path16" class="st4" d="M74.1,280.3l-8.1-3.1c0,0-3.1-0.4-5.7-0.8l-4.8,0.9l-6,3.5l-3,4.1l-2.4,6l0.5,6.7l2,6.3
						l5.6,4.9L60,311l2.4-0.2l4.6-1l6.2-2.7l4.1-5.2l1.2-4.4l0.3-6l-1.7-6L74.1,280.3z"/>
					<polygon id="polygon18" class="st5" points="57.3,278.5 51.4,281.1 47.8,284.8 45.9,288.7 45.8,293.7 46.2,299.1 49.3,304.6 
						57.4,309 65.3,308.9 71.2,306.5 75.7,302.3 77.4,297.2 77.4,290 75.2,284.9 71.1,280.4 65.8,278.5 61.2,278 					"/>
					<polygon id="polygon20" class="st4" points="55.4,282.9 52.3,286.8 50.7,291.9 50.8,296 52.2,299.3 55.2,302.4 61.5,304.2 
						67,303.9 71.5,301 72.8,296 72.4,290 69.8,285.1 65.6,282.6 60.6,282 					"/>
					<polygon id="polygon22" class="st3" points="60.5,283.3 55.6,285.2 52.9,289.3 51.7,293.5 52.4,296.9 56.1,301.3 62,303 
						67,302.4 71,300.1 72,294.6 70.7,288.4 68,284.8 63.7,283.5 					"/>
					<polygon id="polygon24" class="st4" points="55.7,287.8 55,289 55.7,290.5 56.9,290.3 57.5,289.3 57.1,288.2 					"/>
					<polygon id="polygon26" class="st4" points="56,292.9 54.2,293.3 53.6,295 54.5,296.2 55.8,296.1 56.7,294.8 					"/>
					<polygon id="polygon28" class="st4" points="58,297.2 56.9,298.6 57.4,300.1 59,300.8 59.9,299.8 60,298 					"/>
					<path id="path30" class="st4" d="M63.3,298.3l-0.9,1.9l0.9,0.8l1.1-0.1c0,0,0.8-0.9,0.8-1.1c0-0.3-0.3-1.6-0.3-1.6L63.3,298.3z
						"/>
					<polygon id="polygon32" class="st4" points="67.4,296 67,297.3 68.2,298.3 69.2,298.1 70.1,296.5 69.3,295 					"/>
					<polygon id="polygon34" class="st4" points="60.3,285 59.8,286.7 60.8,287.6 62.1,287.4 62.6,286.3 62.4,285.3 61.6,284.7 
											"/>
					<polygon id="polygon36" class="st5" points="67.4,296 67,297.3 68.2,298.3 68.5,298.2 68.3,297.9 67.9,297.2 67.7,296.1 
						68,295.7 					"/>
					<polygon id="polygon38" class="st5" points="63.9,298.3 63.3,298.3 62.5,300.2 63.3,301 64.1,301 63.6,300.6 63.4,300 
						63.5,299 					"/>
					<polygon id="polygon40" class="st5" points="58.2,297.3 58,297.2 56.9,298.6 57.4,300.1 59,300.8 59.1,300.7 58.2,300 
						57.7,299.4 57.7,298.4 					"/>
					<polygon id="polygon42" class="st5" points="54.2,293.3 53.6,295 54.5,296.2 55.3,296.1 54.9,295.8 54.5,295.1 54.4,294.3 
						54.6,293.2 					"/>
					<polygon id="polygon44" class="st5" points="55.7,287.8 55,289 55.7,290.5 56.3,290.4 56,290 55.7,289.4 55.6,288.6 56,287.9 
											"/>
					<polygon id="polygon46" class="st5" points="61,287.1 60.7,286.4 60.8,285.4 61.3,284.8 60.3,285 59.8,286.7 60.8,287.6 
						61.4,287.5 					"/>
				</g>
				<polygon id="polygon50" class="st4" points="69.4,272.7 67.3,279.2 64.5,284.3 62.1,288 58.3,291.3 57.6,294.1 59.3,296.3 
					64.7,296.7 74.4,291.7 80.1,285.3 82.1,279.8 83.7,272.8 				"/>
				<polygon id="polygon52" class="st5" points="79.9,279.6 76.6,286.3 72,290.8 65.9,294.8 60.9,296.4 64.7,296.7 74.4,291.7 
					80.1,285.3 82.1,279.8 83.7,272.8 81.4,272.8 				"/>
				<polygon id="polygon54" class="st3" points="62.3,290 60.2,291.2 60.4,293.2 61.9,294.3 63.5,293.4 64,291.9 63.1,290.3 				"/>
				<polygon id="polygon56" class="st5" points="63.7,291.4 63.2,290.4 62,291.4 60.3,292.5 60.4,293.2 60.8,293.5 62.7,292.2 				
					"/>
			</g>
			<polygon id="polygon60" class="st4" points="51.2,202.3 52.4,212.7 52.8,224.6 54,248.4 55.1,266.3 98.2,267.5 162,268.9 
				240.1,270 304.2,269.1 344.3,268.2 345,246.3 344.3,222.1 344.1,203.7 260.7,203.7 177,201.4 101.9,201.6 65,202.1 			"/>
			<polygon id="polygon62" class="st5" points="56.3,208 56.5,217 56.7,226.7 57.4,234.1 58.6,246.5 59.3,255.3 106.1,254.4 
				148.4,254.8 186.9,256.9 208.1,257.1 232.8,256.2 268.5,256.2 303.7,256.7 340.6,256.2 341.3,243.3 340.6,224.4 340.1,209.7 
				316.6,208.5 295.9,209 269.2,209 234.6,209.4 197.8,209 172.4,208.5 148.7,208 112.5,208 90.2,208.3 69.7,208 			"/>
			<g id="g70">
				<polygon id="polygon64" class="st2" points="61.6,152.7 55.7,169.3 51.6,185.6 48.8,194.9 46.4,198 47.9,203.4 51.7,205.5 
					96.6,204.6 125.5,203.9 175.2,205.3 213.4,206.7 262.7,206.3 309,206 339.1,206 346.4,206 348.8,202.2 349.1,198.4 348.1,195.3 
					341.5,187.3 336,174.5 322.2,152.1 262,152.4 205.7,155.2 143.1,157.2 80.2,154.8 				"/>
				<polygon id="polygon66" class="st6" points="349.1,198.4 349,198.1 334.8,197.9 306.3,199.5 279.5,200.4 247.8,200.7 
					214.3,200.2 170.1,199.3 125.4,198.6 86.9,198.8 63.4,199.3 46.6,198.7 47.9,203.4 51.7,205.5 96.6,204.6 125.5,203.9 
					175.2,205.3 213.4,206.7 262.7,206.3 309,206 339.1,206 346.4,206 348.8,202.2 				"/>
				<polygon id="polygon68" class="st1" points="339.1,206 346.4,206 348.8,202.2 348.8,202.1 334.2,202.5 304.7,203.2 261.8,204.4 
					221.3,203.7 173.1,202.7 137.6,202.5 101.9,201.6 69.9,203.2 48.2,203.6 51.7,205.5 96.6,204.6 125.5,203.9 175.2,205.3 
					213.4,206.7 262.7,206.3 309,206 				"/>
			</g>
			<polygon id="polygon72" class="st2" points="58.1,258.2 52.8,265.8 51.9,270.3 52.6,272.8 71.3,273.7 105.7,273.2 134.2,273.9 
				158.5,274.9 205,277.2 231.1,277.3 273.1,278.7 298.5,278.4 337.2,278.5 350.9,278.2 352.8,277.7 352.8,273.4 352.6,271.8 
				340.5,258.7 309,259.7 265.7,259.4 229.3,259.2 198.4,260.6 112.5,256.7 			"/>
			<polygon id="polygon74" class="st6" points="273.1,278.7 298.5,278.4 337.2,278.5 350.9,278.2 352.8,277.7 352.8,273.8 
				351.2,273.5 331.2,273.9 306,273.9 283.7,274.4 261.3,274.4 241.3,274.2 223.3,273.5 198.7,273 168.7,271.9 146.1,270 
				132.6,269.1 107.9,269.1 73.1,268.6 56.5,268.9 52.3,268.3 51.9,270.3 52.6,272.8 71.3,273.7 105.7,273.2 134.2,273.9 
				158.5,274.9 205,277.2 231.1,277.3 			"/>
			<g id="g106">
				<polygon id="polygon76" class="st7" points="316.1,255.2 317.2,263.1 318.4,272.3 320.6,286.3 322,295.8 323,301.5 323.2,307.7 
					327.7,307.2 325.1,290.8 322.3,271.4 320.4,257.6 320.3,253.9 				"/>
				<polygon id="polygon78" class="st3" points="324.4,303.9 322.5,293 320.3,279.9 318.9,268.8 318,260.9 317.1,254.9 316.1,255.2 
					317.2,263.1 318.4,272.3 320.6,286.3 322,295.8 323,301.5 323.2,307.7 324.7,307.5 				"/>
				<polygon id="polygon80" class="st7" points="291.2,283.7 301.8,281.6 318.4,278.1 332.4,275.2 347.2,271.2 348.1,275.9 
					335.5,279.9 319.4,283.1 305.8,286.1 293,289.4 291.6,286.3 				"/>
				<polygon id="polygon82" class="st3" points="347.4,272.3 347.2,271.2 332.4,275.2 318.4,278.1 301.8,281.6 291.2,283.7 
					291.4,284.7 296.2,284 309.9,281.1 323.4,278.3 335,275.5 343.9,273.3 				"/>
				<polygon id="polygon84" class="st7" points="306.8,305.3 311.6,298.2 319.4,287.6 326.8,277.6 333.7,268.5 338.9,259.8 
					334.3,256.9 326,270.5 318.5,279.9 308.7,293.9 303.5,301.6 				"/>
				<polygon id="polygon86" class="st3" points="308.9,295.9 316.8,285.2 323.9,275.5 330.3,265.2 335.3,257.6 334.3,256.9 
					326,270.5 318.5,279.9 308.7,293.9 303.5,301.6 304.3,302.5 				"/>
				<polygon id="polygon88" class="st7" points="296.6,264.5 304.7,270.2 316.8,278.7 326.7,285.4 335.8,292.7 342.9,298.5 
					345.7,294.4 328.6,282.3 317.8,274.2 304.9,264.8 299.7,261.5 				"/>
				<polygon id="polygon90" class="st3" points="317.8,274.2 304.9,264.8 299.7,261.5 298.8,262.4 303,265.7 315.3,274 327.7,283.5 
					340.8,293.2 344.9,295.6 345.7,294.4 328.6,282.3 				"/>
				<path id="path92" class="st4" d="M352.6,265.2l-7.1-8.5l-9.8-8.2l-16.6-2.4l-4.5,0.5l-13.8,3.1l-8.9,8.9l-5.6,12l-0.8,11.8
					l3.4,13.8l10.8,10.6l11.8,5.7l17.2,0.7l14-6.3l9.9-10.5l2.2-17.2L352.6,265.2z M346,292l-5.7,6.9l-9,5.4l-10.2,2.2l-14-3.1
					l-10.5-8.5l-4.1-10l-0.2-8.1l2.9-8.5l6.1-6.9l7.1-4.1l10.5-1.4l6.2,0.3l8.3,2.2l6.2,4.7l6.2,9l2.4,11.4L346,292z"/>
				<path id="path94" class="st5" d="M342.6,263.6l-9-6.9l-10.5-2.9h-9.7l-10.2,3.5l-6.7,5.2l-4.3,7.3l-2.1,7.3l0.7,7.4l2.8,9.2
					l5.7,6.2l8.6,5.5l10.5,2.6l10-1l10.2-4.7l6-5.2l4-7.8l1-6.6l-1.6-8.8L342.6,263.6z M346,292l-5.7,6.9l-9,5.4l-10.2,2.2l-14-3.1
					l-10.5-8.5l-4.1-10l-0.2-8.1l2.9-8.5l6.1-6.9l7.1-4.1l10.5-1.4l6.2,0.3l8.3,2.2l6.2,4.7l6.2,9l2.4,11.4L346,292z"/>
				<path id="path96" class="st5" d="M321.3,272.3l-4.7,0.5l-2.7,2.4l-1.1,3.8l0.6,4.4l2.3,2.2l3.7,1.6h4l3.2-1.8
					c0,0,1.7-3.4,1.7-3.6c0-0.3,0.2-4.1,0.2-4.1l-1.1-2.9l-1.8-1.7L321.3,272.3z"/>
				<path id="path98" class="st4" d="M325.6,273.1l-4.3-0.9l-4.7,0.5l-2.7,2.4l-1.1,3.8l0.1,1l1.4-3.3l2.2-2.4l3.2-1l2.9,0.2
					c0,0,2.6,1,2.9,1.2s1.7,2.2,1.7,2.2l1.2,2.2c0-0.8,0.1-1.5,0.1-1.5l-1.1-2.9L325.6,273.1z"/>
				<path id="path100" class="st4" d="M322.9,277.3l-2.6-0.7l-2.1,1.3l-1,2.2l0.9,2.6l2.2,1c0,0,2.3-0.5,2.6-0.7
					c0.3-0.2,1.6-1.9,1.6-1.9v-2.6L322.9,277.3z"/>
				<polygon id="polygon102" class="st3" points="320.3,276.6 318.2,277.9 317.2,280.1 317.2,280.2 319.1,278.6 321.1,278.6 
					323.3,279.1 324.4,280.1 324.4,278.6 322.9,277.3 				"/>
				<path id="path104" class="st3" d="M352.6,265.2l-7.1-8.5l-9.8-8.2l-16.6-2.4l-4.5,0.5l-13.8,3.1l-8.9,8.9l-5.6,12l-0.8,11.8
					l1.5,6.2l-0.1-8.9l1.9-10.2c0,0,4.8-10.5,5.2-11.1c0.3-0.5,8-5.7,8-5.7l8.8-2.4l14.2-1.2l10,3.3l11.6,9.3l6.2,8.9l0.7,8.4l0.6,5
					l0.6-4.7L352.6,265.2z"/>
			</g>
		</g>
		<g id="g592">
			<g id="g158">
				<polygon id="polygon110" class="st1" points="61.1,271.6 62.6,280.4 62.6,286.1 63.3,289.4 96,290.2 130.5,290.6 147.8,290.9 
					150,288.8 151.6,273.5 130,271.7 96.1,271.9 65.5,271.4 				"/>
				<polygon id="polygon112" class="st2" points="66.4,270 67.1,280.5 68.5,285 73,286.8 87.8,286.8 99.2,286.9 101.3,286.8 
					102,279.3 102.4,271 				"/>
				<g id="g148">
					<polygon id="polygon114" class="st3" points="70.4,276.4 62.3,276 55,277.3 49,280.8 45.9,284.9 43.5,290.8 44,297.5 46,303.8 
						51.6,308.7 59.5,311.1 69.6,310.4 78.7,304.6 81.4,298.3 81.4,288.9 78.2,281.5 73.1,277.1 					"/>
					<path id="path116" class="st4" d="M73.6,280.4l-8.1-3.1c0,0-3.1-0.4-5.7-0.8l-4.8,0.9l-6,3.5l-3,4.1l-2.4,6l0.5,6.7l2,6.3
						l5.6,4.9l7.9,2.4l2.4-0.2l4.6-1l6.2-2.7l4.1-5.2l1.2-4.4l0.3-6l-1.7-6L73.6,280.4z"/>
					<polygon id="polygon118" class="st5" points="56.7,278.5 50.9,281.2 47.3,284.9 45.4,288.8 45.2,293.8 45.7,299.2 48.8,304.7 
						56.8,309.1 64.8,309 70.6,306.6 75.1,302.4 76.9,297.3 76.9,290 74.7,284.9 70.6,280.5 65.3,278.5 60.6,278.1 					"/>
					<polygon id="polygon120" class="st4" points="54.8,283 51.7,286.9 50.2,292 50.3,296.1 51.6,299.4 54.7,302.5 61,304.3 
						66.5,304 71,301.1 72.3,296.1 71.9,290 69.3,285.2 65,282.7 60.1,282.1 					"/>
					<polygon id="polygon122" class="st3" points="59.9,283.4 55.1,285.3 52.3,289.4 51.2,293.6 51.9,297 55.5,301.4 61.5,303.1 
						66.5,302.5 70.5,300.1 71.5,294.7 70.1,288.5 67.4,284.9 63.2,283.6 					"/>
					<polygon id="polygon124" class="st4" points="55.2,287.9 54.5,289.1 55.2,290.6 56.4,290.4 57,289.4 56.6,288.3 					"/>
					<polygon id="polygon126" class="st4" points="55.4,293 53.7,293.4 53,295.1 54,296.3 55.3,296.2 56.2,294.9 					"/>
					<polygon id="polygon128" class="st4" points="57.4,297.3 56.4,298.7 56.8,300.1 58.5,300.8 59.4,299.9 59.5,298.1 					"/>
					<path id="path130" class="st4" d="M62.8,298.4l-0.9,1.9l0.9,0.8l1.1-0.1c0,0,0.8-0.9,0.8-1.1c0-0.3-0.3-1.6-0.3-1.6L62.8,298.4
						z"/>
					<polygon id="polygon132" class="st4" points="66.8,296.1 66.5,297.4 67.7,298.4 68.7,298.2 69.5,296.6 68.7,295.1 					"/>
					<polygon id="polygon134" class="st4" points="59.8,285.1 59.2,286.8 60.3,287.7 61.6,287.5 62.1,286.4 61.8,285.4 61.1,284.8 
											"/>
					<polygon id="polygon136" class="st5" points="66.8,296.1 66.5,297.4 67.7,298.4 68,298.3 67.7,298 67.3,297.3 67.2,296.2 
						67.4,295.8 					"/>
					<polygon id="polygon138" class="st5" points="63.4,298.4 62.8,298.4 61.9,300.3 62.8,301.1 63.5,301 63.1,300.7 62.8,300.1 
						63,299.1 					"/>
					<polygon id="polygon140" class="st5" points="57.7,297.4 57.4,297.3 56.4,298.7 56.8,300.1 58.5,300.8 58.6,300.7 57.7,300.1 
						57.1,299.5 57.2,298.5 					"/>
					<polygon id="polygon142" class="st5" points="53.7,293.4 53,295.1 54,296.3 54.8,296.2 54.4,295.9 54,295.2 53.9,294.4 
						54.1,293.3 					"/>
					<polygon id="polygon144" class="st5" points="55.2,287.9 54.5,289.1 55.2,290.6 55.7,290.5 55.4,290.1 55.1,289.5 55.1,288.7 
						55.5,288 					"/>
					<polygon id="polygon146" class="st5" points="60.5,287.2 60.2,286.5 60.3,285.5 60.8,284.9 59.8,285.1 59.2,286.8 60.3,287.7 
						60.9,287.6 					"/>
				</g>
				<polygon id="polygon150" class="st4" points="68.8,272.8 66.8,279.3 64,284.3 61.6,288.1 57.8,291.4 57.1,294.2 58.8,296.4 
					64.2,296.8 73.8,291.8 79.5,285.4 81.6,279.8 83.2,272.9 				"/>
				<polygon id="polygon152" class="st5" points="79.4,279.7 76.1,286.4 71.4,290.9 65.4,294.9 60.4,296.5 64.2,296.8 73.8,291.8 
					79.5,285.4 81.6,279.8 83.2,272.9 80.9,272.9 				"/>
				<polygon id="polygon154" class="st3" points="61.7,290 59.7,291.3 59.8,293.3 61.4,294.4 63,293.5 63.5,291.9 62.6,290.4 				
					"/>
				<polygon id="polygon156" class="st5" points="63.2,291.5 62.7,290.5 61.5,291.5 59.8,292.6 59.8,293.3 60.2,293.6 62.2,292.3 
									"/>
			</g>
			<polygon id="polygon160" class="st4" points="50.7,202.4 51.8,212.7 52.3,224.7 53.5,248.5 54.6,266.4 97.7,267.6 161.5,269 
				239.6,270.1 303.7,269.2 343.8,268.3 344.4,246.4 343.8,222.2 343.5,203.8 260.1,203.8 176.5,201.5 101.4,201.7 64.5,202.1 			
				"/>
			<polygon id="polygon162" class="st5" points="55.8,208.1 56,217.1 56.2,226.8 56.9,234.2 58.1,246.6 58.8,255.4 105.5,254.4 
				147.9,254.9 186.4,257 207.6,257.2 232.2,256.3 268,256.3 303.2,256.7 340.1,256.3 340.8,243.4 340.1,224.5 339.6,209.7 
				316.1,208.6 295.4,209.1 268.7,209.1 234.1,209.5 197.2,209.1 171.9,208.6 148.1,208.1 112,208.1 89.6,208.4 69.1,208.1 			"/>
			<g id="g170">
				<polygon id="polygon164" class="st2" points="61.1,152.8 55.2,169.4 51,185.7 48.3,195 45.9,198.1 47.3,203.5 51.1,205.6 
					96.1,204.7 125,204 174.6,205.4 212.9,206.8 262.2,206.4 308.5,206.1 338.6,206.1 345.8,206.1 348.3,202.3 348.6,198.5 
					347.6,195.3 341,187.4 335.5,174.6 321.6,152.1 261.5,152.5 205.2,155.3 142.6,157.3 79.7,154.9 				"/>
				<polygon id="polygon166" class="st6" points="348.6,198.5 348.5,198.2 334.3,198 305.7,199.6 279,200.5 247.2,200.8 
					213.8,200.3 169.6,199.4 124.9,198.7 86.4,198.9 62.9,199.4 46,198.8 47.3,203.5 51.1,205.6 96.1,204.7 125,204 174.6,205.4 
					212.9,206.8 262.2,206.4 308.5,206.1 338.6,206.1 345.8,206.1 348.3,202.3 				"/>
				<polygon id="polygon168" class="st1" points="338.6,206.1 345.8,206.1 348.3,202.3 348.3,202.2 333.6,202.6 304.1,203.3 
					261.3,204.4 220.7,203.8 172.6,202.8 137.1,202.6 101.4,201.7 69.4,203.3 47.7,203.7 51.1,205.6 96.1,204.7 125,204 
					174.6,205.4 212.9,206.8 262.2,206.4 308.5,206.1 				"/>
			</g>
			<polygon id="polygon172" class="st2" points="57.6,258.2 52.2,265.8 51.4,270.3 52.1,272.9 70.7,273.8 105.1,273.3 133.6,274 
				158,275 204.5,277.3 230.6,277.4 272.6,278.8 298,278.5 336.7,278.6 350.3,278.3 352.2,277.8 352.2,273.5 352.1,271.9 340,258.8 
				308.5,259.7 265.2,259.5 228.8,259.3 197.9,260.7 112,256.7 			"/>
			<polygon id="polygon174" class="st6" points="272.6,278.8 298,278.5 336.7,278.6 350.3,278.3 352.2,277.8 352.2,273.9 
				350.7,273.6 330.6,274 305.5,274 283.2,274.5 260.8,274.5 240.8,274.3 222.8,273.6 198.1,273.1 168.2,272 145.6,270.1 132,269.2 
				107.4,269.2 72.6,268.7 56,269 51.7,268.4 51.4,270.3 52.1,272.9 70.7,273.8 105.1,273.3 133.6,274 158,275 204.5,277.3 
				230.6,277.4 			"/>
			<g id="g558">
				<g id="g442">
					<polygon id="polygon430" class="st3" points="93.5,207.6 95.4,220.1 96.8,234.4 97.2,252.2 96.1,252.6 96.2,240 94.2,218.8 
						92.5,207.8 					"/>
					<polygon id="polygon432" class="st8" points="79.7,198.7 80.6,197.1 94.6,193.3 102,192.3 103.4,193.9 105.4,208.7 99.8,210.4 
						95.8,210.2 93,210.7 83,212.6 81.9,211.9 80.9,207.1 					"/>
					<polygon id="polygon434" class="st9" points="100.9,193.9 103.4,193.9 102,192.3 94.6,193.3 80.6,197.1 79.7,198.7 81.7,198.2 
						93.5,195 					"/>
					<polygon id="polygon436" class="st10" points="97.1,202.1 100.9,201.2 101.4,202.6 97.2,203.2 					"/>
					<polygon id="polygon438" class="st10" points="83.8,204.5 86.9,204 87.2,205 84.2,205.8 					"/>
					<path id="path440" class="st10" d="M89.5,199.3l0.4-1.6l2-1l1.6,0.7l0.6,1.7l-1.2,1.5l2.3,1.8l0.2,3.1l-0.6,2.8l-2.6,0.9
						l-1.8-1l-1.3-2.1l0.7-0.5l1.4,1.1l1.3,0.4c0,0,1.2-0.8,1.2-1s0.2-2.2,0.2-2.2l-0.5-1.4l-1.8-0.5l-0.4-1.2l1-1.1l-0.1-1
						l-0.8-0.5l-0.8,0.4l-0.4,1L89.5,199.3z"/>
				</g>
				<g id="g556">
					<g id="g540">
						<path id="path444" class="st11" d="M136.9,263.9l0.5-16.4l-0.5-19.1l0.7-1.4c-0.2-0.9-15-0.7-15-0.7L78.3,228l-15.2-0.7
							l-0.9,1.6l-5.5,6.2l-1.2,1.2l1.2,1.6v18.7l0.5,8.1l-1.6,1.8c0.9,0.9,5.5,0.2,5.5,0.2h34.8l9.9,0.9l26.7-0.5l4.4,0.9l1.2-0.9
							L136.9,263.9z M108.1,245.3H96.3l-13.1,0.2l-2.4-0.5l-0.3-2.8l1.9-1l4.8-0.2h15.4l5.5,0.7l1,1.4L108.1,245.3z"/>
						<polygon id="polygon446" class="st12" points="63.6,228.5 62.6,230.4 57.3,235.6 63.8,235.6 78.5,235.4 97.3,235.6 118.1,236 
							131.9,235.6 134.8,228 130.2,227.7 118.1,227.5 100.3,228.2 81.3,228.9 69.7,228.9 						"/>
						<polygon id="polygon448" class="st13" points="63.7,235.6 63.8,231.8 63.8,228.5 63.6,228.5 62.6,230.4 57.3,235.6 						"/>
						<g id="g530">
							<g id="g458">
								<polygon id="polygon450" class="st14" points="72.4,223.6 72.4,222.2 70.7,220.9 70.6,220.4 72,220.9 73,221.9 73.4,222.4 
									73.7,220.5 74.2,219.1 74.5,219.1 74.5,220.6 74.9,222.1 75.6,221.2 76.3,220.1 76.9,220 77,220.3 76.5,220.7 76.3,221.9 
									75.9,223.5 75.6,223.9 								"/>
								<polygon id="polygon452" class="st15" points="71.3,222.5 73.7,223.3 75.9,223.5 78.4,222.7 80.7,223.3 83.2,225.9 
									84.2,229.9 83.2,234.4 79.2,236.6 74.5,237.7 70.7,236.9 67.9,235.5 65.3,232.5 64.4,228 65.5,225.5 68.3,223 69.5,222.5 
																	"/>
								<polygon id="polygon454" class="st16" points="72.2,225.2 75.6,225.3 78.1,224.4 79.7,225.5 78.8,227.1 74.8,227.8 
									72.1,227.1 71.5,226.2 								"/>
								<polygon id="polygon456" class="st17" points="84.2,229.9 84,229.2 82.7,231.9 80.1,233.7 75.7,235.3 70.3,234 66,230.5 
									64.9,226.8 64.4,228 65.3,232.5 67.9,235.5 70.7,236.9 74.5,237.7 79.2,236.6 83.2,234.4 								"/>
							</g>
							<g id="g468">
								<polygon id="polygon460" class="st14" points="89.3,222.6 89.3,221.3 87.5,220 87.4,219.5 88.8,219.9 89.8,221 90.2,221.5 
									90.5,219.6 91.1,218.1 91.4,218.1 91.3,219.7 91.7,221.2 92.4,220.2 93.2,219.2 93.8,219.1 93.8,219.4 93.3,219.8 93.1,221 
									92.7,222.6 92.4,222.9 								"/>
								<polygon id="polygon462" class="st15" points="88.1,221.6 90.5,222.4 92.7,222.6 95.2,221.7 97.5,222.3 100,224.9 101,229 
									100.1,233.5 96,235.6 91.4,236.8 87.5,236 84.7,234.6 82.1,231.6 81.2,227.1 82.3,224.6 85.1,222 86.3,221.6 								"/>
								<polygon id="polygon464" class="st16" points="89,224.3 92.4,224.4 94.9,223.5 96.5,224.6 95.6,226.1 91.7,226.9 
									88.9,226.2 88.3,225.2 								"/>
								<polygon id="polygon466" class="st17" points="101,229 100.8,228.3 99.5,230.9 96.9,232.8 92.5,234.4 87.1,233 82.8,229.6 
									81.7,225.9 81.2,227.1 82.1,231.6 84.7,234.6 87.5,236 91.4,236.8 96,235.6 100.1,233.5 								"/>
							</g>
							<g id="g478">
								<polygon id="polygon470" class="st14" points="106.1,219.9 106.1,218.5 104.3,217.2 104.2,216.8 105.6,217.2 106.7,218.2 
									107,218.7 107.3,216.8 107.9,215.4 108.2,215.4 108.1,216.9 108.5,218.4 109.3,217.5 110,216.4 110.6,216.3 110.6,216.6 
									110.2,217 109.9,218.3 109.5,219.8 109.3,220.2 								"/>
								<polygon id="polygon472" class="st15" points="104.9,218.9 107.3,219.6 109.5,219.8 112,219 114.3,219.6 116.8,222.2 
									117.8,226.2 116.9,230.7 112.8,232.9 108.2,234 104.3,233.2 101.6,231.8 98.9,228.8 98,224.3 99.1,221.8 101.9,219.3 
									103.1,218.8 								"/>
								<polygon id="polygon474" class="st16" points="105.8,221.5 109.3,221.6 111.7,220.7 113.3,221.8 112.4,223.4 108.5,224.2 
									105.8,223.4 105.2,222.5 								"/>
								<polygon id="polygon476" class="st17" points="117.8,226.2 117.6,225.5 116.3,228.2 113.8,230 109.3,231.6 103.9,230.3 
									99.6,226.9 98.5,223.1 98,224.3 98.9,228.8 101.6,231.8 104.3,233.2 108.2,234 112.8,232.9 116.9,230.7 								"/>
							</g>
							<g id="g488">
								<polygon id="polygon480" class="st14" points="126.3,223 126.3,221.6 128.1,220.3 128.2,219.9 126.7,220.3 125.7,221.3 
									125.4,221.9 125.1,219.9 124.5,218.5 124.2,218.5 124.3,220 123.9,221.5 123.1,220.6 122.4,219.5 121.8,219.4 121.8,219.7 
									122.2,220.1 122.5,221.4 122.9,222.9 123.1,223.3 								"/>
								<polygon id="polygon482" class="st15" points="127.5,222 125.1,222.8 122.9,222.9 120.4,222.1 118.1,222.7 115.6,225.3 
									114.6,229.3 115.5,233.8 119.6,236 124.2,237.1 128.1,236.3 130.8,235 133.5,231.9 134.4,227.4 133.3,224.9 130.5,222.4 
									129.3,221.9 								"/>
								<polygon id="polygon484" class="st16" points="126.6,224.6 123.1,224.7 120.7,223.8 119.1,224.9 120,226.5 123.9,227.3 
									126.6,226.5 127.2,225.6 								"/>
								<polygon id="polygon486" class="st17" points="114.6,229.3 114.8,228.6 116,231.3 118.6,233.2 123.1,234.7 128.5,233.4 
									132.8,230 133.9,226.2 134.4,227.4 133.5,231.9 130.8,235 128.1,236.3 124.2,237.1 119.6,236 115.5,233.8 								"/>
							</g>
							<g id="g498">
								<polygon id="polygon490" class="st14" points="117,232.3 117,230.9 118.7,229.7 118.9,229.2 117.4,229.6 116.4,230.6 
									116,231.2 115.7,229.3 115.2,227.8 114.9,227.8 115,229.4 114.5,230.9 113.8,229.9 113.1,228.8 112.5,228.8 112.4,229.1 
									112.9,229.4 113.1,230.7 113.6,232.3 113.8,232.6 								"/>
								<polygon id="polygon492" class="st15" points="118.1,231.3 115.7,232.1 113.6,232.3 111,231.4 108.8,232 106.2,234.6 
									105.3,238.6 106.2,243.1 110.3,245.3 114.9,246.4 118.7,245.7 121.5,244.3 124.1,241.3 125,236.8 124,234.2 121.1,231.7 
									119.9,231.2 								"/>
								<polygon id="polygon494" class="st16" points="117.2,233.9 113.8,234.1 111.3,233.2 109.7,234.2 110.6,235.8 114.6,236.6 
									117.3,235.9 117.9,234.9 								"/>
								<polygon id="polygon496" class="st17" points="105.3,238.6 105.4,237.9 106.7,240.6 109.3,242.5 113.7,244 119.2,242.7 
									123.4,239.3 124.5,235.6 125,236.8 124.1,241.3 121.5,244.3 118.7,245.7 114.9,246.4 110.3,245.3 106.2,243.1 								"/>
							</g>
							<g id="g508">
								<polygon id="polygon500" class="st14" points="69.5,232.7 69.5,231.3 71.3,230 71.4,229.5 70,230 68.9,231 68.6,231.5 
									68.3,229.6 67.7,228.2 67.4,228.2 67.5,229.7 67.1,231.2 66.3,230.3 65.6,229.2 65,229.1 65,229.4 65.4,229.8 65.7,231 
									66.1,232.6 66.3,233 								"/>
								<polygon id="polygon502" class="st15" points="70.7,231.6 68.3,232.4 66.1,232.6 63.6,231.8 61.3,232.4 58.8,235 57.8,239 
									58.7,243.5 62.8,245.7 67.4,246.8 71.3,246 74,244.6 76.7,241.6 77.6,237.1 76.5,234.6 73.7,232.1 72.5,231.6 								"/>
								<polygon id="polygon504" class="st16" points="69.8,234.3 66.3,234.4 63.9,233.5 62.3,234.6 63.2,236.2 67.1,236.9 
									69.8,236.2 70.4,235.3 								"/>
								<polygon id="polygon506" class="st17" points="57.8,239 58,238.3 59.3,241 61.8,242.8 66.3,244.4 71.7,243.1 76,239.6 
									77.1,235.9 77.6,237.1 76.7,241.6 74,244.6 71.3,246 67.4,246.8 62.8,245.7 58.7,243.5 								"/>
							</g>
							<g id="g518">
								<polygon id="polygon510" class="st14" points="85.6,234.7 85.6,233.4 83.8,232.1 83.7,231.6 85.1,232 86.2,233.1 
									86.5,233.6 86.8,231.7 87.4,230.2 87.7,230.2 87.6,231.8 88,233.3 88.8,232.3 89.5,231.3 90.1,231.2 90.1,231.5 89.7,231.9 
									89.4,233.1 89,234.7 88.8,235 								"/>
								<polygon id="polygon512" class="st15" points="84.4,233.7 86.8,234.5 89,234.7 91.5,233.8 93.8,234.4 96.3,237 97.3,241.1 
									96.4,245.6 92.3,247.7 87.7,248.9 83.8,248.1 81.1,246.7 78.4,243.7 77.5,239.2 78.6,236.7 81.4,234.1 82.6,233.7 								
									"/>
								<polygon id="polygon514" class="st16" points="85.3,236.4 88.8,236.5 91.2,235.6 92.8,236.7 91.9,238.2 88,239 85.3,238.3 
									84.7,237.3 								"/>
								<polygon id="polygon516" class="st17" points="97.3,241.1 97.1,240.3 95.8,243 93.3,244.9 88.8,246.5 83.4,245.1 
									79.1,241.7 78,238 77.5,239.2 78.4,243.7 81.1,246.7 83.8,248.1 87.7,248.9 92.3,247.7 96.4,245.6 								"/>
							</g>
							<g id="g528">
								<polygon id="polygon520" class="st14" points="100.3,232.7 100.3,231.3 98.6,230 98.4,229.5 99.9,230 100.9,231 
									101.3,231.5 101.6,229.6 102.1,228.2 102.4,228.2 102.4,229.7 102.8,231.2 103.5,230.3 104.2,229.2 104.8,229.1 
									104.9,229.4 104.4,229.8 104.2,231 103.7,232.6 103.5,233 								"/>
								<polygon id="polygon522" class="st15" points="99.2,231.6 101.6,232.4 103.7,232.6 106.3,231.8 108.5,232.4 111.1,235 
									112,239 111.1,243.5 107,245.7 102.4,246.8 98.6,246 95.8,244.6 93.2,241.6 92.3,237.1 93.3,234.6 96.2,232.1 97.4,231.6 
																	"/>
								<polygon id="polygon524" class="st16" points="100.1,234.3 103.5,234.4 106,233.5 107.6,234.6 106.7,236.2 102.7,236.9 
									100,236.2 99.4,235.3 								"/>
								<polygon id="polygon526" class="st17" points="112,239 111.9,238.3 110.6,241 108,242.8 103.6,244.4 98.1,243.1 93.9,239.6 
									92.8,235.9 92.3,237.1 93.2,241.6 95.8,244.6 98.6,246 102.4,246.8 107,245.7 111.1,243.5 								"/>
							</g>
						</g>
						<polygon id="polygon532" class="st12" points="109.1,243 108.9,242.8 106.7,244.1 97.3,244.3 85.2,244.3 81.8,243.6 80.7,242 
							80.4,242.2 80.8,244.9 83.2,245.5 96.3,245.3 108.1,245.3 						"/>
						<path id="path534" class="st18" d="M136.9,263.9l0.5-16.4l-0.5-19.1l0.7-1.4c0-0.2-0.5-0.3-1.2-0.4l-3,10.5l-6.4,0.3
							l-14.7-0.5l-22.1-0.3H60.7h-4.9l0.9,1.2v18.7l0.5,8.1l-1.6,1.8c0.9,0.9,5.5,0.2,5.5,0.2h34.8l9.9,0.9l26.7-0.5l4.4,0.9
							l1.2-0.9L136.9,263.9z M108.1,245.3H96.3l-13.1,0.2l-2.4-0.5l-0.3-2.8l1.9-1l4.8-0.2h15.4l5.5,0.7l1,1.4L108.1,245.3z"/>
						<path id="path536" class="st12" d="M137.3,247.5l-0.5-19.1l0.7-1.4c0-0.2-0.5-0.3-1.2-0.4l-3,10.3l0.1,2.3l-0.2,8.8v19.2
							l3.6,0.8l1.2-0.9l-1.2-3.2L137.3,247.5z"/>
						<polygon id="polygon538" class="st11" points="134.7,228.3 131.9,235.6 118.1,236 97.3,235.6 78.5,235.4 63.8,235.6 
							57.3,235.6 61.6,231.4 60.6,230.7 56.7,235.1 55.5,236.2 56.7,237.9 55.8,236.6 60.7,236.6 90.1,236.6 112.2,237 126.9,237.5 
							133.3,237.2 135.9,228.2 						"/>
					</g>
					<g id="g231">
						<path id="path219" class="st19" d="M70.2,252.3h-2.8v7.3h-2.3v-7.3h-2.8v-1.7h7.9V252.3z"/>
						<path id="path221" class="st19" d="M82.3,255c0,1.4-0.5,2.5-1.3,3.4c-0.8,0.8-2,1.3-3.4,1.3c-1.4,0-2.5-0.5-3.4-1.3
							s-1.3-2-1.3-3.4c0-1.4,0.5-2.5,1.3-3.5c0.8-0.8,2-1.3,3.4-1.3s2.5,0.5,3.4,1.3C81.9,252.4,82.3,253.5,82.3,255z M79.2,257.2
							c0.2-0.2,0.3-0.6,0.5-0.9c0.1-0.3,0.1-0.8,0.1-1.3c0-0.6-0.1-1-0.2-1.4c-0.1-0.3-0.2-0.7-0.5-0.9c-0.2-0.2-0.5-0.5-0.7-0.6
							c-0.2-0.1-0.6-0.1-0.8-0.1c-0.3,0-0.6,0-0.8,0.1c-0.2,0.1-0.5,0.2-0.7,0.5s-0.3,0.6-0.5,0.9s-0.2,0.8-0.2,1.4s0.1,1,0.2,1.4
							c0.1,0.3,0.2,0.7,0.5,0.9c0.2,0.2,0.5,0.5,0.7,0.6c0.2,0.1,0.6,0.1,0.8,0.1c0.2,0,0.6,0,0.8-0.1
							C78.6,257.7,79.1,257.6,79.2,257.2z"/>
						<path id="path223" class="st19" d="M95.4,259.6h-2.3v-6l-1.6,3.8h-1.6l-1.6-3.9v6H86v-8.9h2.7l2,4.5l2-4.5h2.7L95.4,259.6
							L95.4,259.6z"/>
						<path id="path225" class="st19" d="M108,259.6h-2.4l-0.6-1.9h-3.4l-0.6,1.9h-2.3l3.4-8.9h2.7L108,259.6z M104.5,256.1
							l-1.2-3.2l-1.2,3.2H104.5z"/>
						<path id="path227" class="st19" d="M118.4,252.3h-2.8v7.3h-2.3v-7.3h-2.8v-1.7h7.9V252.3z"/>
						<path id="path229" class="st19" d="M128.2,259.6h-6.5v-8.9h6.5v1.6H124v1.5h3.9v1.7H124v2.2h4.2V259.6z"/>
					</g>
				</g>
			</g>
			<g id="g590">
				<polygon id="polygon560" class="st7" points="315.6,255.2 316.6,263.2 317.8,272.4 320.1,286.4 321.5,295.9 322.5,301.6 
					322.7,307.8 327.2,307.3 324.6,290.8 321.8,271.5 319.9,257.7 319.7,254 				"/>
				<polygon id="polygon562" class="st3" points="323.9,304 322,293.1 319.7,280 318.4,268.9 317.5,260.9 316.6,254.9 315.6,255.2 
					316.6,263.2 317.8,272.4 320.1,286.4 321.5,295.9 322.5,301.6 322.7,307.8 324.2,307.6 				"/>
				<polygon id="polygon564" class="st7" points="290.7,283.8 301.2,281.7 317.8,278.2 331.8,275.3 346.7,271.3 347.6,276 
					334.9,280 318.9,283.2 305.2,286.2 292.4,289.5 291.1,286.4 				"/>
				<polygon id="polygon566" class="st3" points="346.9,272.4 346.7,271.3 331.8,275.3 317.8,278.2 301.2,281.7 290.7,283.8 
					290.8,284.8 295.7,284.1 309.4,281.2 322.8,278.4 334.4,275.6 343.4,273.4 				"/>
				<polygon id="polygon568" class="st7" points="306.3,305.4 311.1,298.3 318.9,287.7 326.3,277.7 333.2,268.6 338.4,259.9 
					333.7,257 325.4,270.6 318,280 308.2,294 303,301.7 				"/>
				<polygon id="polygon570" class="st3" points="308.3,296 316.3,285.3 323.4,275.6 329.8,265.3 334.8,257.6 333.7,257 
					325.4,270.6 318,280 308.2,294 303,301.7 303.8,302.6 				"/>
				<polygon id="polygon572" class="st7" points="296.1,264.6 304.2,270.3 316.3,278.7 326.1,285.5 335.3,292.7 342.4,298.6 
					345.1,294.5 328,282.4 317.3,274.3 304.4,264.9 299.2,261.6 				"/>
				<polygon id="polygon574" class="st3" points="317.3,274.3 304.4,264.9 299.2,261.6 298.3,262.5 302.5,265.8 314.7,274.1 
					327.2,283.6 340.3,293.3 344.3,295.7 345.1,294.5 328,282.4 				"/>
				<path id="path576" class="st4" d="M352.1,265.2l-7.1-8.5l-9.8-8.2l-16.6-2.4l-4.5,0.5l-13.8,3.1l-8.9,8.9l-5.6,12l-0.8,11.8
					l3.4,13.8l10.8,10.6l11.8,5.7l17.2,0.7l14-6.3l9.9-10.5l2.2-17.2L352.1,265.2z M345.5,292.1l-5.7,6.9l-9,5.4l-10.2,2.2l-14-3.1
					l-10.5-8.5l-4.1-10l-0.2-8.1l2.9-8.5l6.1-6.9l7.1-4.1l10.5-1.4l6.2,0.3l8.3,2.2l6.2,4.7l6.2,9l2.4,11.4L345.5,292.1z"/>
				<path id="path578" class="st5" d="M342,263.7l-9-6.9l-10.5-2.9h-9.7l-10.2,3.5l-6.7,5.2l-4.3,7.3l-2.1,7.3l0.7,7.4l2.8,9.2
					l5.7,6.2l8.6,5.5l10.5,2.6l10-1l10.2-4.7l6-5.2l4-7.8l1-6.6l-1.6-8.8L342,263.7z M345.5,292.1l-5.7,6.9l-9,5.4l-10.2,2.2
					l-14-3.1l-10.5-8.5l-4.1-10l-0.2-8.1l2.9-8.5l6.1-6.9l7.1-4.1l10.5-1.4l6.2,0.3l8.3,2.2l6.2,4.7l6.2,9l2.4,11.4L345.5,292.1z"/>
				<path id="path580" class="st5" d="M320.8,272.4l-4.7,0.5l-2.7,2.4l-1.1,3.8l0.6,4.4l2.3,2.2l3.7,1.6h4l3.2-1.8
					c0,0,1.7-3.4,1.7-3.6c0-0.3,0.2-4.1,0.2-4.1l-1.1-2.9l-1.8-1.7L320.8,272.4z"/>
				<path id="path582" class="st4" d="M325.1,273.2l-4.3-0.9l-4.7,0.5l-2.7,2.4l-1.1,3.8l0.1,1l1.4-3.3l2.2-2.4l3.2-1l2.9,0.2
					c0,0,2.6,1,2.9,1.2s1.7,2.2,1.7,2.2l1.2,2.2c0-0.8,0.1-1.5,0.1-1.5l-1.1-2.9L325.1,273.2z"/>
				<path id="path584" class="st4" d="M322.3,277.4l-2.6-0.7l-2.1,1.3l-1,2.2l0.9,2.6l2.2,1c0,0,2.3-0.5,2.6-0.7
					c0.3-0.2,1.6-1.9,1.6-1.9v-2.6L322.3,277.4z"/>
				<polygon id="polygon586" class="st3" points="319.7,276.7 317.7,278 316.6,280.2 316.7,280.3 318.6,278.7 320.6,278.7 
					322.8,279.2 323.9,280.2 323.9,278.7 322.3,277.4 				"/>
				<path id="path588" class="st3" d="M352.1,265.2l-7.1-8.5l-9.8-8.2l-16.6-2.4l-4.5,0.5l-13.8,3.1l-8.9,8.9l-5.6,12l-0.8,11.8
					l1.5,6.2l-0.1-8.9l1.9-10.2c0,0,4.8-10.5,5.2-11.1c0.3-0.5,8-5.7,8-5.7l8.8-2.4l14.2-1.2l10,3.3l11.6,9.3l6.2,8.9l0.7,8.4l0.6,5
					l0.6-4.7L352.1,265.2z"/>
			</g>
			<text id="text1966" transform="matrix(1 0 0 1 280.2172 256.5062)" class="st20 st21 st22">BANANE</text>
			<g id="g2202">
				<g id="g1980">
					<polygon id="polygon1968" class="st23" points="313.5,96.7 309.6,107.5 306,120 302.6,135.6 303.6,136.1 305.6,124.9 
						311,106.6 314.5,97 					"/>
					<polygon id="polygon1970" class="st8" points="304.8,86 306.4,85 320.3,88.4 327.1,91.1 327.6,93.2 322.3,107 316.5,105.8 
						313.3,103.7 310.5,102.8 300.9,99.6 300.4,98.5 301.9,93.9 					"/>
					<polygon id="polygon1972" class="st24" points="325.5,92 327.6,93.2 327.1,91.1 320.3,88.4 306.4,85 304.9,86 306.8,86.5 
						318.5,89.4 					"/>
					<polygon id="polygon1974" class="st25" points="319.3,97.7 323,98.7 322.8,100.2 318.9,98.7 					"/>
					<polygon id="polygon1976" class="st25" points="304.4,92.5 307.3,93.5 307,94.5 304,93.8 					"/>
					<path id="path1978" class="st25" d="M315.5,99.3l0.6-1.7l-1.4-1.1l1.5-3.9l0.8-1.8l-0.9-0.6l-4.9,3.3L309,96l3.6,2l-1.1,2.6
						l-0.4,1.2l1.3,0.4l1.5-3.5L315.5,99.3z M311.5,95.6l1.2-1.1l2-1.8l-1.5,3.6L311.5,95.6z"/>
				</g>
				<g id="g2200">
					<path id="path1982" class="st26" d="M240.9,122.1h-3.5l-0.3,2.1l1.4,3.1v7.4l-0.4,15.2l1.2,9.7l10.5,18.7l10.3,17.6h1.9
						l36.8-0.9l7.4,0.3l28.9,2.1l8.3-1.4l1.9-0.2l0.3-1.7c-0.7-1-1.4-15.2-1.4-15.2l-1.9-20l0.9-5.7l-0.9-2.2l-16.1-20l-9.3-10.7
						l-0.7-0.9h-2.1l-0.9,0.5l-31.6,1.6l-27.8,1.6L240.9,122.1z"/>
					<polygon id="polygon1984" class="st27" points="240.3,123.5 244.3,123.8 256.9,124.3 272.8,123.3 297.1,122.3 309.4,121.6 
						316,121 331.5,140.1 341.1,151.5 341.1,152.8 335,154 319,155.3 294.6,154 268.9,153.9 261.5,153.5 257.1,147.8 250.3,137.8 
						244.9,129.5 					"/>
					<polygon id="polygon1986" class="st28" points="284.4,146.3 311.9,144.2 319.3,155.2 335,154 341.1,152.8 341.1,151.5 
						331.5,140.1 316,121 309.4,121.6 297.1,122.3 272.8,123.3 256.9,124.3 244.3,123.8 240.3,123.5 244.9,129.5 250.3,137.8 
						257.1,147.8 258.4,149.3 264.8,147.8 					"/>
					<polygon id="polygon1988" class="st29" points="335,154 341.1,152.8 341.1,151.5 331.5,140.1 316,121.1 315.3,124.7 
						313.1,140.1 312,144.4 319.3,155.2 					"/>
					<g id="g2182">
						<g id="g2006">
							<polygon id="polygon1990" class="st30" points="264.4,158 265.5,158.1 267,157.1 273.4,155.3 285.1,152.1 293.1,148.7 
								303.3,139.9 306.5,136.9 308.5,130.2 310,130.1 310,133.6 309,137.6 309.8,141.2 308.4,146.9 305.4,153.9 295.9,160.9 
								286.6,164.1 275.5,165.5 266.4,161.6 265.9,161.1 263.9,160.5 							"/>
							<polygon id="polygon1992" class="st31" points="303.3,139.9 293.1,148.7 285.1,152.1 273.4,155.3 267,157.1 265.5,158.1 
								264.9,158 265,159.2 269.4,160 276.5,158.5 290.3,154.1 299.3,147.7 306.8,140 308,136.7 306.8,136.3 306.5,136.9 							"/>
							<polygon id="polygon1994" class="st32" points="309,136.6 308.8,138.6 308.1,143.2 305.5,148.5 299.9,154.9 289.6,159.6 
								280.6,162 272.6,162.4 267.8,161.1 263.9,160.1 263.9,160.5 265.9,161.1 266.4,161.6 275.5,165.5 286.6,164.1 295.9,160.9 
								305.4,153.9 308.4,146.9 309.8,141.2 309,137.6 309.3,136.7 							"/>
							<polygon id="polygon1996" class="st32" points="273.5,164 267.6,162.1 275.5,165.5 286.6,164.1 295.9,160.9 305.4,153.9 
								308.4,146.9 308.9,144.8 308.1,146 306,150.7 301.5,155.9 294.9,160 287.9,162.6 278.8,164.3 							"/>
							<polygon id="polygon1998" class="st30" points="309,137.5 310,133.6 310,130.1 308.5,130.2 306.5,136.8 							"/>
							<polygon id="polygon2000" class="st32" points="266,159.5 265.6,158 265.5,158.1 264.4,158 263.9,160.5 265.6,161.1 							
								"/>
							<path id="path2002" class="st32" d="M264.1,159.4l-0.2,1.1l1.8,0.5l0.2-1.1C265.4,159.8,264.8,159.6,264.1,159.4z"/>
							<polygon id="polygon2004" class="st32" points="309.6,132.7 308.1,137.2 309,137.5 310,133.6 310,130.1 309.8,130.1 							
								"/>
						</g>
						<g id="g2018">
							<polygon id="polygon2008" class="st30" points="280.4,151.6 279,152.6 278.8,153.9 279.4,154.6 280.3,157.6 284.5,162.6 
								292.9,168.9 302.4,172.1 310,171.3 319,164.3 325.9,157.2 325.9,155.3 328,152.6 327,151.4 324,153.1 321.4,153.4 
								316.3,156.2 305.1,160.1 299.4,159.4 290.4,156.7 282.8,153.5 281.4,152.7 							"/>
							<polygon id="polygon2010" class="st31" points="327,151.4 324,153.1 321.4,153.4 316.3,156.2 305.1,160.1 299.4,159.4 
								290.4,156.7 282.8,153.5 281.4,152.7 280.4,151.6 280.3,151.8 281,152.9 284,155.2 288.4,158 295.4,161.3 302.6,162.8 
								307.1,162.9 313.5,160 318.6,157.1 323.1,154.1 327.1,151.5 							"/>
							<polygon id="polygon2012" class="st32" points="328,152.6 328,152.4 324.8,156.1 319,160.6 310.5,166.4 304.5,167.8 
								297.9,166.9 291,163.5 285.1,159.7 281.6,156.7 278.9,153.1 278.8,153.9 279.4,154.6 280.3,157.6 284.5,162.6 292.9,168.9 
								302.4,172.1 310,171.3 319,164.3 325.9,157.2 325.9,155.3 							"/>
							<polygon id="polygon2014" class="st30" points="323.9,153.1 326,155.2 328,152.6 327,151.4 324,153.1 							"/>
							<polygon id="polygon2016" class="st32" points="281.4,152.5 280.4,151.6 279,152.6 278.8,153.9 279.4,154.5 							"/>
						</g>
						<g id="g2030">
							<polygon id="polygon2020" class="st30" points="326.8,141.9 328.5,141.3 329,140.2 328.6,139.4 328.5,136.2 325.8,130.2 
								319.4,121.9 311,116.4 303.4,115.2 292.9,119.6 284.5,124.6 283.9,126.4 281.1,128.5 281.9,129.9 285.1,129 287.9,129.5 
								293.4,128.1 305.1,127.3 310.5,129.4 318.5,134.4 325,139.5 326,140.6 							"/>
							<polygon id="polygon2022" class="st31" points="281.9,129.9 285.1,129 287.9,129.5 293.4,128.1 305.1,127.3 310.5,129.4 
								318.5,134.4 325,139.5 326,140.6 326.8,141.9 327.1,141.8 326.5,140.5 324.3,137.5 320.8,133.7 314.9,128.7 308.4,125.3 
								304,124 297,125.2 291.4,126.6 286.3,128.3 281.8,129.7 							"/>
							<polygon id="polygon2024" class="st32" points="281.1,128.5 281.3,128.7 285.3,126 292,123.2 301.6,119.7 307.9,120 
								314,122.6 319.6,127.7 324.4,132.9 327,136.7 328.6,140.8 329,140.2 328.6,139.4 328.5,136.2 325.8,130.2 319.4,121.9 
								311,116.4 303.4,115.2 292.9,119.6 284.5,124.6 283.9,126.4 							"/>
							<polygon id="polygon2026" class="st30" points="285.4,129 283.9,126.5 281.1,128.5 281.9,129.9 285.1,129 							"/>
							<polygon id="polygon2028" class="st32" points="326.1,140.8 326.8,141.9 328.5,141.3 329,140.2 328.6,139.4 							"/>
						</g>
						<g id="g2042">
							<polygon id="polygon2032" class="st30" points="330.3,153.7 331.9,153.1 332.5,151.9 332.1,151.1 332,148 329.1,142 
								322.8,133.7 314.5,128.2 306.9,126.9 296.4,131.3 287.9,136.4 287.4,138.2 284.5,140.2 285.3,141.6 288.6,140.8 291.3,141.3 
								296.9,139.9 308.6,139 314,141.2 322,146.2 328.5,151.3 329.5,152.4 							"/>
							<polygon id="polygon2034" class="st31" points="285.3,141.6 288.6,140.8 291.3,141.3 296.9,139.9 308.6,139 314,141.2 
								322,146.2 328.5,151.3 329.5,152.4 330.3,153.7 330.5,153.5 330,152.3 327.8,149.3 324.3,145.4 318.4,140.4 311.8,137.1 
								307.5,135.8 300.5,136.9 294.8,138.4 289.8,140.1 285.3,141.5 							"/>
							<polygon id="polygon2036" class="st32" points="284.5,140.2 284.6,140.4 288.8,137.8 295.5,134.9 305.1,131.5 311.4,131.7 
								317.4,134.3 323.1,139.4 327.9,144.6 330.5,148.4 332.1,152.6 332.5,151.9 332.1,151.1 332,148 329.1,142 322.8,133.7 
								314.5,128.2 306.9,126.9 296.4,131.3 287.9,136.4 287.4,138.2 							"/>
							<polygon id="polygon2038" class="st30" points="288.8,140.8 287.3,138.3 284.5,140.2 285.3,141.6 288.6,140.8 							"/>
							<polygon id="polygon2040" class="st32" points="329.6,152.6 330.3,153.7 331.9,153.1 332.5,151.9 332.1,151.1 							"/>
						</g>
						<g id="g2060">
							<polygon id="polygon2044" class="st30" points="251.4,136.6 252.6,136.4 253.8,135.2 259.3,132.3 269.8,127 276.6,122.3 
								284.4,112 286.9,108.5 287.4,101.9 288.9,101.5 289.4,104.8 289.4,108.7 290.8,111.9 290.5,117.6 289,124.7 281.6,133.1 
								273.5,138 263.4,141.5 254.1,139.6 253.3,139.2 251.4,139.1 							"/>
							<polygon id="polygon2046" class="st31" points="284.4,112 276.6,122.3 269.8,127 259.3,132.3 253.8,135.2 252.6,136.4 
								251.8,136.5 252.3,137.6 256.4,137.5 262.9,134.7 274.9,127.9 282,120.1 287.6,111.4 288.1,108.1 286.9,107.9 286.9,108.5 
															"/>
							<polygon id="polygon2048" class="st32" points="289,107.8 289.4,109.7 289.6,114.2 288.1,119.6 284.1,126.8 275.4,133.1 
								267.4,137.2 260,139.1 255.1,138.8 251.4,138.6 251.4,139.1 253.3,139.2 254.1,139.6 263.4,141.5 273.5,138 281.6,133.1 
								289,124.7 290.5,117.6 290.8,111.9 289.4,108.7 289.4,107.8 							"/>
							<polygon id="polygon2050" class="st32" points="261.1,140.4 255.3,139.8 263.4,141.5 273.5,138 281.6,133.1 289,124.7 
								290.5,117.6 290.6,115.5 290.1,116.7 289,121.6 285.8,127.4 280.4,132.5 274.4,136.3 266.1,139.7 							"/>
							<polygon id="polygon2052" class="st30" points="289.4,108.6 289.4,104.8 288.9,101.5 287.4,101.9 286.9,108.4 							"/>
							<polygon id="polygon2054" class="st32" points="253.3,137.7 252.6,136.4 252.6,136.4 251.4,136.6 251.4,139.1 253.3,139.2 
															"/>
							<path id="path2056" class="st32" d="M251.4,138v1.1l1.8,0.1v-1.1C252.8,138.1,252.1,138,251.4,138z"/>
							<polygon id="polygon2058" class="st32" points="288.9,104 288.4,108.5 289.4,108.6 289.4,104.8 288.9,101.5 288.5,101.6 
															"/>
						</g>
						<g id="g2078">
							<polygon id="polygon2062" class="st30" points="242.3,115.8 243.1,116.8 244.8,117.4 249.9,121.5 259.4,129.2 266.9,133.7 
								279.9,136.6 284.3,137.6 290.8,135.2 291.9,136.5 288.9,138.4 285.1,140 282.6,142.7 277.3,144.9 269.8,146.5 258.6,143.1 
								250.6,137.4 242.8,129.2 240.8,119.6 240.8,118.8 240.1,116.9 							"/>
							<polygon id="polygon2064" class="st31" points="279.9,136.6 266.9,133.7 259.4,129.2 249.9,121.5 244.8,117.4 243.1,116.8 
								242.6,116.3 241.8,117.1 243.8,120.9 249.1,125.9 260.8,134.4 271.1,138 281.9,139.5 285.3,138.6 284.9,137.3 284.3,137.6 
															"/>
							<polygon id="polygon2066" class="st32" points="285.9,139.4 284.1,140.4 280,142.6 274.3,143.5 265.8,142.7 255.9,137.2 
								248.6,131.3 243.8,125.1 241.9,120.4 240.6,116.7 240.1,116.9 240.8,118.8 240.8,119.6 242.8,129.2 250.6,137.4 258.6,143.1 
								269.8,146.5 277.3,144.9 282.6,142.7 285.1,140 285.9,139.7 							"/>
							<polygon id="polygon2068" class="st32" points="242.9,126.8 240.9,120.8 242.8,129.2 250.6,137.4 258.6,143.1 269.8,146.5 
								277.3,144.9 279.3,144.1 277.9,144.2 272.8,145.2 265.9,144.5 258.6,141.7 252.4,137.5 245.8,131.2 							"/>
							<polygon id="polygon2070" class="st30" points="285.3,140 288.9,138.4 291.9,136.5 290.8,135.2 284.4,137.5 							"/>
							<polygon id="polygon2072" class="st32" points="242.1,118 243.1,116.9 243.1,116.8 242.3,115.8 240.1,116.9 240.6,118.7 
															"/>
							<path id="path2074" class="st32" d="M241.1,116.4l-1.1,0.5l0.6,1.8l1-0.5C241.6,117.8,241.3,117,241.1,116.4z"/>
							<polygon id="polygon2076" class="st32" points="289.4,137.6 284.9,139 285.3,140 288.9,138.4 291.9,136.5 291.5,136.2 
															"/>
						</g>
						<g id="g2096">
							<polygon id="polygon2080" class="st30" points="262.5,126.3 263.8,126.8 265.4,126.4 271.9,126.9 284.1,128.2 292.9,127.8 
								305.4,123.1 309.5,121.5 313.6,115.9 315.3,116.4 314,119.7 311.6,123.1 311,126.7 307.6,131.5 302.4,136.9 291.1,140.2 
								281.3,139.9 270.4,137.3 263.3,130.4 262.9,129.7 261.3,128.5 							"/>
							<polygon id="polygon2082" class="st31" points="305.4,123.1 292.9,127.8 284.1,128.2 271.9,126.9 265.4,126.4 263.8,126.8 
								263,126.5 262.9,127.7 266.5,129.9 273.9,131 288.1,131.8 298.9,129 308.6,124.4 311,121.8 310,121 309.5,121.5 							"/>
							<polygon id="polygon2084" class="st32" points="311.9,122.1 311,123.9 308.8,128 304.5,132 296.9,136 285.8,136.7 
								276.4,135.8 268.9,133.3 264.8,130.4 261.4,128.1 261.3,128.5 262.9,129.7 263.3,130.4 270.4,137.3 281.3,139.9 291.1,140.2 
								302.4,136.9 307.6,131.5 311,126.7 311.6,123.1 312.1,122.3 							"/>
							<polygon id="polygon2086" class="st32" points="269,135.2 264.1,131.3 270.4,137.3 281.3,139.9 291.1,140.2 302.4,136.9 
								307.6,131.5 308.9,129.7 307.9,130.5 304,134.2 297.9,137.4 290.4,139 282.9,138.9 273.9,137.3 							"/>
							<polygon id="polygon2088" class="st30" points="311.6,122.9 314,119.7 315.3,116.4 313.6,115.9 309.5,121.4 							"/>
							<polygon id="polygon2090" class="st32" points="263.6,128.3 263.8,126.8 263.8,126.8 262.5,126.3 261.3,128.5 262.8,129.6 
															"/>
							<path id="path2092" class="st32" d="M261.9,127.5l-0.6,1l1.5,1.1l0.6-1C262.9,128.4,262.4,127.9,261.9,127.5z"/>
							<polygon id="polygon2094" class="st32" points="314,118.7 310.9,122.4 311.6,122.9 314,119.7 315.3,116.4 314.9,116.3 
															"/>
						</g>
						<g id="g2108">
							<polygon id="polygon2098" class="st30" points="274.4,130.2 272.9,131.2 272.5,132.4 273.1,133.1 273.9,136.2 278.3,141.3 
								286.4,147.7 295.9,151.1 303.5,150.4 312.5,143.6 319.5,136.6 319.6,134.7 322,132 320.9,130.8 317.9,132.5 315.1,132.7 
								310,135.4 298.9,139.1 293.1,138.3 284.1,135.4 276.6,132.1 275.4,131.3 							"/>
							<polygon id="polygon2100" class="st31" points="320.9,130.8 317.9,132.5 315.1,132.7 310,135.4 298.9,139.1 293.1,138.3 
								284.1,135.4 276.6,132.1 275.4,131.3 274.4,130.2 274,130.4 274.9,131.5 277.9,133.9 282.1,136.7 289.1,140.1 296.3,141.8 
								300.8,142 307.3,139.1 312.5,136.3 317,133.4 321,131 							"/>
							<polygon id="polygon2102" class="st32" points="322,132 321.8,131.9 318.5,135.4 312.6,139.8 304.1,145.6 298,146.9 
								291.5,145.8 284.8,142.3 278.9,138.4 275.4,135.4 272.8,131.7 272.5,132.4 273.1,133.1 273.9,136.2 278.3,141.3 286.4,147.7 
								295.9,151.1 303.5,150.4 312.5,143.6 319.5,136.6 319.6,134.7 							"/>
							<polygon id="polygon2104" class="st30" points="317.8,132.5 319.8,134.6 322,132 320.9,130.8 317.9,132.5 							"/>
							<polygon id="polygon2106" class="st32" points="275.1,131.1 274.4,130.2 272.9,131.2 272.5,132.4 273.1,133.1 							"/>
						</g>
						<g id="g2120">
							<polygon id="polygon2110" class="st30" points="287.6,146 288.4,147.6 287.9,148.8 287,149.1 284.6,151.1 278.3,152.9 
								267.8,153.6 258.1,151 252.1,146.1 248.6,135.4 246.8,125.7 247.8,124 247.4,120.6 248.9,120.2 250.6,123.3 252.6,124.9 
								255.3,130.1 262.4,139.4 267.6,142.1 276.6,144.8 284.8,146.3 286.3,146.3 							"/>
							<polygon id="polygon2112" class="st31" points="248.9,120.2 250.6,123.3 252.6,124.9 255.3,130.1 262.4,139.4 267.6,142.1 
								276.6,144.8 284.8,146.3 286.3,146.3 287.6,146 287.9,146.3 286.4,146.7 282.8,147 277.5,146.9 269.9,145.8 263,143.1 
								259.3,140.7 255.6,134.7 252.8,129.5 250.8,124.5 248.8,120.2 							"/>
							<polygon id="polygon2114" class="st32" points="247.4,120.6 247.8,120.5 248.3,125.3 250.8,132.3 254.4,141.8 258.8,146.3 
								264.6,149.1 272.4,150.1 279.4,150.2 283.9,149.6 288.1,148.1 287.9,148.8 287,149.1 284.6,151.1 278.3,152.9 267.8,153.6 
								258.1,151 252.1,146.1 248.6,135.4 246.8,125.7 247.8,124 							"/>
							<polygon id="polygon2116" class="st30" points="250.6,123.3 247.8,123.9 247.4,120.6 248.9,120.2 							"/>
							<polygon id="polygon2118" class="st32" points="286.4,146.3 287.6,146 288.4,147.6 287.9,148.8 287,149.1 							"/>
						</g>
						<g id="g2132">
							<polygon id="polygon2122" class="st30" points="287.9,127.5 289.5,127.5 290.4,128.5 290.4,129.3 291.1,132.4 290.1,138.9 
								286.4,148.7 279.9,156.4 272.9,159.7 261.8,158.5 252.1,156 251.1,154.5 247.8,153.3 248.1,151.8 251.6,151.6 253.9,150.4 
								259.9,150.1 271.3,147.6 275.8,144 282,137 286.9,130.2 287.5,128.9 							"/>
							<polygon id="polygon2124" class="st31" points="248.1,151.8 251.6,151.6 253.9,150.4 259.9,150.1 271.3,147.6 275.8,144 
								282,137 286.9,130.2 287.5,128.9 287.9,127.5 288.1,127.5 287.9,128.8 286.6,132.4 284.4,137.1 280.1,143.5 274.9,148.6 
								271,151.1 264.1,151.9 258.1,152.2 252.8,152 248.1,151.9 							"/>
							<polygon id="polygon2126" class="st32" points="247.8,153.3 247.8,153.1 252.6,154.5 259.9,155.3 270,155.9 275.9,153.9 
								280.9,149.6 285,143.1 288,136.8 289.5,132.4 289.9,127.9 290.4,128.5 290.4,129.3 291.1,132.4 290.1,138.9 286.4,148.7 
								279.9,156.4 272.9,159.7 261.8,158.5 252.1,156 251.1,154.5 							"/>
							<polygon id="polygon2128" class="st30" points="251.6,151.6 250.9,154.4 247.8,153.3 248.1,151.8 							"/>
							<polygon id="polygon2130" class="st32" points="287.5,128.7 287.9,127.5 289.5,127.5 290.4,128.5 290.4,129.3 							"/>
						</g>
						<g id="g2144">
							<polygon id="polygon2134" class="st30" points="295.4,184.1 296.9,184.9 298.3,184.6 298.5,183.7 300.9,181.5 303.3,175.3 
								305,165 303.4,155.2 299,148.7 288.8,144.1 279.3,141.4 277.5,142.2 274.1,141.5 273.5,143 276.4,144.9 277.9,147.1 
								282.9,150.3 291.4,158.3 293.5,163.7 295.3,173 296,181.2 295.9,182.7 							"/>
							<polygon id="polygon2136" class="st31" points="273.5,143 276.4,144.9 277.9,147.1 282.9,150.3 291.4,158.3 293.5,163.7 
								295.3,173 296,181.2 295.9,182.7 295.4,184.1 295.8,184.2 296.3,183 296.9,179.2 297.4,174.1 297,166.4 294.9,159.3 
								293,155.2 287.4,151 282.4,147.7 277.8,145.2 273.6,142.9 							"/>
							<polygon id="polygon2138" class="st32" points="274.1,141.5 274,141.7 278.8,142.9 285.4,145.9 294.5,150.6 298.5,155.3 
								300.8,161.5 301,169.2 300.4,176.1 299.4,180.7 297.5,184.7 298.3,184.6 298.5,183.7 300.9,181.5 303.3,175.3 305,165 
								303.4,155.2 299,148.7 288.8,144.1 279.3,141.4 277.5,142.2 							"/>
							<polygon id="polygon2140" class="st30" points="276.5,145 277.4,142.2 274.1,141.5 273.5,143 276.4,144.9 							"/>
							<polygon id="polygon2142" class="st32" points="295.9,182.9 295.4,184.1 296.9,184.9 298.3,184.6 298.5,183.8 							"/>
						</g>
						<g id="g2156">
							<polygon id="polygon2146" class="st30" points="343.8,134.2 343,132.7 341.8,132.2 341,132.7 337.9,133.4 332.5,137.2 
								325.4,144.9 321.3,154 321.3,161.7 327.4,171.2 333.8,178.7 335.6,179 338.1,181.5 339.4,180.5 338,177.4 338,174.7 
								335.8,169.3 333,157.9 334.1,152.3 337.8,143.5 341.8,136.3 342.6,135.1 							"/>
							<polygon id="polygon2148" class="st31" points="339.4,180.5 338,177.4 338,174.7 335.8,169.3 333,157.9 334.1,152.3 
								337.8,143.5 341.8,136.3 342.6,135.1 343.8,134.2 343.6,133.9 342.5,134.7 339.9,137.4 336.6,141.5 332.6,148.1 330.5,155.1 
								330,159.6 332.3,166.2 334.6,171.7 337.1,176.4 339.3,180.6 							"/>
							<polygon id="polygon2150" class="st32" points="338.1,181.5 338.4,181.3 335,177.8 331,171.5 326,162.6 325.3,156.5 
								326.9,150.1 331,143.6 335.3,138.1 338.5,134.8 342.5,132.5 341.8,132.2 341,132.7 337.9,133.4 332.5,137.2 325.4,144.9 
								321.3,154 321.3,161.7 327.4,171.2 333.8,178.7 335.6,179 							"/>
							<polygon id="polygon2152" class="st30" points="338,177.2 335.8,179.1 338.1,181.5 339.4,180.5 338,177.4 							"/>
							<polygon id="polygon2154" class="st32" points="342.8,134.9 343.8,134.2 343,132.7 341.8,132.2 341,132.7 							"/>
						</g>
						<g id="g2168">
							<polygon id="polygon2158" class="st30" points="335,133.2 334.1,131.7 332.9,131.3 332.1,131.7 329,132.4 323.6,136.2 
								316.5,143.9 312.5,153 312.5,160.7 318.5,170.2 325,177.8 326.9,178 329.3,180.5 330.5,179.5 329.1,176.4 329.3,173.7 
								326.9,168.3 324.1,156.9 325.4,151.3 329,142.6 332.9,135.3 333.9,134.1 							"/>
							<polygon id="polygon2160" class="st31" points="330.5,179.5 329.1,176.4 329.3,173.7 326.9,168.3 324.1,156.9 325.4,151.3 
								329,142.6 332.9,135.3 333.9,134.1 335,133.2 334.8,132.9 333.6,133.7 331,136.4 327.9,140.5 323.9,147.1 321.6,154.2 
								321.1,158.6 323.5,165.3 325.9,170.7 328.4,175.4 330.5,179.6 							"/>
							<polygon id="polygon2162" class="st32" points="329.3,180.5 329.5,180.3 326.1,176.8 322.3,170.6 317.3,161.6 316.5,155.5 
								318,149.1 322,142.6 326.5,137.1 329.8,133.9 333.5,131.5 332.9,131.3 332.1,131.7 329,132.4 323.6,136.2 316.5,143.9 
								312.5,153 312.5,160.7 318.5,170.2 325,177.8 326.9,178 							"/>
							<polygon id="polygon2164" class="st30" points="329.1,176.2 327,178.1 329.3,180.5 330.5,179.5 329.1,176.4 							"/>
							<polygon id="polygon2166" class="st32" points="334,134 335,133.2 334.1,131.7 332.9,131.3 332.1,131.7 							"/>
						</g>
						<g id="g2180">
							<polygon id="polygon2170" class="st30" points="292.3,171.1 292.9,172.8 293.9,173.4 294.8,173 297.9,172.9 304,169.9 
								312.1,163.5 317.5,155.1 318.8,147.5 314.3,137.1 309.1,128.7 307.3,128.1 305.3,125.3 303.9,126.1 304.8,129.4 304.3,132.1 
								305.8,137.7 306.6,149.4 304.5,154.8 299.6,162.8 294.6,169.4 293.5,170.4 							"/>
							<polygon id="polygon2172" class="st31" points="303.9,126.1 304.8,129.4 304.3,132.1 305.8,137.7 306.6,149.4 304.5,154.8 
								299.6,162.8 294.6,169.4 293.5,170.4 292.3,171.1 292.4,171.5 293.6,170.9 296.6,168.6 300.4,165 305.4,159.1 308.6,152.5 
								310,148.2 308.6,141.3 307.1,135.5 305.5,130.5 304,126 							"/>
							<polygon id="polygon2174" class="st32" points="305.3,125.3 305,125.5 307.8,129.5 310.6,136.2 314.1,145.8 314,152 
								311.5,158.1 306.5,163.9 301.3,168.6 297.4,171.3 293.4,173 293.9,173.4 294.8,173 297.9,172.9 304,169.9 312.1,163.5 
								317.5,155.1 318.8,147.5 314.3,137.1 309.1,128.7 307.3,128.1 							"/>
							<polygon id="polygon2176" class="st30" points="304.6,129.5 307.1,128 305.3,125.3 303.9,126.1 304.8,129.4 							"/>
							<polygon id="polygon2178" class="st32" points="293.4,170.5 292.3,171.1 292.9,172.8 293.9,173.4 294.8,173 							"/>
						</g>
					</g>
					<path id="path2184" class="st33" d="M344.3,178.9l-1.9-20l0.6-4.2l-9.4,1.6l-14,0.7l-18.1-0.9l-18.3-0.7l-23.3-0.2l-0.5-1.6
						l-6.7-9.3l-6.5-9.8l-6.4-9.5l-1.7-2.9h-0.6l-0.3,2.1l1.4,3.1v7.4l-0.4,15.2l1.2,9.7l10.5,18.7l10.3,17.6h1.9l36.8-0.9l7.4,0.3
						l28.9,2.1l8.3-1.4l1.9-0.2l0.3-1.7C345,193.1,344.3,178.9,344.3,178.9z M317,167.7l-1.7,0.9l-22.8-0.6l-3.6-0.5l-0.5-2.8
						l0.3-3.3l2.6-0.7l14.2-0.3l10.4,1.4l1.4,1.7L317,167.7z"/>
					<polygon id="polygon2186" class="st27" points="315.3,168.6 317,167.7 317,165.9 315.3,166.8 304.4,167 293.1,166.5 
						289.6,165.8 288.4,164.4 288.3,164.8 288.9,167.5 292.4,168 					"/>
					<path id="path2188" class="st20" d="M344.3,178.9l-1.9-20l0.6-4.2l-9.4,1.6l-14,0.7l-18.1-0.9l-18.3-0.7l-23.3-0.2l-0.1-0.2
						l-0.5,1.8v8.3l1.4,13.1l0.2,10.5l-0.5,7.1h1.7l36.8-0.9l7.4,0.3l28.9,2.1l8.3-1.4l1.9-0.2l0.3-1.7
						C345,193.1,344.3,178.9,344.3,178.9z M317,167.7l-1.7,0.9l-22.8-0.6l-3.6-0.5l-0.5-2.8l0.3-3.3l2.6-0.7l14.2-0.3l10.4,1.4
						l1.4,1.7L317,167.7z"/>
					<polygon id="polygon2190" class="st29" points="277.9,171.7 291.5,171.3 315.3,172.2 329.3,173.9 327.1,188.3 294.6,188.1 
						277.9,188.6 277,183.1 					"/>
					<polygon id="polygon2192" class="st34" points="279.1,173.1 278.8,178.1 278.4,183.1 279.1,186.5 289.1,186.5 306,186.5 
						325.8,186.5 327.5,175.1 317.5,173.4 300.4,173.1 282.9,172.7 					"/>
					<polygon id="polygon2194" class="st29" points="280,174.3 279.5,178.4 279.3,181.1 279.5,183.6 279.9,185.2 293.3,185.8 
						306.5,185.6 319.8,185.7 325,185.6 325.9,180.7 326.5,175.8 323,175.3 315.4,174.2 304.3,174.1 289.9,173.8 					"/>
					<g id="g2198">
						<polygon id="polygon2196" class="st26" points="342.4,150.9 337.4,144.6 336.6,146.2 341.1,151.5 341.1,152.8 335,154 
							319,155.3 294.6,154 268.9,153.9 261.5,153.5 257.1,147.8 250.3,137.8 244.9,129.5 240.3,123.5 241.6,123.6 241.3,122.1 
							240.9,122.1 238.1,122.1 239.8,125 246.1,134.5 252.6,144.4 259.3,153.7 259.8,155.3 283.1,155.4 301.5,156.1 319.5,157 
							333.5,156.3 343,154.7 343.3,153.2 						"/>
					</g>
				</g>
			</g>
			<text id="text2204" transform="matrix(1 0 0 1 280.2172 183.5062)" class="st20 st21 st22">BANANE</text>
		</g>
	</g>
</g>
</svg>
