<?xml version="1.0" encoding="utf-8"?>
<!-- Generator: Adobe Illustrator 22.1.0, SVG Export Plug-In . SVG Version: 6.00 Build 0)  -->
<svg version="1.1"
	 id="svg239" inkscape:version="1.0.2-2 (e86c870879, 2021-01-15)" sodipodi:docname="circle-cart-1.svg" xmlns:cc="http://creativecommons.org/ns#" xmlns:dc="http://purl.org/dc/elements/1.1/" xmlns:inkscape="http://www.inkscape.org/namespaces/inkscape" xmlns:rdf="http://www.w3.org/1999/02/22-rdf-syntax-ns#" xmlns:sodipodi="http://sodipodi.sourceforge.net/DTD/sodipodi-0.dtd" xmlns:svg="http://www.w3.org/2000/svg"
	 xmlns="http://www.w3.org/2000/svg" xmlns:xlink="http://www.w3.org/1999/xlink" x="0px" y="0px" viewBox="0 0 400 400"
	 style="enable-background:new 0 0 400 400;" xml:space="preserve">
<style type="text/css">
	.st0{fill:#FFFFFF;}
	.st1{fill:#205251;}
	.st2{fill:#56A197;}
	.st3{fill:#695B5B;}
	.st4{fill:#554444;}
	.st5{fill:#3A2C2D;}
	.st6{fill:#367171;}
	.st7{fill:#817171;}
	.st8{fill:#685A5A;}
	.st9{fill:#FFF0A9;}
	.st10{fill:#EACA7A;}
	.st11{fill:#E8510F;}
	.st12{fill:#FFC44D;}
	.st13{fill:#935D0F;}
	.st14{fill:#B2791F;}
	.st15{fill:#48A00E;}
	.st16{fill:#F73723;}
	.st17{fill:#FF7A6C;}
	.st18{fill:#CE1C0F;}
	.st19{fill:#E0A33F;}
</style>
<g id="Layer_2">
</g>
<g id="Layer_1">
	
		<sodipodi:namedview  bordercolor="#666666" borderopacity="1" gridtolerance="10" guidetolerance="10" id="namedview241" inkscape:current-layer="svg239" inkscape:cx="200" inkscape:cy="200" inkscape:pageopacity="0" inkscape:pageshadow="2" inkscape:window-height="480" inkscape:window-maximized="0" inkscape:window-width="718" inkscape:window-x="0" inkscape:window-y="0" inkscape:zoom="1.345" objecttolerance="10" pagecolor="#ffffff" showgrid="false">
		</sodipodi:namedview>
	<g id="Layer_2_1_">
	</g>
	<g id="Layer_1_1_">
		
			<sodipodi:namedview  bordercolor="#666666" borderopacity="1" gridtolerance="10" guidetolerance="10" id="namedview345" inkscape:current-layer="Layer_1" inkscape:cx="200" inkscape:cy="200" inkscape:pageopacity="0" inkscape:pageshadow="2" inkscape:window-height="480" inkscape:window-maximized="0" inkscape:window-width="687" inkscape:window-x="0" inkscape:window-y="0" inkscape:zoom="1.345" objecttolerance="10" pagecolor="#ffffff" showgrid="false">
			</sodipodi:namedview>
		<g id="g8">
			
				<image style="overflow:visible;opacity:0.11;enable-background:new    ;" width="1729" height="1729" id="image2" xlink:href="88024901.png"  transform="matrix(0.2392 0 0 0.2392 -5.3911 -3.3511)">
			</image>
			<g id="g6">
				<circle id="circle4" class="st0" cx="200" cy="200" r="196.6"/>
			</g>
		</g>
		<g id="g108">
			<g id="g58">
				<polygon id="polygon10" class="st1" points="61.6,271.5 63.1,280.3 63.1,286 63.8,289.3 96.5,290.1 131.1,290.5 148.3,290.8 
					150.6,288.7 152.1,273.4 130.5,271.6 96.7,271.8 66.1,271.3 				"/>
				<polygon id="polygon12" class="st2" points="66.9,269.9 67.6,280.4 69,284.9 73.5,286.7 88.4,286.7 99.8,286.8 101.8,286.7 
					102.5,279.2 102.9,270.9 				"/>
				<g id="g48">
					<polygon id="polygon14" class="st3" points="70.9,276.3 62.8,276 55.5,277.3 49.5,280.7 46.5,284.8 44,290.7 44.6,297.4 
						46.6,303.7 52.2,308.6 60,311 70.1,310.3 79.2,304.5 82,298.2 81.9,288.8 78.7,281.4 73.6,277 					"/>
					<path id="path16" class="st4" d="M74.1,280.3l-8.1-3.1c0,0-3.1-0.4-5.7-0.8l-4.8,0.9l-6,3.5l-3,4.1l-2.4,6l0.5,6.7l2,6.3
						l5.6,4.9L60,311l2.4-0.2l4.6-1l6.2-2.7l4.1-5.2l1.2-4.4l0.3-6l-1.7-6L74.1,280.3z"/>
					<polygon id="polygon18" class="st5" points="57.3,278.5 51.4,281.1 47.8,284.8 45.9,288.7 45.8,293.7 46.2,299.1 49.3,304.6 
						57.4,309 65.3,308.9 71.2,306.5 75.7,302.3 77.4,297.2 77.4,290 75.2,284.9 71.1,280.4 65.8,278.5 61.2,278 					"/>
					<polygon id="polygon20" class="st4" points="55.4,282.9 52.3,286.8 50.7,291.9 50.8,296 52.2,299.3 55.2,302.4 61.5,304.2 
						67,303.9 71.5,301 72.8,296 72.4,290 69.8,285.1 65.6,282.6 60.6,282 					"/>
					<polygon id="polygon22" class="st3" points="60.5,283.3 55.6,285.2 52.9,289.3 51.7,293.5 52.4,296.9 56.1,301.3 62,303 
						67,302.4 71,300.1 72,294.6 70.7,288.4 68,284.8 63.7,283.5 					"/>
					<polygon id="polygon24" class="st4" points="55.7,287.8 55,289 55.7,290.5 56.9,290.3 57.5,289.3 57.1,288.2 					"/>
					<polygon id="polygon26" class="st4" points="56,292.9 54.2,293.3 53.6,295 54.5,296.2 55.8,296.1 56.7,294.8 					"/>
					<polygon id="polygon28" class="st4" points="58,297.2 56.9,298.6 57.4,300.1 59,300.8 59.9,299.8 60,298 					"/>
					<path id="path30" class="st4" d="M63.3,298.3l-0.9,1.9l0.9,0.8l1.1-0.1c0,0,0.8-0.9,0.8-1.1c0-0.3-0.3-1.6-0.3-1.6L63.3,298.3z
						"/>
					<polygon id="polygon32" class="st4" points="67.4,296 67,297.3 68.2,298.3 69.2,298.1 70.1,296.5 69.3,295 					"/>
					<polygon id="polygon34" class="st4" points="60.3,285 59.8,286.7 60.8,287.6 62.1,287.4 62.6,286.3 62.4,285.3 61.6,284.7 
											"/>
					<polygon id="polygon36" class="st5" points="67.4,296 67,297.3 68.2,298.3 68.5,298.2 68.3,297.9 67.9,297.2 67.7,296.1 
						68,295.7 					"/>
					<polygon id="polygon38" class="st5" points="63.9,298.3 63.3,298.3 62.5,300.2 63.3,301 64.1,301 63.6,300.6 63.4,300 
						63.5,299 					"/>
					<polygon id="polygon40" class="st5" points="58.2,297.3 58,297.2 56.9,298.6 57.4,300.1 59,300.8 59.1,300.7 58.2,300 
						57.7,299.4 57.7,298.4 					"/>
					<polygon id="polygon42" class="st5" points="54.2,293.3 53.6,295 54.5,296.2 55.3,296.1 54.9,295.8 54.5,295.1 54.4,294.3 
						54.6,293.2 					"/>
					<polygon id="polygon44" class="st5" points="55.7,287.8 55,289 55.7,290.5 56.3,290.4 56,290 55.7,289.4 55.6,288.6 56,287.9 
											"/>
					<polygon id="polygon46" class="st5" points="61,287.1 60.7,286.4 60.8,285.4 61.3,284.8 60.3,285 59.8,286.7 60.8,287.6 
						61.4,287.5 					"/>
				</g>
				<polygon id="polygon50" class="st4" points="69.4,272.7 67.3,279.2 64.5,284.3 62.1,288 58.3,291.3 57.6,294.1 59.3,296.3 
					64.7,296.7 74.4,291.7 80.1,285.3 82.1,279.8 83.7,272.8 				"/>
				<polygon id="polygon52" class="st5" points="79.9,279.6 76.6,286.3 72,290.8 65.9,294.8 60.9,296.4 64.7,296.7 74.4,291.7 
					80.1,285.3 82.1,279.8 83.7,272.8 81.4,272.8 				"/>
				<polygon id="polygon54" class="st3" points="62.3,290 60.2,291.2 60.4,293.2 61.9,294.3 63.5,293.4 64,291.9 63.1,290.3 				"/>
				<polygon id="polygon56" class="st5" points="63.7,291.4 63.2,290.4 62,291.4 60.3,292.5 60.4,293.2 60.8,293.5 62.7,292.2 				
					"/>
			</g>
			<polygon id="polygon60" class="st4" points="51.2,202.3 52.4,212.7 52.8,224.6 54,248.4 55.1,266.3 98.2,267.5 162,268.9 
				240.1,270 304.2,269.1 344.3,268.2 345,246.3 344.3,222.1 344.1,203.7 260.7,203.7 177,201.4 101.9,201.6 65,202.1 			"/>
			<polygon id="polygon62" class="st5" points="56.3,208 56.5,217 56.7,226.7 57.4,234.1 58.6,246.5 59.3,255.3 106.1,254.4 
				148.4,254.8 186.9,256.9 208.1,257.1 232.8,256.2 268.5,256.2 303.7,256.7 340.6,256.2 341.3,243.3 340.6,224.4 340.1,209.7 
				316.6,208.5 295.9,209 269.2,209 234.6,209.4 197.8,209 172.4,208.5 148.7,208 112.5,208 90.2,208.3 69.7,208 			"/>
			<g id="g70">
				<polygon id="polygon64" class="st2" points="61.6,152.7 55.7,169.3 51.6,185.6 48.8,194.9 46.4,198 47.9,203.4 51.7,205.5 
					96.6,204.6 125.5,203.9 175.2,205.3 213.4,206.7 262.7,206.3 309,206 339.1,206 346.4,206 348.8,202.2 349.1,198.4 348.1,195.3 
					341.5,187.3 336,174.5 322.2,152.1 262,152.4 205.7,155.2 143.1,157.2 80.2,154.8 				"/>
				<polygon id="polygon66" class="st6" points="349.1,198.4 349,198.1 334.8,197.9 306.3,199.5 279.5,200.4 247.8,200.7 
					214.3,200.2 170.1,199.3 125.4,198.6 86.9,198.8 63.4,199.3 46.6,198.7 47.9,203.4 51.7,205.5 96.6,204.6 125.5,203.9 
					175.2,205.3 213.4,206.7 262.7,206.3 309,206 339.1,206 346.4,206 348.8,202.2 				"/>
				<polygon id="polygon68" class="st1" points="339.1,206 346.4,206 348.8,202.2 348.8,202.1 334.2,202.5 304.7,203.2 261.8,204.4 
					221.3,203.7 173.1,202.7 137.6,202.5 101.9,201.6 69.9,203.2 48.2,203.6 51.7,205.5 96.6,204.6 125.5,203.9 175.2,205.3 
					213.4,206.7 262.7,206.3 309,206 				"/>
			</g>
			<polygon id="polygon72" class="st2" points="58.1,258.2 52.8,265.8 51.9,270.3 52.6,272.8 71.3,273.7 105.7,273.2 134.2,273.9 
				158.5,274.9 205,277.2 231.1,277.3 273.1,278.7 298.5,278.4 337.2,278.5 350.9,278.2 352.8,277.7 352.8,273.4 352.6,271.8 
				340.5,258.7 309,259.7 265.7,259.4 229.3,259.2 198.4,260.6 112.5,256.7 			"/>
			<polygon id="polygon74" class="st6" points="273.1,278.7 298.5,278.4 337.2,278.5 350.9,278.2 352.8,277.7 352.8,273.8 
				351.2,273.5 331.2,273.9 306,273.9 283.7,274.4 261.3,274.4 241.3,274.2 223.3,273.5 198.7,273 168.7,271.9 146.1,270 
				132.6,269.1 107.9,269.1 73.1,268.6 56.5,268.9 52.3,268.3 51.9,270.3 52.6,272.8 71.3,273.7 105.7,273.2 134.2,273.9 
				158.5,274.9 205,277.2 231.1,277.3 			"/>
			<g id="g106">
				<polygon id="polygon76" class="st7" points="316.1,255.2 317.2,263.1 318.4,272.3 320.6,286.3 322,295.8 323,301.5 323.2,307.7 
					327.7,307.2 325.1,290.8 322.3,271.4 320.4,257.6 320.3,253.9 				"/>
				<polygon id="polygon78" class="st3" points="324.4,303.9 322.5,293 320.3,279.9 318.9,268.8 318,260.9 317.1,254.9 316.1,255.2 
					317.2,263.1 318.4,272.3 320.6,286.3 322,295.8 323,301.5 323.2,307.7 324.7,307.5 				"/>
				<polygon id="polygon80" class="st7" points="291.2,283.7 301.8,281.6 318.4,278.1 332.4,275.2 347.2,271.2 348.1,275.9 
					335.5,279.9 319.4,283.1 305.8,286.1 293,289.4 291.6,286.3 				"/>
				<polygon id="polygon82" class="st3" points="347.4,272.3 347.2,271.2 332.4,275.2 318.4,278.1 301.8,281.6 291.2,283.7 
					291.4,284.7 296.2,284 309.9,281.1 323.4,278.3 335,275.5 343.9,273.3 				"/>
				<polygon id="polygon84" class="st7" points="306.8,305.3 311.6,298.2 319.4,287.6 326.8,277.6 333.7,268.5 338.9,259.8 
					334.3,256.9 326,270.5 318.5,279.9 308.7,293.9 303.5,301.6 				"/>
				<polygon id="polygon86" class="st3" points="308.9,295.9 316.8,285.2 323.9,275.5 330.3,265.2 335.3,257.6 334.3,256.9 
					326,270.5 318.5,279.9 308.7,293.9 303.5,301.6 304.3,302.5 				"/>
				<polygon id="polygon88" class="st7" points="296.6,264.5 304.7,270.2 316.8,278.7 326.7,285.4 335.8,292.7 342.9,298.5 
					345.7,294.4 328.6,282.3 317.8,274.2 304.9,264.8 299.7,261.5 				"/>
				<polygon id="polygon90" class="st3" points="317.8,274.2 304.9,264.8 299.7,261.5 298.8,262.4 303,265.7 315.3,274 327.7,283.5 
					340.8,293.2 344.9,295.6 345.7,294.4 328.6,282.3 				"/>
				<path id="path92" class="st4" d="M352.6,265.2l-7.1-8.5l-9.8-8.2l-16.6-2.4l-4.5,0.5l-13.8,3.1l-8.9,8.9l-5.6,12l-0.8,11.8
					l3.4,13.8l10.8,10.6l11.8,5.7l17.2,0.7l14-6.3l9.9-10.5l2.2-17.2L352.6,265.2z M346,292l-5.7,6.9l-9,5.4l-10.2,2.2l-14-3.1
					l-10.5-8.5l-4.1-10l-0.2-8.1l2.9-8.5l6.1-6.9l7.1-4.1l10.5-1.4l6.2,0.3l8.3,2.2l6.2,4.7l6.2,9l2.4,11.4L346,292z"/>
				<path id="path94" class="st5" d="M342.6,263.6l-9-6.9l-10.5-2.9h-9.7l-10.2,3.5l-6.7,5.2l-4.3,7.3l-2.1,7.3l0.7,7.4l2.8,9.2
					l5.7,6.2l8.6,5.5l10.5,2.6l10-1l10.2-4.7l6-5.2l4-7.8l1-6.6l-1.6-8.8L342.6,263.6z M346,292l-5.7,6.9l-9,5.4l-10.2,2.2l-14-3.1
					l-10.5-8.5l-4.1-10l-0.2-8.1l2.9-8.5l6.1-6.9l7.1-4.1l10.5-1.4l6.2,0.3l8.3,2.2l6.2,4.7l6.2,9l2.4,11.4L346,292z"/>
				<path id="path96" class="st5" d="M321.3,272.3l-4.7,0.5l-2.7,2.4l-1.1,3.8l0.6,4.4l2.3,2.2l3.7,1.6h4l3.2-1.8
					c0,0,1.7-3.4,1.7-3.6c0-0.3,0.2-4.1,0.2-4.1l-1.1-2.9l-1.8-1.7L321.3,272.3z"/>
				<path id="path98" class="st4" d="M325.6,273.1l-4.3-0.9l-4.7,0.5l-2.7,2.4l-1.1,3.8l0.1,1l1.4-3.3l2.2-2.4l3.2-1l2.9,0.2
					c0,0,2.6,1,2.9,1.2s1.7,2.2,1.7,2.2l1.2,2.2c0-0.8,0.1-1.5,0.1-1.5l-1.1-2.9L325.6,273.1z"/>
				<path id="path100" class="st4" d="M322.9,277.3l-2.6-0.7l-2.1,1.3l-1,2.2l0.9,2.6l2.2,1c0,0,2.3-0.5,2.6-0.7
					c0.3-0.2,1.6-1.9,1.6-1.9v-2.6L322.9,277.3z"/>
				<polygon id="polygon102" class="st3" points="320.3,276.6 318.2,277.9 317.2,280.1 317.2,280.2 319.1,278.6 321.1,278.6 
					323.3,279.1 324.4,280.1 324.4,278.6 322.9,277.3 				"/>
				<path id="path104" class="st3" d="M352.6,265.2l-7.1-8.5l-9.8-8.2l-16.6-2.4l-4.5,0.5l-13.8,3.1l-8.9,8.9l-5.6,12l-0.8,11.8
					l1.5,6.2l-0.1-8.9l1.9-10.2c0,0,4.8-10.5,5.2-11.1c0.3-0.5,8-5.7,8-5.7l8.8-2.4l14.2-1.2l10,3.3l11.6,9.3l6.2,8.9l0.7,8.4l0.6,5
					l0.6-4.7L352.6,265.2z"/>
			</g>
		</g>
		<g id="g338">
			<g id="g158">
				<polygon id="polygon110" class="st1" points="61.1,271.6 62.6,280.4 62.6,286.1 63.3,289.4 96,290.2 130.5,290.6 147.8,290.9 
					150,288.8 151.6,273.5 130,271.7 96.1,271.9 65.5,271.4 				"/>
				<polygon id="polygon112" class="st2" points="66.4,270 67.1,280.5 68.5,285 73,286.8 87.8,286.8 99.2,286.9 101.3,286.8 
					102,279.3 102.4,271 				"/>
				<g id="g148">
					<polygon id="polygon114" class="st3" points="70.4,276.4 62.3,276 55,277.3 49,280.8 45.9,284.9 43.5,290.8 44,297.5 46,303.8 
						51.6,308.7 59.5,311.1 69.6,310.4 78.7,304.6 81.4,298.3 81.4,288.9 78.2,281.5 73.1,277.1 					"/>
					<path id="path116" class="st4" d="M73.6,280.4l-8.1-3.1c0,0-3.1-0.4-5.7-0.8l-4.8,0.9l-6,3.5l-3,4.1l-2.4,6l0.5,6.7l2,6.3
						l5.6,4.9l7.9,2.4l2.4-0.2l4.6-1l6.2-2.7l4.1-5.2l1.2-4.4l0.3-6l-1.7-6L73.6,280.4z"/>
					<polygon id="polygon118" class="st5" points="56.7,278.5 50.9,281.2 47.3,284.9 45.4,288.8 45.2,293.8 45.7,299.2 48.8,304.7 
						56.8,309.1 64.8,309 70.6,306.6 75.1,302.4 76.9,297.3 76.9,290 74.7,284.9 70.6,280.5 65.3,278.5 60.6,278.1 					"/>
					<polygon id="polygon120" class="st4" points="54.8,283 51.7,286.9 50.2,292 50.3,296.1 51.6,299.4 54.7,302.5 61,304.3 
						66.5,304 71,301.1 72.3,296.1 71.9,290 69.3,285.2 65,282.7 60.1,282.1 					"/>
					<polygon id="polygon122" class="st3" points="59.9,283.4 55.1,285.3 52.3,289.4 51.2,293.6 51.9,297 55.5,301.4 61.5,303.1 
						66.5,302.5 70.5,300.1 71.5,294.7 70.1,288.5 67.4,284.9 63.2,283.6 					"/>
					<polygon id="polygon124" class="st4" points="55.2,287.9 54.5,289.1 55.2,290.6 56.4,290.4 57,289.4 56.6,288.3 					"/>
					<polygon id="polygon126" class="st4" points="55.4,293 53.7,293.4 53,295.1 54,296.3 55.3,296.2 56.2,294.9 					"/>
					<polygon id="polygon128" class="st4" points="57.4,297.3 56.4,298.7 56.8,300.1 58.5,300.8 59.4,299.9 59.5,298.1 					"/>
					<path id="path130" class="st4" d="M62.8,298.4l-0.9,1.9l0.9,0.8l1.1-0.1c0,0,0.8-0.9,0.8-1.1c0-0.3-0.3-1.6-0.3-1.6L62.8,298.4
						z"/>
					<polygon id="polygon132" class="st4" points="66.8,296.1 66.5,297.4 67.7,298.4 68.7,298.2 69.5,296.6 68.7,295.1 					"/>
					<polygon id="polygon134" class="st4" points="59.8,285.1 59.2,286.8 60.3,287.7 61.6,287.5 62.1,286.4 61.8,285.4 61.1,284.8 
											"/>
					<polygon id="polygon136" class="st5" points="66.8,296.1 66.5,297.4 67.7,298.4 68,298.3 67.7,298 67.3,297.3 67.2,296.2 
						67.4,295.8 					"/>
					<polygon id="polygon138" class="st5" points="63.4,298.4 62.8,298.4 61.9,300.3 62.8,301.1 63.5,301 63.1,300.7 62.8,300.1 
						63,299.1 					"/>
					<polygon id="polygon140" class="st5" points="57.7,297.4 57.4,297.3 56.4,298.7 56.8,300.1 58.5,300.8 58.6,300.7 57.7,300.1 
						57.1,299.5 57.2,298.5 					"/>
					<polygon id="polygon142" class="st5" points="53.7,293.4 53,295.1 54,296.3 54.8,296.2 54.4,295.9 54,295.2 53.9,294.4 
						54.1,293.3 					"/>
					<polygon id="polygon144" class="st5" points="55.2,287.9 54.5,289.1 55.2,290.6 55.7,290.5 55.4,290.1 55.1,289.5 55.1,288.7 
						55.5,288 					"/>
					<polygon id="polygon146" class="st5" points="60.5,287.2 60.2,286.5 60.3,285.5 60.8,284.9 59.8,285.1 59.2,286.8 60.3,287.7 
						60.9,287.6 					"/>
				</g>
				<polygon id="polygon150" class="st4" points="68.8,272.8 66.8,279.3 64,284.3 61.6,288.1 57.8,291.4 57.1,294.2 58.8,296.4 
					64.2,296.8 73.8,291.8 79.5,285.4 81.6,279.8 83.2,272.9 				"/>
				<polygon id="polygon152" class="st5" points="79.4,279.7 76.1,286.4 71.4,290.9 65.4,294.9 60.4,296.5 64.2,296.8 73.8,291.8 
					79.5,285.4 81.6,279.8 83.2,272.9 80.9,272.9 				"/>
				<polygon id="polygon154" class="st3" points="61.7,290 59.7,291.3 59.8,293.3 61.4,294.4 63,293.5 63.5,291.9 62.6,290.4 				
					"/>
				<polygon id="polygon156" class="st5" points="63.2,291.5 62.7,290.5 61.5,291.5 59.8,292.6 59.8,293.3 60.2,293.6 62.2,292.3 
									"/>
			</g>
			<polygon id="polygon160" class="st4" points="50.7,202.4 51.8,212.7 52.3,224.7 53.5,248.5 54.6,266.4 97.7,267.6 161.5,269 
				239.6,270.1 303.7,269.2 343.8,268.3 344.4,246.4 343.8,222.2 343.5,203.8 260.1,203.8 176.5,201.5 101.4,201.7 64.5,202.1 			
				"/>
			<polygon id="polygon162" class="st5" points="55.8,208.1 56,217.1 56.2,226.8 56.9,234.2 58.1,246.6 58.8,255.4 105.5,254.4 
				147.9,254.9 186.4,257 207.6,257.2 232.2,256.3 268,256.3 303.2,256.7 340.1,256.3 340.8,243.4 340.1,224.5 339.6,209.7 
				316.1,208.6 295.4,209.1 268.7,209.1 234.1,209.5 197.2,209.1 171.9,208.6 148.1,208.1 112,208.1 89.6,208.4 69.1,208.1 			"/>
			<g id="g170">
				<polygon id="polygon164" class="st2" points="61.1,152.8 55.2,169.4 51,185.7 48.3,195 45.9,198.1 47.3,203.5 51.1,205.6 
					96.1,204.7 125,204 174.6,205.4 212.9,206.8 262.2,206.4 308.5,206.1 338.6,206.1 345.8,206.1 348.3,202.3 348.6,198.5 
					347.6,195.3 341,187.4 335.5,174.6 321.6,152.1 261.5,152.5 205.2,155.3 142.6,157.3 79.7,154.9 				"/>
				<polygon id="polygon166" class="st6" points="348.6,198.5 348.5,198.2 334.3,198 305.7,199.6 279,200.5 247.2,200.8 
					213.8,200.3 169.6,199.4 124.9,198.7 86.4,198.9 62.9,199.4 46,198.8 47.3,203.5 51.1,205.6 96.1,204.7 125,204 174.6,205.4 
					212.9,206.8 262.2,206.4 308.5,206.1 338.6,206.1 345.8,206.1 348.3,202.3 				"/>
				<polygon id="polygon168" class="st1" points="338.6,206.1 345.8,206.1 348.3,202.3 348.3,202.2 333.6,202.6 304.1,203.3 
					261.3,204.4 220.7,203.8 172.6,202.8 137.1,202.6 101.4,201.7 69.4,203.3 47.7,203.7 51.1,205.6 96.1,204.7 125,204 
					174.6,205.4 212.9,206.8 262.2,206.4 308.5,206.1 				"/>
			</g>
			<polygon id="polygon172" class="st2" points="57.6,258.2 52.2,265.8 51.4,270.3 52.1,272.9 70.7,273.8 105.1,273.3 133.6,274 
				158,275 204.5,277.3 230.6,277.4 272.6,278.8 298,278.5 336.7,278.6 350.3,278.3 352.2,277.8 352.2,273.5 352.1,271.9 340,258.8 
				308.5,259.7 265.2,259.5 228.8,259.3 197.9,260.7 112,256.7 			"/>
			<polygon id="polygon174" class="st6" points="272.6,278.8 298,278.5 336.7,278.6 350.3,278.3 352.2,277.8 352.2,273.9 
				350.7,273.6 330.6,274 305.5,274 283.2,274.5 260.8,274.5 240.8,274.3 222.8,273.6 198.1,273.1 168.2,272 145.6,270.1 132,269.2 
				107.4,269.2 72.6,268.7 56,269 51.7,268.4 51.4,270.3 52.1,272.9 70.7,273.8 105.1,273.3 133.6,274 158,275 204.5,277.3 
				230.6,277.4 			"/>
			<g id="g336">
				<polygon id="polygon306" class="st7" points="315.6,255.2 316.6,263.2 317.8,272.4 320.1,286.4 321.5,295.9 322.5,301.6 
					322.7,307.8 327.2,307.3 324.6,290.8 321.8,271.5 319.9,257.7 319.7,254 				"/>
				<polygon id="polygon308" class="st3" points="323.9,304 322,293.1 319.7,280 318.4,268.9 317.5,260.9 316.6,254.9 315.6,255.2 
					316.6,263.2 317.8,272.4 320.1,286.4 321.5,295.9 322.5,301.6 322.7,307.8 324.2,307.6 				"/>
				<polygon id="polygon310" class="st7" points="290.7,283.8 301.2,281.7 317.8,278.2 331.8,275.3 346.7,271.3 347.6,276 
					334.9,280 318.9,283.2 305.2,286.2 292.4,289.5 291.1,286.4 				"/>
				<polygon id="polygon312" class="st3" points="346.9,272.4 346.7,271.3 331.8,275.3 317.8,278.2 301.2,281.7 290.7,283.8 
					290.8,284.8 295.7,284.1 309.4,281.2 322.8,278.4 334.4,275.6 343.4,273.4 				"/>
				<polygon id="polygon314" class="st7" points="306.3,305.4 311.1,298.3 318.9,287.7 326.3,277.7 333.2,268.6 338.4,259.9 
					333.7,257 325.4,270.6 318,280 308.2,294 303,301.7 				"/>
				<polygon id="polygon316" class="st3" points="308.3,296 316.3,285.3 323.4,275.6 329.8,265.3 334.8,257.6 333.7,257 
					325.4,270.6 318,280 308.2,294 303,301.7 303.8,302.6 				"/>
				<polygon id="polygon318" class="st7" points="296.1,264.6 304.2,270.3 316.3,278.7 326.1,285.5 335.3,292.7 342.4,298.6 
					345.1,294.5 328,282.4 317.3,274.3 304.4,264.9 299.2,261.6 				"/>
				<polygon id="polygon320" class="st3" points="317.3,274.3 304.4,264.9 299.2,261.6 298.3,262.5 302.5,265.8 314.7,274.1 
					327.2,283.6 340.3,293.3 344.3,295.7 345.1,294.5 328,282.4 				"/>
				<path id="path322" class="st4" d="M352.1,265.2l-7.1-8.5l-9.8-8.2l-16.6-2.4l-4.5,0.5l-13.8,3.1l-8.9,8.9l-5.6,12l-0.8,11.8
					l3.4,13.8l10.8,10.6l11.8,5.7l17.2,0.7l14-6.3l9.9-10.5l2.2-17.2L352.1,265.2z M345.5,292.1l-5.7,6.9l-9,5.4l-10.2,2.2l-14-3.1
					l-10.5-8.5l-4.1-10l-0.2-8.1l2.9-8.5l6.1-6.9l7.1-4.1l10.5-1.4l6.2,0.3l8.3,2.2l6.2,4.7l6.2,9l2.4,11.4L345.5,292.1z"/>
				<path id="path324" class="st5" d="M342,263.7l-9-6.9l-10.5-2.9h-9.7l-10.2,3.5l-6.7,5.2l-4.3,7.3l-2.1,7.3l0.7,7.4l2.8,9.2
					l5.7,6.2l8.6,5.5l10.5,2.6l10-1l10.2-4.7l6-5.2l4-7.8l1-6.6l-1.6-8.8L342,263.7z M345.5,292.1l-5.7,6.9l-9,5.4l-10.2,2.2
					l-14-3.1l-10.5-8.5l-4.1-10l-0.2-8.1l2.9-8.5l6.1-6.9l7.1-4.1l10.5-1.4l6.2,0.3l8.3,2.2l6.2,4.7l6.2,9l2.4,11.4L345.5,292.1z"/>
				<path id="path326" class="st5" d="M320.8,272.4l-4.7,0.5l-2.7,2.4l-1.1,3.8l0.6,4.4l2.3,2.2l3.7,1.6h4l3.2-1.8
					c0,0,1.7-3.4,1.7-3.6c0-0.3,0.2-4.1,0.2-4.1l-1.1-2.9l-1.8-1.7L320.8,272.4z"/>
				<path id="path328" class="st4" d="M325.1,273.2l-4.3-0.9l-4.7,0.5l-2.7,2.4l-1.1,3.8l0.1,1l1.4-3.3l2.2-2.4l3.2-1l2.9,0.2
					c0,0,2.6,1,2.9,1.2s1.7,2.2,1.7,2.2l1.2,2.2c0-0.8,0.1-1.5,0.1-1.5l-1.1-2.9L325.1,273.2z"/>
				<path id="path330" class="st4" d="M322.3,277.4l-2.6-0.7l-2.1,1.3l-1,2.2l0.9,2.6l2.2,1c0,0,2.3-0.5,2.6-0.7
					c0.3-0.2,1.6-1.9,1.6-1.9v-2.6L322.3,277.4z"/>
				<polygon id="polygon332" class="st3" points="319.7,276.7 317.7,278 316.6,280.2 316.7,280.3 318.6,278.7 320.6,278.7 
					322.8,279.2 323.9,280.2 323.9,278.7 322.3,277.4 				"/>
				<path id="path334" class="st3" d="M352.1,265.2l-7.1-8.5l-9.8-8.2l-16.6-2.4l-4.5,0.5l-13.8,3.1l-8.9,8.9l-5.6,12l-0.8,11.8
					l1.5,6.2l-0.1-8.9l1.9-10.2c0,0,4.8-10.5,5.2-11.1c0.3-0.5,8-5.7,8-5.7l8.8-2.4l14.2-1.2l10,3.3l11.6,9.3l6.2,8.9l0.7,8.4l0.6,5
					l0.6-4.7L352.1,265.2z"/>
			</g>
			<g id="g119">
				<polygon id="polygon107" class="st8" points="92.9,207.3 94.9,219.8 96.3,234.1 96.7,251.9 95.6,252.3 95.6,239.6 93.7,218.5 
					92,207.5 				"/>
				<polygon id="polygon109" class="st9" points="79.2,198.4 80.1,196.7 94,193 101.4,192 102.9,193.6 104.8,208.4 99.2,210.1 
					95.3,209.8 92.5,210.4 82.5,212.3 81.4,211.6 80.4,206.8 				"/>
				<polygon id="polygon111" class="st10" points="100.3,193.6 102.9,193.6 101.4,192 94,193 80.1,196.7 79.2,198.3 81.1,197.8 
					93,194.7 				"/>
				<polygon id="polygon113" class="st11" points="96.6,201.8 100.4,200.8 100.8,202.3 96.6,202.8 				"/>
				<polygon id="polygon115" class="st11" points="83.3,204.2 86.4,203.7 86.7,204.7 83.7,205.5 				"/>
				<path id="path117" class="st11" d="M89,199l0.4-1.6l2-1l1.6,0.7l0.6,1.7l-1.2,1.5l2.3,1.8l0.2,3.1l-0.6,2.8l-2.6,0.9l-1.8-1
					l-1.3-2.1l0.7-0.5l1.4,1.1l1.3,0.4c0,0,1.2-0.8,1.2-1s0.2-2.2,0.2-2.2l-0.5-1.4l-1.8-0.5l-0.4-1.2l1-1.1l-0.1-1l-0.6-0.6
					l-0.8,0.4l-0.4,1L89,199z"/>
			</g>
			<g id="g217">
				<path id="path121" class="st12" d="M136.3,263.6l0.5-16.4l-0.5-19.1l0.7-1.4c-0.2-0.9-15-0.7-15-0.7l-44.2,1.6l-15.2-0.7
					l-0.9,1.6l-5.5,6.2l-1.2,1.2l1.2,1.6v18.7l0.5,8.1l-1.7,1.8c0.9,0.9,5.5,0.2,5.5,0.2h34.8l9.9,0.9l26.8-0.4l4.4,0.9l1.2-0.9
					L136.3,263.6z M107.5,245H95.8l-13.1,0.2l-2.4-0.5l-0.3-2.8l1.9-1l4.8-0.2H102l5.5,0.7l1,1.4L107.5,245z"/>
				<polygon id="polygon123" class="st13" points="63.1,228.2 62.1,230.1 56.7,235.3 63.3,235.3 78,235.1 96.8,235.3 117.6,235.6 
					131.4,235.3 134.3,227.7 129.7,227.3 117.6,227.2 99.8,227.8 80.7,228.5 69.2,228.5 				"/>
				<polygon id="polygon125" class="st14" points="63.2,235.3 63.3,231.5 63.3,228.2 63.1,228.2 62.1,230.1 56.7,235.3 				"/>
				<g id="g207">
					<g id="g135">
						<polygon id="polygon127" class="st15" points="71.9,223.2 71.9,221.9 70.2,220.6 70,220.1 71.5,220.5 72.5,221.6 72.9,222.1 
							73.2,220.2 73.7,218.7 74,218.7 73.9,220.3 74.4,221.8 75.1,220.8 75.8,219.8 76.4,219.7 76.5,220 76,220.4 75.8,221.6 
							75.3,223.2 75.1,223.5 						"/>
						<polygon id="polygon129" class="st16" points="70.8,222.2 73.2,223 75.3,223.2 77.9,222.3 80.1,222.9 82.7,225.5 83.6,229.5 
							82.7,234.1 78.6,236.2 74,237.4 70.2,236.6 67.4,235.2 64.8,232.2 63.9,227.7 64.9,225.2 67.8,222.6 69,222.2 						"/>
						<polygon id="polygon131" class="st17" points="71.7,224.9 75.1,225 77.6,224.1 79.2,225.2 78.3,226.7 74.3,227.5 71.6,226.8 
							71,225.8 						"/>
						<polygon id="polygon133" class="st18" points="83.6,229.5 83.5,228.8 82.2,231.5 79.6,233.4 75.2,235 69.7,233.6 65.5,230.2 
							64.4,226.5 63.9,227.7 64.8,232.2 67.4,235.2 70.2,236.6 74,237.4 78.6,236.2 82.7,234.1 						"/>
					</g>
					<g id="g145">
						<polygon id="polygon137" class="st15" points="88.7,222.3 88.7,220.9 87,219.7 86.9,219.2 88.3,219.6 89.3,220.6 89.7,221.2 
							90,219.3 90.5,217.8 90.8,217.8 90.8,219.4 91.2,220.9 91.9,219.9 92.6,218.8 93.2,218.8 93.3,219.1 92.8,219.4 92.6,220.7 
							92.2,222.3 91.9,222.6 						"/>
						<polygon id="polygon139" class="st16" points="87.6,221.3 90,222.1 92.2,222.3 94.7,221.4 97,222 99.5,224.6 100.4,228.6 
							99.5,233.1 95.5,235.3 90.8,236.4 87,235.7 84.2,234.3 81.6,231.3 80.7,226.8 81.8,224.2 84.6,221.7 85.8,221.2 						"/>
						<polygon id="polygon141" class="st17" points="88.5,223.9 91.9,224.1 94.4,223.2 96,224.2 95.1,225.8 91.1,226.6 88.4,225.9 
							87.8,224.9 						"/>
						<polygon id="polygon143" class="st18" points="100.4,228.6 100.3,227.9 99,230.6 96.4,232.5 92,234 86.6,232.7 82.3,229.3 
							81.2,225.6 80.7,226.8 81.6,231.3 84.2,234.3 87,235.7 90.8,236.4 95.5,235.3 99.5,233.1 						"/>
					</g>
					<g id="g155">
						<polygon id="polygon147" class="st15" points="105.5,219.5 105.5,218.2 103.8,216.9 103.7,216.4 105.1,216.8 106.1,217.9 
							106.5,218.4 106.8,216.5 107.3,215 107.6,215 107.6,216.6 108,218.1 108.7,217.1 109.5,216.1 110.1,216 110.1,216.3 
							109.6,216.7 109.4,217.9 109,219.5 108.7,219.9 						"/>
						<polygon id="polygon149" class="st16" points="104.4,218.5 106.8,219.3 109,219.5 111.5,218.6 113.8,219.3 116.3,221.8 
							117.3,225.9 116.4,230.4 112.3,232.5 107.6,233.7 103.8,232.9 101,231.5 98.4,228.5 97.5,224 98.6,221.5 101.4,218.9 
							102.6,218.5 						"/>
						<polygon id="polygon151" class="st17" points="105.3,221.2 108.7,221.3 111.2,220.4 112.8,221.5 111.9,223 107.9,223.8 
							105.2,223.1 104.6,222.1 						"/>
						<polygon id="polygon153" class="st18" points="117.3,225.9 117.1,225.2 115.8,227.8 113.2,229.7 108.8,231.3 103.4,229.9 
							99.1,226.5 98,222.8 97.5,224 98.4,228.5 101,231.5 103.8,232.9 107.6,233.7 112.3,232.5 116.4,230.4 						"/>
					</g>
					<g id="g165">
						<polygon id="polygon157" class="st15" points="125.8,222.7 125.8,221.3 127.5,220 127.7,219.5 126.2,220 125.2,221 
							124.8,221.5 124.5,219.6 124,218.2 123.7,218.2 123.8,219.7 123.3,221.2 122.6,220.3 121.9,219.2 121.3,219.1 121.2,219.4 
							121.7,219.8 122,221 122.4,222.6 122.6,223 						"/>
						<polygon id="polygon159" class="st16" points="126.9,221.6 124.5,222.4 122.4,222.6 119.8,221.8 117.6,222.4 115,224.9 
							114.1,229 115,233.5 119.1,235.6 123.7,236.8 127.5,236 130.3,234.6 132.9,231.6 133.9,227.1 132.8,224.6 129.9,222.1 
							128.7,221.6 						"/>
						<polygon id="polygon161" class="st17" points="126,224.3 122.6,224.4 120.2,223.5 118.5,224.6 119.4,226.1 123.4,226.9 
							126.1,226.2 126.7,225.2 						"/>
						<polygon id="polygon163" class="st18" points="114.1,229 114.2,228.3 115.5,231 118.1,232.8 122.6,234.4 128,233.1 
							132.2,229.6 133.3,225.9 133.9,227.1 132.9,231.6 130.3,234.6 127.5,236 123.7,236.8 119.1,235.6 115,233.5 						"/>
					</g>
					<g id="g175">
						<polygon id="polygon167" class="st15" points="116.5,232 116.5,230.6 118.2,229.4 118.3,228.9 116.9,229.3 115.9,230.3 
							115.5,230.8 115.2,228.9 114.7,227.5 114.4,227.5 114.4,229 114,230.6 113.3,229.6 112.6,228.5 112,228.4 111.9,228.7 
							112.4,229.1 112.6,230.4 113,231.9 113.3,232.3 						"/>
						<polygon id="polygon169" class="st16" points="117.6,231 115.2,231.8 113,231.9 110.5,231.1 108.2,231.7 105.7,234.3 
							104.7,238.3 105.7,242.8 109.7,245 114.4,246.1 118.2,245.3 121,244 123.6,240.9 124.5,236.4 123.4,233.9 120.6,231.4 
							119.4,230.9 						"/>
						<polygon id="polygon171" class="st17" points="116.7,233.6 113.3,233.7 110.8,232.8 109.2,233.9 110.1,235.5 114.1,236.3 
							116.8,235.5 117.4,234.6 						"/>
						<polygon id="polygon173" class="st18" points="104.7,238.3 104.9,237.6 106.2,240.3 108.8,242.1 113.2,243.7 118.6,242.4 
							122.9,239 124,235.2 124.5,236.4 123.6,240.9 121,244 118.2,245.3 114.4,246.1 109.7,245 105.7,242.8 						"/>
					</g>
					<g id="g185">
						<polygon id="polygon177" class="st15" points="69,232.3 69,231 70.7,229.7 70.9,229.2 69.4,229.6 68.4,230.7 68,231.2 
							67.7,229.3 67.2,227.8 66.9,227.8 67,229.4 66.5,230.9 65.8,229.9 65.1,228.9 64.5,228.8 64.4,229.1 64.9,229.5 65.2,230.7 
							65.6,232.3 65.8,232.6 						"/>
						<polygon id="polygon179" class="st16" points="70.1,231.3 67.7,232.1 65.6,232.3 63.1,231.4 60.8,232 58.2,234.6 57.3,238.6 
							58.2,243.2 62.3,245.3 66.9,246.5 70.7,245.7 73.5,244.3 76.2,241.3 77.1,236.8 76,234.3 73.2,231.7 72,231.3 						"/>
						<polygon id="polygon181" class="st17" points="69.2,234 65.8,234.1 63.4,233.2 61.7,234.3 62.6,235.8 66.6,236.6 69.3,235.9 
							69.9,234.9 						"/>
						<polygon id="polygon183" class="st18" points="57.3,238.6 57.5,237.9 58.7,240.6 61.3,242.5 65.8,244.1 71.2,242.7 
							75.4,239.3 76.5,235.6 77.1,236.8 76.2,241.3 73.5,244.3 70.7,245.7 66.9,246.5 62.3,245.3 58.2,243.2 						"/>
					</g>
					<g id="g195">
						<polygon id="polygon187" class="st15" points="85,234.4 85,233 83.3,231.8 83.2,231.3 84.6,231.7 85.6,232.7 86,233.3 
							86.3,231.3 86.8,229.9 87.1,229.9 87.1,231.5 87.5,233 88.2,232 88.9,230.9 89.5,230.9 89.6,231.2 89.1,231.5 88.9,232.8 
							88.5,234.4 88.2,234.7 						"/>
						<polygon id="polygon189" class="st16" points="83.9,233.4 86.3,234.2 88.5,234.4 91,233.5 93.3,234.1 95.8,236.7 96.8,240.7 
							95.9,245.2 91.8,247.4 87.1,248.5 83.3,247.8 80.5,246.4 77.9,243.4 77,238.9 78.1,236.3 80.9,233.8 82.1,233.3 						"/>
						<polygon id="polygon191" class="st17" points="84.8,236 88.2,236.2 90.7,235.3 92.3,236.3 91.4,237.9 87.4,238.7 84.7,238 
							84.1,237 						"/>
						<polygon id="polygon193" class="st18" points="96.8,240.7 96.6,240 95.3,242.7 92.7,244.6 88.3,246.1 82.9,244.8 78.6,241.4 
							77.5,237.7 77,238.9 77.9,243.4 80.5,246.4 83.3,247.8 87.1,248.5 91.8,247.4 95.9,245.2 						"/>
					</g>
					<g id="g205">
						<polygon id="polygon197" class="st15" points="99.8,232.3 99.8,231 98,229.7 97.9,229.2 99.4,229.6 100.4,230.7 100.7,231.2 
							101,229.3 101.6,227.8 101.9,227.8 101.8,229.4 102.2,230.9 103,229.9 103.7,228.9 104.3,228.8 104.4,229.1 103.9,229.5 
							103.6,230.7 103.2,232.3 103,232.6 						"/>
						<polygon id="polygon199" class="st16" points="98.6,231.3 101,232.1 103.2,232.3 105.7,231.4 108,232 110.5,234.6 
							111.5,238.6 110.6,243.2 106.5,245.3 101.9,246.5 98,245.7 95.3,244.3 92.6,241.3 91.7,236.8 92.8,234.3 95.6,231.7 
							96.8,231.3 						"/>
						<polygon id="polygon201" class="st17" points="99.5,234 103,234.1 105.4,233.2 107.1,234.3 106.2,235.8 102.2,236.6 
							99.5,235.9 98.9,234.9 						"/>
						<polygon id="polygon203" class="st18" points="111.5,238.6 111.3,237.9 110.1,240.6 107.5,242.5 103,244.1 97.6,242.7 
							93.4,239.3 92.2,235.6 91.7,236.8 92.6,241.3 95.3,244.3 98,245.7 101.9,246.5 106.5,245.3 110.6,243.2 						"/>
					</g>
				</g>
				<polygon id="polygon209" class="st13" points="108.6,242.7 108.4,242.5 106.1,243.7 96.8,243.9 84.7,243.9 81.3,243.2 
					80.2,241.7 79.9,241.8 80.2,244.6 82.6,245.1 95.8,245 107.5,245 				"/>
				<path id="path211" class="st19" d="M136.3,263.6l0.5-16.4l-0.5-19.1l0.7-1.4c0-0.2-0.5-0.3-1.2-0.4l-3,10.5l-6.4,0.3l-14.7-0.5
					l-22.1-0.3H60.2h-4.9l0.9,1.2v18.7l0.5,8.1l-1.7,1.8c0.9,0.9,5.5,0.2,5.5,0.2h34.8l9.9,0.9l26.8-0.4l4.4,0.9l1.2-0.9
					L136.3,263.6z M107.5,245H95.8l-13.1,0.2l-2.4-0.5l-0.3-2.8l1.9-1l4.8-0.2H102l5.5,0.7l1,1.4L107.5,245z"/>
				<path id="path213" class="st13" d="M136.8,247.2l-0.5-19.1l0.7-1.4c0-0.2-0.5-0.3-1.2-0.4l-3,10.3l0.1,2.3l-0.2,8.8V267l3.6,0.8
					l1.2-0.9l-1.2-3.2L136.8,247.2z"/>
				<polygon id="polygon215" class="st12" points="134.2,227.9 131.4,235.3 117.6,235.6 96.8,235.3 78,235.1 63.3,235.3 56.7,235.3 
					61.1,231 60.1,230.3 56.2,234.8 55,235.9 56.2,237.5 55.3,236.3 60.2,236.3 89.6,236.3 111.7,236.7 126.4,237.2 132.8,236.8 
					135.4,227.8 				"/>
			</g>
			<g id="g231">
				<path id="path219" class="st16" d="M70.2,252.3h-2.8v7.3h-2.3v-7.3h-2.8v-1.7h7.9V252.3z"/>
				<path id="path221" class="st16" d="M82.3,255c0,1.4-0.5,2.5-1.3,3.4c-0.8,0.8-2,1.3-3.4,1.3c-1.4,0-2.5-0.5-3.4-1.3
					s-1.3-2-1.3-3.4c0-1.4,0.5-2.5,1.3-3.5c0.8-0.8,2-1.3,3.4-1.3s2.5,0.5,3.4,1.3C81.9,252.4,82.3,253.5,82.3,255z M79.2,257.2
					c0.2-0.2,0.3-0.6,0.5-0.9c0.1-0.3,0.1-0.8,0.1-1.3c0-0.6-0.1-1-0.2-1.4c-0.1-0.3-0.2-0.7-0.5-0.9c-0.2-0.2-0.5-0.5-0.7-0.6
					c-0.2-0.1-0.6-0.1-0.8-0.1c-0.3,0-0.6,0-0.8,0.1c-0.2,0.1-0.5,0.2-0.7,0.5s-0.3,0.6-0.5,0.9s-0.2,0.8-0.2,1.4s0.1,1,0.2,1.4
					c0.1,0.3,0.2,0.7,0.5,0.9c0.2,0.2,0.5,0.5,0.7,0.6c0.2,0.1,0.6,0.1,0.8,0.1c0.2,0,0.6,0,0.8-0.1
					C78.6,257.7,79.1,257.6,79.2,257.2z"/>
				<path id="path223" class="st16" d="M95.4,259.6h-2.3v-6l-1.6,3.8h-1.6l-1.6-3.9v6H86v-8.9h2.7l2,4.5l2-4.5h2.7L95.4,259.6
					L95.4,259.6z"/>
				<path id="path225" class="st16" d="M108,259.6h-2.4l-0.6-1.9h-3.4l-0.6,1.9h-2.3l3.4-8.9h2.7L108,259.6z M104.5,256.1l-1.2-3.2
					l-1.2,3.2H104.5z"/>
				<path id="path227" class="st16" d="M118.4,252.3h-2.8v7.3h-2.3v-7.3h-2.8v-1.7h7.9V252.3z"/>
				<path id="path229" class="st16" d="M128.2,259.6h-6.5v-8.9h6.5v1.6H124v1.5h3.9v1.7H124v2.2h4.2V259.6z"/>
			</g>
		</g>
	</g>
</g>
</svg>
